<?xml version="1.0" encoding="UTF-8"?>
<svg id="Layer_1" xmlns="http://www.w3.org/2000/svg" version="1.1" viewBox="0 0 1920 1080">
  <!-- Generator: Adobe Illustrator 30.0.0, SVG Export Plug-In . SVG Version: 2.1.1 Build 123)  -->
  <path d="M732.6,247.2c-.7,0-1.5.1-2.3.1-.7,0-1.5,0-2.2.1-.7,0-1.2,0-1.9.1-1.1,0-2.3.4-3.7.9-1,.1-2,.3-3,.4-21.4,2.3-41.2,7.8-61.6,14.5-.8.3-1.7.5-2.5.8-4.2,1.4-8.3,2.9-12.3,4.7-1.5.7-3.2,1.3-4.8,2-11.9,4.9-23,10.9-33.6,18.1-1,.7-2,1.3-3,2-7.2,4.8-13.9,9.9-20.5,15.5-.5.4-1,.9-1.5,1.3-5.7,4.9-11.3,10.2-16.7,15.6-.6.6-1.2,1.2-1.8,1.8-.6.6-1.3,1.3-1.9,1.9-.6.6-1.3,1.3-1.9,1.9-2.1,1.9-3.6,4.1-4.5,6.5h-1.3c-.6.6-1.3,1.4-1.9,2.3-.4.5-.9,1.1-1.2,1.7-.5.7-1,1.3-1.5,2.1-.7.8-1.2,1.6-1.9,2.5-8.5,10.4-14.3,21.7-17.5,34.1.4,2,.9,3.9,1.3,5.9.2.7.4,1.5.5,2.3,4.8,19.7,12,39.3,20.9,57.6.4.9.8,1.8,1.2,2.7,2.4,5.3,5,10.4,7.9,15.5.3.5.6,1,.9,1.6,2.1,3.6,4.5,7,7.5,9.8h1.3c.8-7,1.5-13.9,2.1-20.9,0-.7,0-1.4.1-2.1.8-5.2.3-10.1-1.3-14.8-9.5-12.9-10.6-29.9-8.7-45.3,3.2-18.2,13.6-33.7,28.6-44.3,10.3-7.1,22-10.3,34.3-11.2.6,0,1.2,0,1.8-.1,16.8-.7,33.8,7.3,46.1,18.2,4.9,4.6,8.7,9.8,12,15.6.4.7.9,1.5,1.3,2.3,8.4,15.6,9.8,34.5,4.9,51.3-2.8,8.3-6.1,15.8-11.9,22.4-1.3,1.1-1.9,2.2-1.8,3.3h-1.3c-.7.7-1.3,1.5-1.9,2.3-1.5,1.9-2.6,3-4.8,4.1-2.5,1.3-4.5,2.6-6,5-1.2,5.4-.3,11.2.1,16.5,0,1.5.2,3.1.3,4.6.2,3.7.5,7.5.9,11.2,26.3-1.5,52.3-9.4,76.1-20.4,17.6-8.1,34.6-13.2,53.8-15.3.5,0,1,0,1.5-.1,12.9-1.4,26.3.2,39.1,1.4,4.8.4,9.5-.2,13.9-1.9,2.4-3.7,3.8-7.6,5.2-11.7.2-.7.4-1.4.7-2.1,9.5-29.3,14.5-59.2,14.5-90.2v-1.7c0-28.8-4.1-58.3-13.6-85.5-.3-.8-.6-1.6-.9-2.5-1.6-3.7-3.4-5.4-7.1-6.8-1.8-.5-3.6-1-5.5-1.5-.5-.1-1.1-.3-1.7-.4-34.8-8.4-71.8-8.4-107.4-5.6h0ZM865.3,264c-.8,2.4-.5,2.9.4,5.1,1.8,4.7,2.9,9.5,4,14.4.3,1.3.7,2.6,1,3.8,1.9,7.6,2.9,15.4,4,23.1,0,.8.2,1.5.4,2.3,3.7,26,3.6,55.2-.4,81.2,0,.7-.2,1.5-.3,2.3-3,20.6-8.7,41.7-16.5,61,.4.2.7.4,1,.6,3.2,2,6.3,4,9.4,6,.4.3.9.6,1.4.9,1,.7,1.9,1.2,2.9,1.9,1.5,1,2.9,1.9,4.3,2.9,4.5,2.9,8.9,5.9,13.3,9,2.1,1.5,4.3,2.8,6.5,4.2,2,1.2,3.9,2.6,5.9,4,.7.4,1.2.9,1.9,1.3,1.2.9,2.6,1.8,3.8,2.6.6.4,1.2.8,1.8,1.2.5.4,1.1.8,1.6,1.1,1,.5,2.1.6,3.3.2,1.5-.8,2.8-1.6,4-2.7.4-.4.9-.7,1.3-1.1s.9-.7,1.4-1.2c.5-.4,1-.8,1.5-1.2,1-.8,1.9-1.6,2.9-2.4,1.7-1.4,3.4-2.7,5.1-4.1,7-5.7,13.6-11.5,20-18,2-2,4-3.9,6.1-5.7,4.8-4,8.7-8.9,12.8-13.6.8-1,1.7-1.9,2.6-2.9,4.3-4.7,8.2-9.6,12.1-14.7.4-.5.8-1,1.2-1.6,5-6.5,9.8-13,14.1-20,1-1.6,2-3.2,3-4.8,4.3-6.9,8.3-13.9,12.1-21.1.4-.7.7-1.4,1.1-2.1,3-5.1,4.7-10.4,4.9-15.9-.5-.9-1.1-1.7-1.8-2.4-.4-.4-.7-.9-1.1-1.4-.4-.4-.8-1-1.2-1.5s-.8-1-1.2-1.5c-7-8.3-14.5-16.4-22.7-23.5-1.8-1.5-3.4-3.2-5.2-4.8-9.4-8.7-20.2-16.4-31.1-23.1-1.1-.7-2.2-1.5-3.3-2.4-1.7-1.3-3.3-2.3-5.1-3.3-.7-.4-1.3-.7-2-1s-1.3-.7-2-1c-1.2-.7-2.3-1.2-3.4-1.9-.6-.4-1.2-.7-1.9-1-1.1-.6-2.2-1.2-3.2-1.8-16.9-9.4-35-16.3-53.6-21.9-.7-.2-1.5-.4-2.2-.7-4.8-1.4-9.5-2.3-14.4-3.1h-.1ZM583.5,364.2c-10.2,12-14.6,26.9-13.8,42.5.3,3.4.8,6.7,1.3,10.1l1.3-.7c.2-.8.4-1.7.6-2.7,0-.6.2-1.1.3-1.7s.2-1.2.3-1.8c2.2-11.9,7.3-22.7,17.3-30,10.6-7,22.2-10.4,34.8-8.1,8.2,1.7,15.8,5.1,21.8,11.2.6.7,1.3,1,2.2.9.1.4.4.7.5,1.1,1,1.8,2.1,3.4,3.4,5,7.1,9.8,10.1,20.8,8.9,32.9-.4,2.6-1,5.1-1.5,7.6-1,5.7-.7,11.6.2,17.2,8.8-3.7,14.7-14.7,18.4-23,2.5-6.2,4-12.8,4.5-19.5,0-.5,0-1.1,0-1.6.5-14.7-4.8-29.9-14.8-40.6-10.6-11-23.7-18.6-39.2-19.1-18.8-.4-34,6.4-46.7,20.2h.2ZM1029.5,368.4c-.3.6-.6,1.2-.9,1.8-1.2,2.4-2.4,4.8-3.6,7.2-.6,1.2-1.2,2.5-1.8,3.7-4.9,9.8-10.2,19-16.1,28.1-1,1.4-1.8,2.9-2.7,4.3-3.2,5-6.5,9.8-10.2,14.4-.9,1.1-1.8,2.3-2.6,3.4-7.8,10.1-16.2,20-25.5,28.9-.8.7-1.1,1.5-1,2.5h-1.3c-1.7,1.5-3.1,2.8-4.1,4.8-.4.8-1.1,1.4-1.8,1.8-1.8,1-2.9,2.1-4.3,3.7-2.3,2.4-4.7,4.4-7.4,6.4-1.7,1.2-3.1,2.8-4.5,4.3-3.7,3.4-7.5,6.4-11.4,9.4-.7.6-1.5,1.2-2.2,1.7-4.3,3.3-7.4,5.7-9.2,7,.4,3.4,1.5,6.1,3.3,9,.3.4.5,1,.8,1.4,2.7,4.6,5.9,8.9,9.1,13.2,1.5,2,2.9,4,4.4,6.1.5.7,1.1,1.5,1.6,2.3,1,1.5,2.1,3,3.2,4.5.5.7,1,1.4,1.5,2.1.4.6.9,1.2,1.2,1.8.3.4.7.9,1.1,1.3h1.3c.1.4.4.7.5,1.1,2.8,5.2,7.4,9.6,11.4,13.9.8,1,1.7,1.8,2.5,2.8,3.7,4.3,7.6,8.2,11.5,12.2,1.2,1.2,2.4,2.4,3.6,3.6,4.3,4.3,8.7,8.4,13.6,12,.7.6,1.5,1.2,2.3,1.8,4.8,3.8,9.9,7.3,15.3,10.3.7-.2,1.3-.4,2.1-.7,0-.4,0-.9.1-1.3,2.9-28.2,11.2-59.6,33.9-78.7,11.2-8.7,23.8-13.7,38.1-14.2.4,0,1,0,1.5,0,17.2-.5,33.8,5.6,46.4,17.1.7.6,1.3,1.2,2,1.8.6.6,1.2,1.2,1.8,1.8,14.9,14.5,22.7,33.5,27.1,53.5h1.3c3.6-14.8,4.1-31.4.6-46.2-.6-2.2-.9-4.5-1.3-6.7-1.7-8.5-4.9-16.8-9-24.6-.5-1.3-.9-2.6-1.3-3.9h-1.3c0-.5,0-.8-.2-1.3-.7-2.4-1.8-4.2-3.2-6.3-.3-.4-.6-.8-.8-1.2-3.7-5.7-8-10.7-12.7-15.8-.4-.5-.9-1-1.4-1.5-6.3-6.4-13.6-11.2-21.2-16-.6-.4-1-.7-1.6-1-14.2-9.2-33.7-14.6-50.5-14.6h-10c-35.4,0-69.6,15.2-101.9,28.3v-.2ZM591.3,392.2c-6.5,8.1-10,17.4-9.3,27.8,1,8.6,3.3,15,8.6,21.8.5.7,1,1.4,1.5,2.1,6.2,6.5,14.7,10.6,23.6,10.9,10.5,0,18.9-2.2,26.7-9.6,1.2-1.3,2.3-2.6,3.3-4,.4-.4.7-.9,1-1.3,5.6-7.6,7.7-17.5,6.7-26.8-1.8-10.9-7.1-19.7-15.7-26.6-15.3-10.4-34-7.5-46.5,5.7h0ZM515.9,388.1c-8.4,7.2-17.7,13.4-27,19.4-.4.2-.8.5-1.2.7-6.5,4.3-13.1,8.1-19.7,12,1.9,7.6,4.4,14.9,7,22.2,1.6,4.8,3.2,9.5,4.3,14.4,1,4.6,2.9,8.8,5.7,12.5,3.7,2.2,7.5,3.5,11.5,4.8,2.5.9,4.8,2.1,7,3.4.7.4,1.5.9,2.2,1.3,2.9,1.8,5.4,3.8,8,5.9,1,.8,2.1,1.6,3.2,2.4,1.8,1.5,3.6,2.9,5.2,4.6l1.8,1.8h1.3v-1.3c.4-.1.7-.3,1.1-.4,2.1-1.2,3.4-2.6,5.1-4.3,6.7-6.3,14.7-11,22.7-15.5-.4-2.5-1-4.2-2.4-6.3-8.9-14.5-15.5-30.2-21.2-46.2-.2-.6-.4-1.2-.7-1.8-1.2-3.4-2.3-6.7-3.5-10.1-.5-1.4-1-2.8-1.5-4.2-2.1-6-3.7-12-5.1-18.2-1.5,0-3,2-4,2.8h.1ZM338.1,440.4c-.5.4-1,1-1.5,1.4-15.6,14.7-23.5,35.8-24.2,57-.6,22.3,2.8,43.5,11.6,64.1.2.5.4,1,.7,1.5,4.7,11.1,11,20.2,19.5,28.8l1.5,1.5c8.3,7.8,18.9,13.2,29.5,16.9.4.1,1,.3,1.5.5,30.4,9.9,66.5-3.3,95.4-13.5.6-.2,1.3-.5,1.9-.7,27.2-9.3,52.4-22.1,75.5-38.4,2.6-6.7,1.8-14.7-.7-21.3-4-8.7-10.4-16.1-16.8-23.1-.7-.8-1.4-1.6-2.1-2.4-13.5-15.4-29.3-30.7-49.7-35.9-2.7-1.3-3.9-3.7-5-6.4-.3-.9-.6-1.8-.9-2.7-.1-.5-.3-1-.5-1.5-.5-1.6-1-3.2-1.5-4.8l-1.1-3.3c-1-3.2-2.1-6.4-3.1-9.5-.3-.8-.5-1.6-.8-2.4-.7-1.9-1.2-3.9-1.9-5.9-.2-.6-.4-1.2-.6-1.8-.9-2.6-1.7-5.4-2.4-8.1-.1-.5-.3-1-.4-1.5-.4-1.3-.7-2.6-1.1-4-1.1-2.5-1.9-2.9-4.3-4-1.4-.5-2.9-.9-4.3-1.3-.8-.2-1.7-.4-2.6-.7-.9-.2-1.8-.4-2.7-.7-.4-.1-.9-.2-1.4-.4-7.3-1.9-14.6-3.5-22.1-4.3-.7,0-1.5-.1-2.3-.3-2.2-.2-4.3-.3-6.5-.4h-1.5c-27.7-1-55.6,7.6-75.3,27.7h.4ZM580.5,445.1c-1.3,12.5-2.3,24.9-3.1,37.5,0,.7,0,1.2-.1,1.9-1.3,20.7-1.6,41.3-1.5,62.1v11.1c0,14.5,0,29,.6,43.5.1,4.8.3,9.8.4,14.6v7.2c.1,12.8.4,25.7,1,38.6,0,.6,0,1.1,0,1.7.3,5.9.7,11.9,1.3,17.8,0,.5.1,1.1.1,1.6.2,2.3.6,4.5,1.2,6.8h2.1c.7-.7,1.4-1.6,2.1-2.5,4.6-5.4,11.2-7.3,18.1-8.3,3.7-.1,7,.1,10.6,1.1.4.1,1,.2,1.4.4,7.2,2,15.3,5.6,19.7,12,.7-.2,1.3-.4,2.1-.7,4.2-21.9,6.7-43.9,9.4-65.9.2-1.2.4-2.4.5-3.6,0-.6.2-1.2.3-1.9.5-3.2.9-6.3,1.4-9.4,1.9-12.6,3.6-25.2,5.1-37.8.3-2.1.6-4.2.7-6.3,5.6-44.4,8.5-89.1,8.6-133.7v-4.3c0-13.3-.5-26.4-1.5-39.7-2.3.5-3.5,1.3-5.4,2.9-2.7,2.2-5.6,4.2-8.6,6-.4.3-.7.5-1.2.7-10.4,6.2-23,6.7-34.5,3.8-6.6-1.9-12.5-4.9-17.6-9.6h-1.3c-.2-.7-.5-1.3-.7-2-1-1.1-2.1-2.1-3.3-3.3-.6-.7-1.2-1.4-1.8-2.1-.5-.6-.9-1.1-1.5-1.8h-.7l.3.3ZM888.9,461.2c0,.6-.2,1.2-.3,1.8-1.3,10.1-2.7,20.3-4.9,30.2-.2.7-.3,1.3-.5,2-.9,3.7-2.1,7.4-3.5,11-.7,1.8-1.2,3.6-1.8,5.5-5.2,17-11.8,34.6-21.4,49.6-1.4,2.1-2.6,4.4-3.9,6.6-1.8,3.2-3.7,6.3-5.9,9.2-1.4,1.9-2.7,3.8-4,5.7-4.3,6.3-8.9,12.1-14,17.7-1.2,1.3-2.3,2.6-3.5,3.9-4.3,4.9-9.1,9.6-14.1,13.9-1.4,1.2-2.7,2.4-4.1,3.6-3.5,3.1-7.1,6.1-11,8.6-.5.4-1,.7-1.6,1.1v1.3c1.5.7,3.1,1.3,4.6,2.1.4.2.8.4,1.2.6,7.8,3.5,15.8,6.4,24,9.1.5,0,.8.3,1.3.5,7.5,2.3,14.8,4.5,22.5,6,.7,0,1.3.3,2,.4,5.3,1,10.7,2,16.2,2.8.8,0,1.7.3,2.5.4,15.1,2.2,30.2,2.5,45.5,2.3h1.8c3.6,0,7.2-.3,10.7-.7,2.2-.2,4.5,0,6.7,0,.9,0,1.8-.5,2.6-1.4.2-.9.4-1.9.6-3,.1-.6.2-1.2.3-1.9,0-.7.2-1.3.3-2.1,0-.7.2-1.4.4-2.1.4-2.2.7-4.4,1-6.6.4-2.1.7-4.4,1-6.5.2-1.4.5-2.7.7-4.1.5-3,.9-5.9,1.6-8.9.7-3.2,1-6.4,1.4-9.5,0-.6.1-1.2.2-1.8.2-1.9.5-3.8.7-5.7,0-.7.2-1.3.2-2,1.2-11.5,2.1-23,2.6-34.5,0-1.4,0-2.7.2-4.1.6-12.2.6-24.4,0-36.6,0-.7,0-1.3,0-2-.5-10-1.7-19.8-3.1-29.6,0-.6-.2-1.2-.3-1.8-.7-6.4-2-12.7-3.6-19-2-1.3-2.8-1.5-5-1.9-.6,0-1.3-.2-2-.3-.7,0-1.4-.2-2.1-.3-11.2-1.7-22.3-4.1-33.2-7.1-.5,0-.9-.3-1.4-.4-2.1-.6-3.5-1.1-5.3-2.3h-2ZM1078.2,528.3c-.7.8-1.6,1.8-2.3,2.6-2.8,3.1-4.8,6.5-6.1,10.3h-1.3c-7.6,13.5-12.1,27.1-14.7,42.5-.3,1.5-.6,3-.8,4.5-2.5,13.8-4,27.8-5.7,41.8-.2,1.4-.4,2.8-.6,4.3-2.1,16.9-3.1,34-4.2,51,0,.6,0,1.1,0,1.7-.7,9.8-.7,19.6-.9,29.4v1.3c-.6,33.8.6,67.4,3.3,101.1,0,.8.1,1.6.2,2.4.7,9.2,1.6,18.4,2.7,27.5.6,4.6,1,9.1,1.3,13.6.4,4.5.8,9,1.5,13.4.4,2.8.7,5.5,1,8.3.8,7.5,1.9,14.8,3.1,22.3.7,3.9,1.3,7.9,1.9,11.9.1.6.2,1.2.3,1.9.5,3.4.9,6,1.2,7.7,1,6.6,2.1,13.3,3.3,19.9,0,.6.2,1.1.3,1.7,1,5.6,3.2,10.6,6.8,14.9,7.7,2.5,20.5-5.4,27.3-8.8,1.7-.9,3.4-1.9,5-2.8.8-.5,1.6-.8,2.4-1.3,9.4-5.1,18.8-11,26.2-19,.7-.7,1.6-1.4,2.6-2.2,12.7-10.5,14.7-27.1,18.1-42.2.7-2.7,1.2-5.4,1.9-8.2,0-.6.3-1.1.4-1.8,3.8-16.8,7.8-33.5,11.9-50.2,1.8-7.4,3.5-14.8,5.1-22.2.5-2.1.9-4.1,1.4-6.2.7-2.9,1.3-5.9,1.9-8.8.2-.9.4-1.9.5-2.7,0-.5.2-1,.3-1.5.5-2.2.8-4.6,1.3-6.8,2.7-14.4,5.4-28.8,7.8-43.2.3-1.7.6-3.5.8-5.1,1.2-6.9,2-13.8,2.6-20.8.5-4.5.9-8.9,1.5-13.3,4.3-34.2,6.5-69.1,4.4-103.5,0-.6,0-1.2,0-1.9-.6-9.4-2.5-18.2-5-27.3-.1-.6-.3-1.1-.5-1.7-1-3.5-2.2-6.7-4-10-.2-.5-.5-.9-.7-1.3-.7-1.3-1.3-2.5-2-3.7-.3-.6-.6-1.2-.9-1.8-1.5-2.8-3.3-5.4-5.2-7.9-1-1.3-2-2.6-2.9-3.9-3.6-4.9-8.2-8.5-13-12.2-.5-.4-1-.9-1.6-1.3-3.3-2.4-7-4.1-10.7-5.8-.6-.3-1.1-.5-1.7-.7-21.9-9.1-50.3-4.6-65.6,14.4l.4-.3ZM675,596.2c0,.7,0,1.5-.2,2.2-.2,2.7-.4,5.4-.6,8.2,0,1.2-.2,2.3-.3,3.5-.6,7.5-1.2,13.1-1.9,16.7-.7,3.5-.9,7.1-1.2,10.6-.8,8.2-1.7,16.4-3.4,24.5-.4,2-.3,3.9-.3,6,.6.2,1.1.5,1.7.7,2.4,1.3,4.4,2.9,6.4,4.8,2.2,1.9,4.4,3.7,6.7,5.5,2-5.2,2.8-10.5,3.5-16,0-.5,0-.9.2-1.5,1.2-9,2.2-17.9,3.2-26.9.7-6.2,1.3-12.3,2.2-18.5.6-3.4.7-6.7.6-10.1-.7-1-1.6-1.8-2.7-2.3-.6-.4-1.2-.7-1.8-1.1-.7-.4-1.3-.7-2-1.1-.7-.4-1.4-.8-2.1-1.3-2.6-1.6-5.4-2.9-8.3-3.9h0ZM1027.8,659.5c-.5,0-.9.3-1.4.4-1.2.3-2.5.7-3.7.9-.8.2-1.7.5-2.6.7-.2,2.8-.4,5.6-.6,8.4,0,.9,0,1.9-.2,2.8-.2,3.5-.4,7.1-.6,10.7v1.8c-.7,14.5-.7,28.9-.7,43.4v17.2c0,6.5,0,13.1.3,19.6v1.8c.6,19.6,2.7,39.2,4.4,58.7,0,1,.2,2.1.3,3.2.5,5.9,1.1,11.7,2,17.5.6,3.8.8,7.7,1.3,11.5.6,5.6,1.1,11.1,1.8,16.7.3,2.5.6,5,.8,7.6.9,17.5,4.5,34,10.6,49.6,2.7,1.4,5.3,1.2,8.3.9.5-.2.8-.5,1.3-.7.2-4.8-.6-9.3-1.4-14-.3-1.8-.6-3.6-.9-5.4-.1-.5-.2-.9-.2-1.4-5.8-35.4-9.5-71.5-11.5-107.3,0-1.1-.2-2.3-.5-3.5-7.3-44.5-4.4-97.6.9-142.2-2.7,0-5.1.6-7.8,1.2h0ZM665.3,678.2c0,.4,0,.7-.2,1.2-1.2,7.3-2.6,14.4-4.9,21.5-.4,1.2-.7,2.5-1.1,3.7-.2.5-.3,1-.5,1.6,0,.4-.2.7-.4,1.1.5.6,1.3.8,2.4.8,5.7,0,10.5-1.5,14.7-5.5,1.8-2.1,2.6-3.6,2.9-6.3,0-.5,0-.8.2-1.3.3-3.7-.7-6-2.8-8.9-3-3.5-6-6.4-10.3-7.8v-.2ZM604.9,693.6c-3.2,3.9-4.9,8-5.4,13.1.8,6,2.9,10.6,7.6,14.6,8.1,5.5,18.4,7,28,5.2,5.3-1.3,9.2-3.5,12.2-8.1.2-.4.5-.7.7-1.1,1.6-4.1,1.4-10.2,0-14.3-.9-1.5-2-2.7-3.2-4-.5-.5-.9-.9-1.3-1.4-6.3-5.9-14-9.7-22.6-9.9-6,.2-11.7,1.4-15.8,6h-.2ZM675,714c-4.7,2.1-9.3,2.7-14.3,3.4-1.6,0-2.6.4-3.1,1-.3,3.7.2,7,.9,10.6,2.9,14.8,3.1,29.6,3.1,44.5v2.3c0,12.8-.4,25.4-1.4,38.1,0,.6,0,1.1,0,1.7-1.2,15.9-2.8,31.7-4.6,47.4-.5,4.3-.9,8.6-1.4,12.9-.6,5.8-1.2,11.5-1.9,17.2,0,.7-.2,1.3-.2,2-.4,3.3-.7,6.5-1.1,9.9-.7,6.4-1.4,13-1.8,19.4,1.5.6,3.1,1.1,4.6,1.6.4.1.9.3,1.3.5,2.6.9,4.9,1.3,7.7,1.1,2.1-6.5,2.9-13.2,3.8-20,.2-1.2.4-2.4.5-3.6.4-2.4.7-4.9,1-7.3.4-2.9.8-5.8,1.2-8.7,1.2-8.6,2.3-17.3,3.2-25.9.4-3.7.8-7.6,1.3-11.3,1.7-14.3,3.3-28.6,4.7-42.9.3-3.2.7-6.3.9-9.4,3.2-28.7,3.3-56.8.7-85.4-2.4-.8-2.9-.3-5.1.8h0ZM593,723.5c-1.9,5.9-3.2,11.7-4.1,17.7-.2,1.3-.4,2.5-.6,3.8-2.1,13.4-2.6,26.7-2.6,40.2v2.4c0,10.6.2,21,1.2,31.6.3,3.1.6,6.1.8,9.2.8,9.8,1.8,19.6,2.8,29.4,1.8,17.6,2.8,35.2,3.7,52.9v1.5c0,2.5.3,5,.4,7.7v1.5c0,1,0,2.1.2,3.1.7,12,1.3,24.1,2.3,36.1,0,.5,0,.9,0,1.5.2,3.5.7,6.9,1.4,10.4,5.2,1.3,10.5,2.3,15.8,3.2,5.9.9,11.5,2.2,17.2,3.9,1.5-2.2,1.6-3.6,2-6.4,0-.5,0-.9.2-1.4.2-1.6.4-3.2.6-4.8,0-1.1.3-2.3.4-3.5.3-2.6.7-5.2.9-7.9.6-4.5,1-9,1.6-13.4,3.7-31.2,7.1-62.4,10.4-93.6,0-.5,0-.9.2-1.4.6-5.5,1.1-11.1,1.8-16.6.2-1.4.3-2.8.5-4.2.8-8.4,1.5-16.9,1.8-25.4v-1.9c1.4-22.9.7-45.7-2.1-68.4-2.4.7-4.7,1.6-7,2.6-11.6,4.7-23.4,3.9-34.9-.7-4.2-1.9-7.9-4.7-11.4-7.8-1-1-2.2-1.4-3.5-1.3v-.2ZM1429.1,848.5c-1.2.9-2.4,1.8-3.7,2.7-1.6,1.1-3.2,2.3-4.8,3.5.8,1.7,1.5,1.7,3.3,2.4,6.3,2.7,9.8,7.6,13.5,13.2,2.3-.4,3.5-1.3,5.2-3,2.6-2.4,5.4-4.6,8.3-6.6,1.9-1.4,3.7-2.7,5.7-4.1,1.7-1.2,3.3-2.4,4.9-3.6.8-.7,1.7-1.2,2.5-1.9,2.3-1.7,4.9-3.1,7.4-4.3l1.7-.8c2.5-1.2,4.9-2.3,7.5-3.5-.6-4.7-2.8-7.4-6.2-10.6-14.2-9.2-34.6,8.8-45.5,16.7h0ZM1449.7,873.4v1.3c.5.2,1,.4,1.5.7,8.7,4,14,10.2,17.9,18.8,3.1,8.9,2.6,17.7-.7,26.5-2,4-4.3,7.6-7.1,11,.9,3,2.6,4.7,4.9,6.7.4.3.7.7,1,.9,1,.9,2.1,1.8,3.1,2.7.5.4.9.8,1.4,1.3.8.7,1.6,1.4,2.4,2.1,3.9,3.5,7.8,6.9,11.5,10.7,1.2,1.1,2.4,2.2,3.6,3.3,3.5,3,6.7,6.3,10,9.5s2.1,2.1,3.3,3.2c5,4.9,9.6,10,12.2,16.6.3.7.5,1.2.7,1.9,1.8,5.2,1.6,9.4-.6,14.6-1.7,3.5-4.3,5.5-7.1,8-3.4,3-7.2,6.7-8.2,11.3.2,1.2.9,2.2,2.1,3,4.4,2.4,10.5,1.8,15.2.6,9.8-3.5,16.5-9,22-17.7.7-1.1,1.5-2.3,2.2-3.5s.7-1.1,1.1-1.7c1.3-2,2.7-3.8,4.1-5.6,1.1-1.5,2.1-3,3-4.6.3-.6.7-1.1.9-1.6,2.6-4.6,2.1-11.3.8-16.3-.7-2.6-1.7-5.2-2.6-7.8-.3-.9-.7-1.9-.9-2.8-2.3-6.7-5-13.2-8.1-19.5-.9-2.1-1.8-4.2-2.6-6.4-.7-1.9-1.6-3.6-2.5-5.3-1.7-3.4-3.2-6.8-4.5-10.4-.2-.4-.3-.8-.5-1.2-3.4-8.7-5.4-17.6-7.4-26.6-2.7-17.6-8.7-33.2-17.9-47.1-18-5.5-41.8,12-54.4,23.9l-.2-.6ZM1407.1,863c.2.5.4.9.6,1.4.2.7.5,1.2.7,1.9s.5,1.2.7,1.9c.7,2,1.3,3.8,2,5.8,5-.3,9.9-.7,14.8-1.3-.2-2.3-.3-3.5-2-5.2-5.9-3.8-9.8-4.7-16.7-4.5h0ZM1378.2,864.3c-27.3,3.5-54.7,6.4-82.2,3.7-36.1-3.5-73.5-2.1-108.7,7.3-.7.2-1.5.4-2.2.6-4.7,1.2-9.2,2.5-13.9,3.9-.7.2-1.4.4-2.1.7-.7.2-1.4.5-2.1.7s-1.2.4-1.9.6c-2.1.8-3,1.6-4.3,3.4-.7,1.9-1.1,3.7-1.5,5.6,0,.6-.3,1.1-.4,1.7-.4,1.8-.7,3.5-1.1,5.2-.3,1.1-.6,2.3-.7,3.5-1,4.6-2.1,9.1-2.6,13.7,2.9-.4,5.3-1.6,7.9-2.9l2.8-1.4c.5-.3.9-.5,1.5-.7,9.2-4.7,18.6-8.9,28.4-12.3,2.2-.7,4.4-1.6,6.5-2.4,12.9-4.7,26-7.2,39.4-9.3.7,0,1.5-.3,2.3-.4,3.7-.6,7.5-1.1,11.2-1.6.4,0,.8,0,1.2-.2,12.4-1.5,25-1.2,37.4-1,32.8.3,64.5-.4,96.9-5.2,3.6-.6,7.3-.9,11-1.3-.7-5.6-2.5-9-6.4-12.9-5.6-.4-11,.5-16.5,1.2h0ZM1434.8,881.8c.6,3.1,1.3,5.9,2.5,8.8,5,12.5,6.1,25.7,6.5,39,5.5-.7,9.3-2.3,12.9-6.7,3.8-5.4,6.2-12.4,5.2-19.1-2.1-8.5-6.3-14.8-13.6-19.6-4.3-2.2-8.8-2.2-13.5-2.3ZM1409.3,883.9c-.7,0-1.3.2-2,.3-2.1.3-4,.6-6.1.7-1.3.2-2.6.4-3.9.5-5.6.7-11.3,1.5-16.9,2.3-7.2,1-14.4,1.9-21.6,2.5-1.1,0-2.2.2-3.4.4-3.1.3-6.2.6-9.2.8-.6,0-1.1,0-1.8.2-4.4.4-8.8.6-13.3.6h-49.8c-13.5,0-27,.4-40.3,2.9-.7,0-1.6.3-2.3.4-14.5,2.6-28.3,6.8-42.1,11.8-.7.3-1.6.6-2.3.8-4.2,1.5-8.2,3.1-12.2,4.9-.7.3-1.4.6-2.1.9-2,.9-3.9,1.9-5.9,2.8-.8.4-1.6.7-2.4,1.1-5.8,2.7-11.3,5.8-16.7,9.2,0,.4.3.7.4,1,7.1,20.4,3.3,44.1-5.7,63.2-5.2,10.6-9,16.6-11.5,17.7v1.3c24-2.1,49.1-8.8,72.2-15.7,3.2-.9,6.4-1.8,9.7-2.6,2.1-.6,4.2-1.1,6.4-1.7,2.4-.7,4.9-1.3,7.4-1.9,4.4-1,8.8-2.1,13.1-3.3,3.3-.8,6.6-1.7,9.9-2.5,3.7-.9,7.6-2,11.3-3,2.1-.6,4-1.1,6.1-1.6.7-.2,1.6-.4,2.3-.7,6.2-1.7,12.3-3.3,18.6-4.9,9.9-2.6,19.8-5.2,29.7-8,5.9-1.7,11.9-3.4,17.7-4.9,7.2-2,14.4-3.8,21.5-6.1,3.1-.9,6.2-1.8,9.3-2.5,1.3-.3,2.6-.7,3.9-.9.8-.2,1.8-.5,2.6-.7,1.9-.5,3.7-.9,5.6-1.6,3.4-1.1,6.8-2.1,10.2-2.9.7-.2,1.5-.4,2.1-.6,4-1.1,7.9-2,12-2.6,1.9-.4,3.6-.9,5.4-1.6,1.3-.3,2.6-.7,3.9-.9.7-.2,1.5-.3,2.1-.5.7-.2,1.5-.4,2.3-.6,1.6-.4,3.2-.7,4.8-1.1,1.2-.3,2.4-.6,3.6-.8,1.5-4.2,1.5-8.1,1.5-12.5v-2.2c0-6.1-.7-11.7-2.1-17.6,0-.5-.2-.9-.4-1.4-1.7-7.1-4.6-13.5-8.7-19.2-4.3-.7-9,.2-13.3.7l.3-.2ZM579.5,930c-.7.2-1.5.5-2.2.7-.7.3-1.6.5-2.3.7-1.6.5-3.2.9-4.8,1.4-.7.2-1.5.5-2.3.7-3.1.9-6.2,1.8-9.2,2.6-1.5.5-2.9.9-4.3,1.5-2.9,1.1-5.8,1.9-8.8,2.7-7.6,2.1-14.9,4.7-22.3,7.3-1.9.7-3.8,1.3-5.7,2-5.4,1.9-10.6,3.6-15.7,6.4v2c8.4,3.6,16.9,3.5,25.9,2.6.7,0,1.4,0,2.1-.2,2.3-.2,4.7-.5,7-.7.7,0,1.5-.2,2.2-.3,5.4-.6,10.4-2.1,15-4.8,9.6-7.5,20.3-11.8,31.8-15.3.6-2.4.7-4.5.4-7,0-.6-.1-1.2-.2-1.9,0-.5,0-.9-.2-1.4-2.4,0-4,.4-6.4,1h0ZM1141.5,933.5c-.7.7-1.3,1.5-1.9,2.2-14.9,17.3-37.2,29.9-58.8,36.5-1.2.4-2.3.7-3.5,1.2-.7.2-1.5.5-2.3.7,3.6,8.8,7.6,15.6,14.2,22.6.5.6,1,1.2,1.6,1.8,7.6,6.8,17,11.6,27.4,11.4,6.1-.6,10.3-4.2,14.2-8.6,13.7-16.6,18.5-39.8,16.8-60.9-.4-3.5-.7-6.5-2.4-9.5-2.6,0-3.2.8-5.1,2.6h0ZM647.9,935.4v10.4c2.2,1.4,4.5,2.1,6.9,2.3,3-2.1,4.9-4.7,6-8.1-3.1-2.7-8.7-6.6-12.9-4.5h0ZM1049.2,942.5v2.6c.5.2.8.5,1.3.7-.2-1-.5-2.1-.7-3.3h-.7ZM581.1,950.6c-.6.2-1.1.5-1.7.7s-1.1.5-1.7.7-1.1.5-1.8.7c-5.5,2.2-10.6,4.7-14.7,9.2,5,3.9,10.4,3.6,16.4,3.5h2.9c2.8.2,5.4,0,7.8-.8,0-2.2,0-4.5-.2-6.7v-5.5c0-1-.6-1.9-1.5-2.7-2.3,0-3.4.2-5.4,1h-.2ZM1488.4,970.9c-.2.7-.5,1.3-.7,2,.2.5.5.8.7,1.3.6,5.6-1.1,9.6-4.6,14.1-1.5,1.8-3.2,3.4-4.8,4.9-2.9,2.8-5.4,5.9-7.5,9.4.2,1.9.4,2.9,1.5,4.4,2.5,1.9,5.2,1.6,8.2,1.5,1.8-.4,3.5-1,5.2-1.6.5-.2.9-.4,1.4-.6,6.2-2.3,13.6-5.9,17.5-11.4.6-1.7.6-2.8.4-4.5-3.5-6.4-9.3-11.5-14.5-16.4-1-.9-2-2-3-2.9v-.3ZM603.3,983.9c2.3,6.1,6.4,10.3,11,14.8.4.4.7.7,1.1,1.2,1.9,1.8,3.9,1.7,6.4,1.7,2.7-.5,4.3-2.1,6.1-4.1,1.8-2.7,2.6-4.6,2.6-7.8-8.6-3.5-17.8-5.5-27.2-5.8h0ZM550.8,987.6c-.4,0-.9.2-1.3.3-6,.8-11.5,2.5-16.7,5-.6,5.3.7,10.4,2,15.5,0,.6.3,1.2.5,1.8.5,1.6.9,3.1,1.5,4.7.2.6.4,1.1.7,1.8.9,2,1.7,3.2,3.3,4.7,2.9,1,5.8,1.5,8.9,1.8,1.3,0,2.6.3,3.9.5,2.7.4,5.4.5,8.2.5h8.1c14.1,0,27.5-2.6,40.2-7.9.6-.5,1.2-.8,1.8-1.3,1.1-.9,1.5-2.2,1.3-3.9-.6-.7-1.4-1.3-2.2-2-4.9-4-8.4-9.1-11.9-14.3-.3-.4-.5-.7-.7-1.1-1-1.6-2-3.2-2.8-4.9-.7-1.5-1.1-2.4-2.4-3.5-3-.7-6-.7-9.1-.7-11.1,0-22.1,1.1-33.1,3.2h0ZM466.8,1015.7c-.5.2-.8.4-1.3.6-3.1,1.4-6,3.2-8.9,5,.4,1.9.6,2.5,2,3.9,15.8,10.4,40.7,2.6,57.7-.8,3.5-.7,7.2-1.6,10.7-2.4-.6-5.3-1.4-10.6-2.3-15.9-.2-.9-.3-1.8-.5-2.7-.4-2.2-.7-4.4-1.1-6.6-16.4,0-41.6,12.4-56.4,19h0Z"/>
  <path d="M464,468.7c3.4,3,6.5,5.8,7,10.6-.1,1.5-.7,2.7-1.5,3.6-3.8,0-5.5-1-8.1-3.7-8.2-7.8-17.6-11.4-29-11.3-7.6.3-12.8,3.1-18.6,7.8-3,3.7-4.7,7.6-4.5,12.5.7,3.5,3,6.6,5.7,8.9,1.5.7,3.1,1.3,4.7,2,.9.5,1.8,1.4,2.7,2.7,0,1.4-.3,2.7-.7,4-2.3,1.5-3.3,1.5-5.9,1-4.3-1-7.3-3.2-10.2-6.5l-1.8-1.8c-3.3-4-4-9.8-3.8-14.8.9-7.1,4.7-14,10.3-18.4,16.9-11.5,38-8.9,53.8,3.4h0Z"/>
</svg>
