<?xml version="1.0" encoding="UTF-8"?>
<svg id="Layer_1" xmlns="http://www.w3.org/2000/svg" version="1.1" viewBox="0 0 1920 1080">
  <!-- Generator: Adobe Illustrator 30.0.0, SVG Export Plug-In . SVG Version: 2.1.1 Build 123)  -->
  <path d="M327.8,263.6c-11.2,12.6-18.5,26.7-23.1,42.8-.1.4-.3.9-.4,1.3-3.5,12.6-2.9,28.1.4,40.8.1.5.3,1,.4,1.6,4.3,16.2,11.7,31.3,21.8,44.7,1,1.3,1.9,2.6,2.9,4,5.5,7.4,11.2,14.6,17.4,21.3,1.3,1.5,2.7,3,4,4.6,2.2,2.5,4.6,4.9,7,7.3,1.3,1.3,2.5,2.7,3.7,4.1,2.9,3.4,6.2,6.3,9.5,9.3,1.6,1.4,3.1,2.9,4.7,4.4,4.3,4,8.8,7.9,13.4,11.6.4.3.7.6,1.1.9,2,1.6,4,3.1,6,4.7,1.6,1.3,3.2,2.5,4.9,3.8,8.4,7.2,17.7,12.3,27.8,15.3,6.5-.7,11.9-5.2,16-10.1,14.7-18.8,22.6-52.6,22.4-76.2v-2.4c0-4.9-.2-9.6-.7-14.4,0-2.2.5-3.9,1.3-5.9.2-.7.4-1.3.7-2h1.3v-1.3h1.3c.6-.6,1.2-1.3,1.8-2.1,3.7-4.4,7.9-8.4,12-12.4,1-1,2-2,3.1-3.1,1-1,2-1.9,3.1-2.7,2-1.6,3.6-3.5,5.3-5.5,1.6-1.7,3.3-3.2,5.2-4.7,3.7-6.1-.7-19.5-2.2-26-5.4-20.8-14.4-39.9-28.1-56.4-.5-.6-1-1.2-1.5-1.8-2.9-3.4-6-6.3-9.4-9.1-.3-.3-.7-.5-1-.8-16.2-13.5-35.5-21.9-56.9-21.8h-2.2c-28.4.4-54.2,15.9-73.1,36.2h.1ZM507.9,347.8c-2.4,2.4-4.9,4.8-7.3,7.2s-1.6,1.6-2.5,2.5c-1.2,1.2-2.4,2.3-3.5,3.5l-1.1,1.1c-.9.9-1.7,1.8-2.6,2.8v1.3h-1.3v1.3c-.4.1-.7.4-1.2.5-1.7,1-2.9,2-4.3,3.4-.5.5-1,1-1.6,1.6-.5.5-1,1-1.6,1.6-.5.5-1,1-1.6,1.6-1.8,1.7-3.4,3.5-4.7,5.5,0,1.4.1,2.8.2,4.2,0,.9.1,1.7.2,2.6.1,1.8.3,3.6.4,5.4.9,10.8-.8,20.8-3.2,31.4-.1.7-.3,1.3-.4,2-.1.6-.3,1.2-.4,1.8-.2,1.2-.3,2.6-.3,4.3.8.8,1.8,1.5,3,2.2.7.4,1.3.8,1.9,1.2.7.4,1.3.8,2.1,1.3.6.4,1.3.8,1.9,1.3,6.1,3.7,12.1,6.8,19,8.5,9.1,2.5,17,6.8,24.3,12.7,1.9-1.9,1.9-3.8,2.2-6.4.1-1,.3-2.2.4-3.2,0-.6.1-1.1.2-1.7,3.7-27,8.6-54.2,15.1-80.7.3-1.3.4-2.8.4-4.5-.7-.3-1.3-.6-2-.8-7.6-3.3-15-7-22.4-10.8-.7-.4-1.5-.8-2.3-1.2-.7-.4-1.3-.7-2-1-1.7-.9-3.4-1.6-5.3-2.3l.2-.4ZM558.2,359.2c-.5.2-1,.4-1.6.6-2.4,1-4.2,1.7-5.8,3.7-.4.9-.7,2-.9,3.1-.1.7-.3,1.3-.4,1.9-.1.7-.3,1.4-.4,2.2s-.4,1.5-.5,2.3c-.6,2.5-1.1,5-1.6,7.5-.1.8-.4,1.6-.5,2.5-3.9,17.4-7,34.9-10,52.4-.4,2.2-.7,4.3-1.1,6.6-.6,3.4-1.2,6.9-1.7,10.2-.2,1.3-.4,2.5-.7,3.8-.3,1.7-.6,3.5-.9,5.2,0,.5-.2,1-.3,1.6-.6,3.8-.6,6.6,1.7,9.8.3.4.6.9,1,1.3.4.4.7,1,1,1.4.4.5.7,1,1.1,1.5,3.1,4.3,6.4,8.5,9.7,12.7,2.1,2.7,4.2,5.5,6.2,8.2,2.8,4,6,7.6,9.2,11.3,1,1.1,1.9,2.2,2.8,3.4.5.6,1,1.2,1.5,1.8h.7c.3-3.4.6-6.7.9-10.1,0-1.1.2-2.2.3-3.4,1.1-6.7,1.1-13.2,0-19.5l-1.3-1.3c-11.5-13-14.9-31-14.1-47.8.9-12,6.2-22.7,12.9-32.5.7-1,1.2-2.2,1.6-3.5.4-.2.8-.4,1.2-.5s1.4-1,2.9-2.5c8.3-10.4,22.7-15.8,35.3-18,3.2-.3,6.4-.3,9.7-.3.8,0,1.7,0,2.6,0,15.3.2,29.2,5.8,40.7,15.9.2.4.4.9.7,1.3h1.3v1.3h1.3c.2.7.4,1.3.7,2h1.3c.1.5.4,1,.5,1.6.8,1.9,1.6,2.9,2.9,4.4,5.8,7.3,8.9,16.3,10.8,25.3.1.6.3,1.2.4,1.9,2.3,18.5-1.6,35.6-12.8,50.5-2.6,3.2-4.5,5.4-5.8,6.4-1.7,1.4-3,3.2-3.9,5.2,0,1.7.1,3.4.4,5,.1,1.5.2,2.9.3,4.4,0,.8.1,1.7.1,2.5.4,6.1.2,12.1.2,18.2v47.3c4.3,1.6,8.6,3.1,12.9,4.4.5.1,1,.3,1.5.4,5.5,1.6,10.9,2.8,16.5,4,.5.1,1,.2,1.6.4,26.3,5.8,53.5,9,80.4,9.7,1.3,0,2.8,0,4.1.1,4.9.1,10,.3,14.9.4,1.6,0,3.4,0,5,.1,2.3,0,4.7,0,7,0s1.4,0,2.2,0c2.5,0,4.7-.6,6.7-1.9,1-1.6,1.9-3.1,2.8-4.9.4-.7.9-1.5,1.3-2.2,1.3-2.3,2.6-4.6,3.9-7,.2-.4.4-.9.7-1.3,4.6-8.3,8.8-16.8,12.4-25.5.3-.7.6-1.5,1-2.2,17.5-42.3,23-93.1,10.2-137.4-.1-.5-.3-1-.4-1.4-1-3.1-1.9-5.5-4.8-7.2-.6-.2-1.2-.5-1.8-.7-.7-.3-1.3-.5-2-.8-.7-.3-1.5-.6-2.2-.9-.8-.3-1.6-.7-2.4-1-28.7-11.4-58.5-20.1-88.5-27.5-2.8-.7-5.5-1.3-8.3-2.1-16.2-4-32.4-7.6-48.7-10.7-1.3-.3-2.7-.5-4-.8-39.4-7.7-83.6-7.3-121.3,7.1l-.3-.2ZM580.6,394.7c-.5.4-1.1.9-1.6,1.4-11.6,10-18,23.5-19.4,38.7-.7,12.6,1.9,25.7,9.5,36.1h.7c1-6.4,2-12.7,1-19.2-1.7-12.3.7-23.4,7.8-33.7,2-2.6,3.6-4.3,4.8-4.9v-1.3c.4-.1.7-.4,1.1-.5,1.8-.9,3.4-2,5.1-3.1,3.4-2.2,6.9-3.9,10.8-5.2.4-.1.9-.3,1.3-.4,11.3-3.1,22.7-.3,32.8,5.1,3.6,2,6.5,4.6,9.4,7.6.4.4.7.7,1.2,1.1,8,8.5,10.2,20.3,9.9,31.4,0,1.8-.2,3.4-.5,5.2-.4,2.5-.3,4.8,0,7.3,0,.4,0,.9,0,1.4.4,5.4,1,10.7,1.7,16,3.2-2.4,5.2-4.7,7.2-8.2.2-.4.5-.9.8-1.3,7.6-13.4,9.8-28.1,6.3-43.2-2.9-10.4-7.9-19.2-15.6-26.8-.5-.5-1-1-1.6-1.6-11.7-11.3-26.1-14.5-42-14.3-11,.4-22.2,5.2-30.5,12.4h0ZM927.3,415.1c0,4.6.1,9,.6,13.5,0,.6.1,1.3.1,1.9.1,1.9.4,4,.6,5.9,4.9,50.9-.7,99.9-11.1,149.7-.4,1.8-.7,3.5-1.1,5.3-.7,3.1-1.3,6.2-1.9,9.3,20.8,6.1,41.9,9.7,63.4,11.4.6,0,1.1,0,1.7.1,1.6.1,3.3.2,4.9.4.5,0,1,0,1.5.1,2.5.1,4.8.1,7.3-.5,0-.4,0-.7,0-1.1,3.3-36.1,6.7-61,10.1-74.8.2-.8.4-1.6.6-2.5,3.4-12.8,8.7-25.1,17.7-35,.5-.6,1.1-1.3,1.7-1.9,14.2-15,34.3-22.1,54.6-22.8,21.9.4,40.6,9.7,55.7,25.3,14,15,21.5,37.2,24.6,57.2,1.5-1.5,1.7-2.2,2.2-4.3.1-.6.3-1.2.4-1.8,7.3-31.4,3.1-63.2-13.5-91.1-3.4-5.3-7.2-10.2-11.4-14.8-.9-1-1.9-2.2-2.8-3.4-.4-.5-.8-1-1.3-1.5h-1.3c-.2-.4-.4-.9-.5-1.3-.5-1.1-1.4-1.8-2.8-2.1v-1.3c-1.4-1.3-2.8-2.4-4.3-3.5-.4-.4-.9-.7-1.3-1-3.7-2.8-7.4-5.3-11.4-7.7-.7-.4-1.4-.9-2.2-1.3-14.1-8.5-30.5-13.6-46.8-15.6-.5,0-1.1-.1-1.6-.2-43.2-5.3-89.9,1-132.3,9.7h-.1ZM850.5,405c.1.5.2,1,.4,1.5,2.4,10.3,4.4,20.5,5.1,31.1,0,.5,0,1,.1,1.6.2,3.6.4,7.1.6,10.7v1.3c1.3,44.6-10.6,90-33.9,128.1-1.1,1.8-1.9,3.7-2.2,5.8,18.2,5.1,36.2,9,55.1,10.8.6,0,1.1.1,1.7.2,6.1.6,12,.7,18.1.9,1.1,0,2.2,0,3.4,0,2.7,0,5.4.1,8.1.2,2.8-11.1,5.4-22.1,7.6-33.4.1-.7.3-1.5.4-2.3,2.7-14.1,4.9-28.2,6.3-42.5,0-.5,0-1,.1-1.6,2.8-26.6,2.8-53.3,0-79.9-.2-1.9-.4-3.9-.6-5.8-.5-5.1-1-10.2-1.6-15.3-.7,0-1.4-.2-2.2-.3-3.1-.4-6.1-.9-9.1-1.3-1.6-.2-3.1-.4-4.6-.7-15.2-2.2-30.2-5.1-45.3-8.2-.6-.1-1.2-.2-1.8-.4-.5,0-1-.2-1.5-.3-1-.2-2.4-.3-4.1-.2v-.2ZM584.9,422.7c-5.9,8.3-7.9,18.5-6.3,28.4,2.2,9.7,7.6,17.4,15.7,22.9,8.2,4.9,17.3,6.4,26.7,4.5,5.6-1.7,10.9-4.6,15.3-8.4v-1.3h1.3c6.7-7.5,9.8-16.4,9.7-26.3-.7-9.8-5.1-18.8-12.3-25.3-16.3-12.3-37-10.5-50.1,5.5ZM577.3,470.2c-5.1,54.6-3.3,109.5.4,164.1.3,4.8.6,9.7.9,14.4.3,4.6.6,9.1.9,13.7,0,.8,0,1.6.1,2.4,0,10.1,1.4,20,3.8,29.6,2.3-.7,2.8-1.3,4.2-3.2,4.9-5.8,11.5-8.4,19.1-9.3,8.6-.3,16.2,2.5,22.9,7.7,2.4,2.2,4,4.5,5.5,7.5h1.3c6.3-37.3,9.8-74.9,12.1-112.7.1-1.9.2-4,.4-5.9,2.2-32.8,2.2-66.1-.2-98.9,0-.8,0-1.6-.1-2.5,0-.7,0-1.5-.1-2.2,0-.7,0-1.3-.1-1.9,0-1.1-.6-2.1-1.6-2.9-.3.3-.5.7-.8,1-7.2,8.6-16.5,14.4-27.9,15.5-12.8.7-24.4-2.2-34.3-10.8-1.5-1.4-2.8-2.8-4.1-4.5-.3-.4-.6-.7-.9-1.2h-1.3v.2ZM1028.6,503.3c-12.3,12.8-18,29.9-17.7,47.6.5,15.3,6.8,30.4,17.1,41.7.3.3.6.7.9,1,5,5.5,10.3,9.6,16.8,13.2.6.3,1.1.7,1.7,1,15.3,8.2,33.4,9.4,49.9,4.7,17.4-5.4,31.6-17.4,40.1-33.5,8.1-16.1,9.4-33.6,4.1-50.8-2.6-7.8-6.3-14-10.9-20.6-.4-.7-.9-1.3-1.3-2h-1.3c-.1-.4-.4-.8-.5-1.2-4.9-9.2-18.4-15.9-28.1-18.9-25.7-7.7-51.7-1.3-70.7,18h0ZM1151,563.3c-.2.7-.4,1.5-.6,2.2-3.8,13.6-9.2,25-19.1,35.2-.4.4-.9,1-1.3,1.4-5.3,5.5-11.6,9.4-18.3,12.8-.5.3-1.1.6-1.6.9-17.4,8.6-38.3,8.7-56.5,3.1-18.9-6.8-33.9-20.1-42.7-38.2-1.7-3.7-3.2-7.5-4.5-11.4h-.7c-7.1,53-8.7,106.3-6.1,159.7,0,1,0,2,.1,3.1.9,18,2.8,36.1,4.6,54,0,.6.1,1.1.1,1.7,1.6,16.2,4.1,32.2,6.6,48.2.6,3.9,1.2,7.8,1.8,11.7,2.8,18.5,5.8,37,9.5,55.3.3,1.4.5,2.8.8,4.2,1.3,10.6,4.5,20.3,9.7,29.2,9.7,2.8,24.3-5.8,32.5-10.3,7.6-4.3,15-8.8,21.8-14.1.4-.3.7-.6,1.2-.9,12.3-9.3,25-19,27.7-34.9.3-1.5.6-3.1.8-4.6.1-.7.3-1.5.4-2.3.7-3.4,1.3-6.9,2-10.3.1-.6.3-1.3.4-2,.4-2.1.9-4.2,1.3-6.4.1-.7.3-1.5.4-2.3,2.2-10.9,4.6-21.9,7.1-32.8,7.9-34.7,14.8-69.6,19.6-104.8,0-.5.1-1,.2-1.5,6.4-46.7,12.7-99.4,3.2-146h-.7,0ZM656.8,576.9c0,.7,0,1.3-.1,2.1,0,1-.1,1.9-.2,2.9,0,.5,0,1-.1,1.6-.2,3-.4,6.1-.7,9.1,0,1.3-.2,2.5-.3,3.8,0,.7,0,1.3-.1,1.9-.3,3.6-.5,7.2-.7,10.8-1.1,15.6-2.7,31.2-4.6,46.7-.1,1-.2,2-.4,3.1-.1,1.1-.3,2.2-.4,3.4s-.1,1.2-.2,1.9c0,.5-.1,1.1-.2,1.6,0,1.1.4,2.2,1.5,3.3.7.4,1.3.8,2.1,1.3.7.4,1.3.9,2,1.3,1.2.7,2.5,1.3,3.9,1.7.4.7.9,1.6,1.3,2.7.8,1.4,1.7,2.8,2.7,4.1h1.3c1.3-6.4,2.5-12.7,3.3-19.2,0-.4,0-.9.1-1.3,3.1-26,5.7-52,7.4-78-2.5-.8-4.9-1.6-7.3-2.4-.7-.2-1.3-.4-2.1-.7-.7-.2-1.3-.4-2-.7-.6-.2-1.2-.4-1.9-.6-1.2-.3-2.7-.5-4.4-.4h.2ZM976.9,619.8c-.2,3-.4,5.9-.7,8.9,0,.8-.1,1.6-.1,2.5-.2,2.8-.4,5.5-.5,8.3,0,.5,0,1,0,1.5-.8,13.7-.7,27.5-.8,41.2v1.9c0,22.6.7,45,2.9,67.5,0,.8.1,1.6.2,2.4,1.1,10.8,2.3,21.6,3.6,32.5.2,2.2.5,4.3.7,6.5,2.6,22.8,6.4,45.6,10.4,68.2.1.7.3,1.6.4,2.4,1.5,8.6,3.1,17.2,5,25.7.1.7.3,1.5.4,2.2,1.1,5.3,3.1,10.2,5.8,14.8,3.1,1.6,5.5,1.3,8.8.2.6-.2,1.3-.4,1.9-.7,0-.4-.1-.8-.2-1.2-11.3-63-20.5-125.8-23.6-189.8,0-1,0-2-.1-3-1.2-24.9-.5-49.8.7-74.7.1-3.3.3-6.6.4-10,0-.6,0-1.3,0-1.9,0-1.4.1-2.9.2-4.3-2.2-.4-4.2-.7-6.4-.9-.5,0-1,0-1.6,0-.5,0-1.1,0-1.6,0-.6,0-1.1,0-1.7,0-1.4,0-2.8-.1-4.2-.2h0ZM648,676.8c0,.4-.1.7-.2,1.1-1.2,6.5-2.4,13.1-3.9,19.5,0,.4-.2.9-.3,1.4-.5,2.3-1.1,3.9-2.5,5.8-1.6,2.5-1.6,3.8-1.4,6.7v2.4c0,.6,0,1.2,0,1.8,6.1-.3,9.7-2.6,13.8-7,4.3-5.2,5-9.5,4.9-16.2-.7-6.3-3.9-10.8-8.8-14.7-.6-.5-1.2-.8-1.8-.7h0ZM592,698.1c-4,5-5.3,10.5-4.6,16.8,1.3,7,4.9,11.8,10.6,16,5.5,3.4,11.1,3.7,17.3,2.4,6.2-2.2,10.5-5.4,13.8-11,2.5-5.3,2.8-11.7,1.3-17.4-.7-1.5-1.3-2.8-2.2-4.3-.3-.4-.6-1-.9-1.4-.6-1-1.5-2.1-2.5-3.4h-1.3v-1.3c-11.4-6.1-22.1-6.4-31.5,3.6h0ZM660.9,712.8c-.3.3-.6.6-.8.9-5.6,5.9-11.1,7.9-18.9,10,.1.6.3,1.2.4,1.9,1.3,6.2,2.2,12.3,2.8,18.6,0,.8.1,1.7.2,2.5,1.1,12,1.5,23.9,1.5,36v6.3c0,20.3-2.3,40.6-4.6,60.8-1.5,14.3-3,28.6-4.3,42.9,0,.5,0,1-.1,1.5-.4,4.8-.8,9.5-.7,14.3,1.9.6,3.7,1.1,5.7,1.7.5.1,1.1.3,1.6.5l1.6.4c.4.1.9.3,1.4.4.9.2,2.1.3,3.4.3,1.6-10.2,2.9-20.5,4-30.8,0-.5,0-1,.1-1.6.3-2.7.5-5.3.8-8,.6-5.8,1.1-11.4,1.7-17.2,0-.6.1-1.2.1-1.8.8-8.2,1.8-16.5,2.8-24.6,0-.5.1-1,.2-1.5.7-5.1,1.3-10.2,1.9-15.3,2.2-17.4,3.4-34.7,3.3-52.2v-2.3c1-15.5-.4-30.1-4.3-43.8h0ZM583.4,727.8c-7.6,16.6-7,38.3-7,56.3v1.6c-.1,21.1,2.6,42.3,4.6,63.4,2.5,25.4,4.7,50.8,6.5,76.2.1,1.6.2,3.3.4,4.9.1,1.9.3,3.9.4,5.8.4,4.8.7,9.5,1.3,14.3,0,.5,0,1,.1,1.5.2,1.7.6,3.4,1.2,5,1.1.2,2.4.4,3.8.6.8,0,1.6.2,2.4.3.8,0,1.7.2,2.6.3,7.4,1,14.6,2.2,21.8,4.2,1.2-2.2,1.6-4,1.9-6.5,0-.8.2-1.6.3-2.4,0-.9.2-1.7.3-2.7,0-.4.1-.9.1-1.4,2.2-18,3.7-36.2,5.3-54.3.3-3.7.7-7.4,1-11.1,0-.7.1-1.5.2-2.2.8-9.4,1.8-18.7,2.8-28.1,0-.5,0-1,.1-1.5.4-4.3,1-8.7,1.4-13,2.1-18.6,3.6-36.9,3.4-55.6v-2.3c1.2-18.2-.4-35.4-4.9-51.5-.9.9-1.9,1.8-2.7,2.7v1.3c-.4.2-.8.4-1.2.5-1.6.8-3.2,1.8-4.7,2.8-7.5,4.4-15,5.2-23.6,3.7-7-2-12.7-6.1-16.7-12.2-.2-.3-.4-.7-.7-1h-.7v.4ZM1439.2,823.6c-.6.6-1.2,1.1-1.8,1.7-4,3.8-7.5,7.9-10.4,12.6v1.3c.7.1,1.4.4,2.1.5,9.4,2.5,16.1,6.4,21,15.1.7,1.6,1.4,3.1,2,4.8,2.8-.9,3.7-2.8,5.2-5.2,2.3-3.4,4.7-6.5,7.6-9.5.6-.6.9-1.4.8-2.3h1.3c.7-.6,1.4-1.3,2-2v-1.3h1.3v-1.3c.4-.1.8-.4,1.2-.5,1.5-.8,2.5-1.7,3.8-2.9,3.8-3.4,8.3-6.1,12.6-8.8-3.8-7-9.8-16.4-17.7-19-12-2.2-23.3,9.3-31.3,17h0ZM1484,837.9c-.6.4-1.1.9-1.7,1.3-8.5,6.5-15.3,14.4-21.4,23.1l1.9.4c9.7,2.8,16.8,7,21.9,15.9,4,7.6,5.6,16.1,3.3,24.6-2.4,6.9-5.9,12.4-11.7,16.8-.3.2-.7.5-1,.8v1.3c7.3,4.3,14.7,8,22.3,11.5,1.3.6,2.7,1.3,4,1.9,11.1,5.2,22.4,10.1,33.9,14.4,18.9,7.1,35.2,14.8,50.6,28.1,5.3,4.5,10.2,7,17.2,6.9,3.5-.4,6.8-1.8,9.3-4.3,1.4-5.1-.5-9.1-3-13.4-1.3-2.1-2.5-4.2-3.8-6.3-.3-.4-.6-.9-.9-1.4-5.3-8.4-11.3-16.2-17.7-23.7-1.1-1.3-2.2-2.7-3.4-4-1.7-2.1-3.7-3.7-5.7-5.5-2.8-2.5-5.4-5.1-8-7.7-1-1-1.9-1.9-2.9-2.8-4.2-4.2-8-8.6-11.7-13.2-.9-1.1-1.9-2.2-2.8-3.4-7.4-9.4-13.2-20.3-17.6-31.3-5.8-14.1-15-28.5-27.2-38-9.1-3-17,2.8-23.8,8.2h0ZM1130.6,863.7c-.4.1-.9.3-1.3.4-1,.3-2.1.8-3.4,1.6-.6,1.2-1,2.5-1.1,4-.1.8-.2,1.6-.4,2.4,0,.8-.2,1.6-.3,2.5-1.3,9.4-3.6,15.9-6.8,19.6-1.4,1.7-2.2,2.7-2.9,4.8,3-.9,5.8-2.1,8.6-3.5s1.7-.9,2.6-1.3l1.3-.7c40.6-20.1,85.8-28.8,130.9-28.8h4.5c14.1,0,27.8.7,41.8,2,29.9,2.9,60.4,3,90.3-.4,0-.4.1-.9.2-1.3,1.3-7.2,4.1-12.5,9.3-17.7-6.5.4-13,.7-19.5,1.3-37.7,3-74.5,4.6-112.2,1-1.3-.1-2.7-.2-4-.4-.7,0-1.3-.1-2-.1-10.8-1-21.5-1.6-32.2-1.8h-2c-34.5-.7-68.8,4.8-101.3,16.4h0ZM1406.2,856.2c-2,3.1-3,6-3.7,9.6,4.9,0,9.7-.3,14.6-.7.8,0,1.6-.1,2.4-.2,2.5-.2,5-.4,7.6-.7,1.7-.1,3.4-.3,5.1-.5,4.2-.4,8.3-.8,12.5-1.2-.8-4.7-3.3-7.9-7.1-10.8-10.8-6.7-23.1-5.5-31.3,4.6h0ZM1441.4,877.8c-5.2,5.7-6.7,11.7-6.5,19.2.3,5.9,2.8,10.1,6.8,14.3,4.7,4.3,9.9,6.8,16.3,6.8,7.1-.4,12.3-3.1,17.2-8.2,4.7-5.4,6.1-11.1,5.8-18.3-.5-6.1-3.7-11.4-8.1-15.5-9.9-7.9-22.4-7.2-31.6,1.6h0ZM1429.4,871.1c-41.8,4.3-83.1,6.6-125.1,3.1-15-1.2-29.8-1.9-44.8-1.9h-4.2c-41.5,0-83,8.7-120.8,26.2-.6.3-1.2.6-1.9.9-3.2,1.5-6.5,3-9.7,4.6,0,3.1.5,3.7,2.4,6.1,9,12,12.6,26.2,10.5,41-1.6,9.9-5.8,18.7-12.3,26.3-.3.4-.6.8-.9,1.2-2.7,3.4-6.1,5.9-9.7,8.5-.5.4-1.1.8-1.6,1.3v.7c2.5,0,5.1,0,7.6,0h2.1c12.4,0,24.7-1.8,36.9-3.9.7,0,1.4-.2,2.1-.4,26-4.4,51.6-10,77.2-15.9,1.8-.4,3.5-.8,5.3-1.2,4-.9,8.1-1.8,12.1-2.8,4.5-1,9-2,13.4-3.1,9.9-2.2,19.7-4.6,29.5-7,10-2.5,19.9-4.9,29.9-7.1,4.6-1,9.1-2,13.5-3.1,29-6.7,57.9-12.9,87.1-18.1,2.8-.5,5.6-1,8.5-1.5,2.6-.4,5.2-1,7.9-1.4-.9-1.9-2.4-2.3-4.1-3.3-6.7-3.9-10.5-10.5-12.9-17.7-2.2-8.9.1-17.1,4.1-25.1,1.3-2.2,2.9-3.7,4.7-5.5v-1.3c-2.4,0-4.7.2-7,.5h.1ZM1104.7,907.7c-17.8,16.7-40.6,31.1-64.6,36.2-.9.2-1.8.4-2.7.7.7,5.9,2.2,10.9,4.8,16.3.3.6.6,1.3.9,1.9,5.3,10.7,14.6,18.3,25.7,22.6,11.2,3.6,23,3.6,33.7-1.6,11.8-6.1,20.2-15.3,24.3-28.1,3.7-12.2,1.9-24.5-3.7-35.7-3.1-5.8-7.9-12-13.6-15.6-2.2,0-3.2,1.6-4.8,3.2h0ZM571.5,913l-2.2.6c-.8.2-1.6.4-2.5.7-.9.2-1.7.4-2.6.7-10.2,2.8-20.3,5.9-30.5,9-2.2.7-4.4,1.3-6.6,1.9-2.8.8-5.5,1.6-8.2,2.5-1,.3-2.1.6-3.1.9-8,1.8-15.1,4.9-21.3,9.2.6.5,1.1,1,1.7,1.6.3.3.7.6,1,.9,3.7,2.4,7.9,2.5,12.3,2.5h1.8c9.2-.1,18.3-1.6,27.4-3,.7,0,1.6-.2,2.3-.3.7,0,1.5-.2,2.2-.3.6,0,1.3-.1,1.9-.3,2.5-.7,3.7-2.1,5.5-3.9,7.3-6.1,19-9,28.1-10.8.6-.5.8-1.3.7-2.4,0-3.5-.2-7.1-.7-10.5-2.5,0-4.7.2-7.2.9h0ZM1012.3,914.8c1.3,9.4,4.9,17.1,10.8,24.5.7.4,1.3.9,2,1.3-.2-.4-.4-.7-.6-1.1-3.5-7.1-5.5-14.3-7.3-22.1-.2-.9-.5-1.8-1-2.6h-4.1.1ZM635,916.8c-.4,4.6-.7,9-.7,13.6,2.1.8,4.3,1.1,6.5.7,4-3.4,5.4-5.8,6.4-10.8-4.1-2.1-7.6-3.1-12.3-3.4h0ZM570.8,935c-.7.2-1.4.5-2.2.7-5.5,1.8-11.2,3.8-15.1,8.4.2.9.6,1.8,1.3,2.7,4.9,2.5,9.7,2.3,15.2,2.2h2.6c2.9,0,5.9-.3,8.8-.8,0-1.9-.2-3.7-.3-5.5,0-.5,0-1,0-1.6-.1-2.9-.4-5.7-1-8.5-3.1,0-6.3,1.6-9.2,2.5h0ZM594.3,965.7c-1.8,3.7-1.8,6.7-.5,10.6,1.3,2.4,2.6,3.9,4.6,5.7.4.4.8.8,1.3,1.2,3.6,2.1,7.5,1.6,11.4.7,3.7-1.3,5.8-3.6,7.7-7,.7-2.5.7-4.6.7-7.2-8.3-2.1-16.7-3.5-25.1-4.1h0ZM563.4,967.6c-.5,0-1,0-1.5,0-7.7.4-15.3,1.3-23,2.5-.4,0-.9.1-1.3.2-5,.8-9.7,1.8-14.5,3.6.6,10.4,2.6,20.3,6.1,29.9.8.2,1.8.4,2.8.4.6,0,1.2,0,1.7.1.6,0,1.3,0,1.9.1.6,0,1.3,0,2,.1,1.4.1,2.8.2,4.2.4,2.1.1,4.2.4,6.3.5,6.7.6,13.3,1,20.1,1h1.7c11.4,0,22.8-2.2,31.3-10.3,1.1-1.2,1.8-2.6,2-4.1-.5-.1-1-.3-1.5-.5-6.7-2.3-10.7-4.7-14.1-11.1-2.2-4.5-2.2-8.7-2-13.6-7.4,0-14.7,0-22.1.4h0ZM508.1,977.4c-.4.1-.9.3-1.4.4-1.6.5-3.1,1-4.6,1.6-.5.1-1,.4-1.6.5-9.3,3.1-18.5,6.4-27.7,9.7-.6.2-1.2.4-1.9.7-1.8.6-3.5,1.3-5.3,1.9-.5.1-1,.4-1.6.5-5.5,1.9-10.3,3.8-14.6,7.8.3,2.9,1.9,4.3,4.1,6.1,5.4,4.1,12.6,4.4,19,4.3h2.2c6,0,11.7-.7,17.7-1.9,2.2-.4,4.4-.8,6.7-1.2,7-1.2,14.1-2.5,21-3.9-.1-.7-.4-1.3-.5-1.9-2.2-8.5-3.3-17.1-4.3-25.9-2.8,0-4.6.5-7.3,1.4h0Z"/>
  <path d="M444,314.5c11.6,7.6,18.3,19.5,21.3,32.8,1.4,9,.1,18.8-3.7,27-1.4,1.7-1.8,2-4.1,2.2-1.3-.1-2.5-.7-3.4-1.6-.3-3.9.3-7.1,1.3-10.8,2.8-10.9.4-20.8-4.8-30.6-3.7-6.1-8.9-11.4-15.9-13.4-4.1-.7-7.8.4-11.3,2.6-2.8,2.2-4.3,4.4-5.4,7.9v4.7c0,2.7-.9,4.3-2.8,6.2-1.8.2-2.9.3-4.5-.7-1.5-2.1-1.3-4.4-1.2-6.9v-1.6c.1-6.2,2.2-10.2,6.4-14.8,7.7-7.1,18.6-8.2,27.8-3.3h0Z"/>
</svg>
