<?xml version="1.0" encoding="UTF-8"?>
<svg id="Layer_1" xmlns="http://www.w3.org/2000/svg" version="1.1" viewBox="0 0 1920 1080">
  <!-- Generator: Adobe Illustrator 30.0.0, SVG Export Plug-In . SVG Version: 2.1.1 Build 123)  -->
  <path d="M531,56.1c-.7.2-1.5.5-2.1.7-7.3,2.6-15.1,6.5-21.1,11.6v1.3c-1,.5-2.1.8-3.3,1.3v1.3c-.5.2-1,.4-1.6.6-.6.2-1.1.4-1.7.7-.2.7-.5,1.3-.7,2h-1.3v1.3c-.6.2-1.3.4-2,.7v1.3c-.4.2-.7.3-1.1.5-1.7.9-2.8,2-4,3.4v1.3h-1.3c-.9.9-1.8,2-2.7,3.1s-.9,1.1-1.4,1.8c-.9,1.1-1.2,2.2-1.1,3.5-.6.2-1.3.4-2,.7-.8,1.1-1.6,2.2-2.3,3.5-.4.7-.7,1.2-1.2,1.9-.8,1.5-1.3,2.7-1.6,4.4h-1.3c-.3.5-.6.9-.7,1.4-.4.7-.7,1.3-1,1.9-.4.7-.7,1.2-1,1.9-.7,1.2-1.4,2.4-2.1,3.6-.7,1-1,2.1-.8,3.5h-1.3c-.2.4-.3.7-.5,1-1.4,3.2-2.9,6.3-4.8,9.2-.6,1-.8,2.3-.7,3.9h-1.3c-1.8,4.4-3.5,8.8-5.1,13.2-1.4,3.6-2.7,7.2-4.3,10.7-2.1,4.9-3.8,10.1-5.6,15.2-.5,1.3-.9,2.7-1.4,4-2.3,6.8-4.3,13.8-6.3,20.7-.2.6-.4,1.3-.6,2-1.8,6.5-3.3,13-4.4,19.6-.4,2.1-.9,4.2-1.6,6.3-2.9,11.1-3.3,22.2-1.2,33.1,4.8,6.7,11.3,10.8,19.2,12.8,1.9.2,3.6.2,5.5.2h9.8c7.7,0,15.4-.5,23.1-1.6.8-.2,1.8-.4,2.6-.6.5,0,.9-.2,1.4-.3,1.9-.4,3.7-.7,5.6-1,11.6-2.1,22.9-4.7,33.4-10.3v-1.3c1-.2,2.1-.5,3.3-.7v-1.3c.4-.2.9-.3,1.4-.5,2.1-.8,3.9-2,5.9-3.1,5.7-3.1,9.4-3.4,15.6-1.7,4.5,1.4,9,3,13.4,4.6,1.9.7,3.8,1.3,5.7,2,.7.2,1.3.5,2,.7,1.2.5,2.5.8,3.7,1.3,3.5,1.2,6.8,2.4,10.2,3.8,2,.7,3.9,1.4,5.9,2.1.7.2,1.4.5,2.1.7,3.5.7,5.6-.4,8.6-2.1,1.4-1,2.5-2.1,3.7-3.4,1.1-.9,2.2-1.9,3.3-2.7.7-.5,1.2-1,1.9-1.5,2.3-1.9,4.7-3.7,6.9-5.5,1.4-1.2,2.7-2.4,4-3.7v-1.3c.7-.2,1.3-.5,2-.7,1.7-1.5,3.1-3.1,4.5-4.9.9-1.1,1.9-2.2,3.1-3.4,1.1-.9,1.6-1.8,1.5-2.8.7-.2,1.3-.5,2-.7.2-.7.5-1.3.7-2,.5-.3.8-.7,1.3-.9.4-.3.8-.7,1.2-.9v-2h1.3v-2c.7-.2,1.3-.5,2-.7,2.9-3.5,4.9-7.6,7.1-11.7.6-.9,1-1.9,1.6-2.8,3.5-6.4,6.4-12.8,8.8-19.8.2-.7.5-1.4.7-2.1,2.3-7.1,3.9-14.3,3.8-21.8h1.3v-14.7c0-1-.2-1.7-.7-2.2-.3-2.2-.6-4.5-.7-6.7-.3-2.9-.8-5.3-1.9-8.1-.3-1.2-.7-2.4-.9-3.7-1.6-5.8-3.9-10.8-6.8-16.1-.8-1.5-1.4-2.9-1.9-4.1h-1.3c-.2-.5-.4-.9-.6-1.5-.7-1.5-1.3-2.9-2.1-4.4h-1.3c0-.5-.3-.8-.4-1.3-1.3-2.8-3.3-5-5.4-7.1h-1.3c-.2-.4-.4-.7-.6-1.1-2.2-4.2-6.8-7.5-10.5-10.5-.6-.5-1.1-.9-1.7-1.4s-1.1-.9-1.8-1.4c-.6-.5-1-.8-1.6-1.3-.9-.7-2.1-1.1-3.4-.9v-1.3c-2.2-1.7-4.7-3.1-7.1-4.5-.5-.3-1-.6-1.4-.8-7.1-4.1-14.8-7.3-22.5-10.1-.6-.2-1.1-.5-1.8-.7-10-3.8-20.5-5.8-31.2-6.4-.6,0-1.2,0-1.8,0-10.9-.4-22.2,2.2-32.4,6h.5ZM547,255.2c-2.4,1.9-4.8,3.5-7.5,4.9-1,.6-2,1.1-3,1.7-9.2,5.4-19.8,8-30.2,9.4-.5,1.5-.7,2.3-.3,3.8.2.4.5.9.7,1.3,1.1,2.4,2.1,4.9,2.8,7.5.9,3.1,2,6,3.2,8.9.7,1.8,1.3,3.6,2,5.5,3.1,9.1,6.6,18.8,13,25.9,2,2.2,3.6,4.8,5.3,7.2.4.5.7.8,1.1,1.3h1.3c0,.5.3.8.4,1.3,1.1,2.3,2.6,3.9,4.3,5.8,1.2,1.4,2.1,2.9,3.1,4.6.9,1.2,1.9,2.5,2.9,3.7,1.8,2.2,3.3,4.4,4.5,7,.4.7.7,1.4,1,2.1.7.2,1.3.5,2,.7.2-.3.4-.7.6-.9,3.7-5.9,8.2-11.2,12.6-16.6.4-.4.7-.9,1.1-1.3.7-.8,1.4-1.7,2.1-2.5,1.2-1.3,2-2.8,2.4-4.4.7-.2,1.3-.5,2-.7.6-.7,1.2-1.5,1.8-2.3.4-.5.7-.9,1-1.4.4-.5.7-.9,1-1.5.7-.9,1.3-1.8,2-2.7.3-.4.6-.7.8-1.2,1.3-1.6,2.8-3,4.3-4.5s2.3-2.5,3.5-3.8c.3-.4.7-.7.9-1,1.6-1.8,3.2-3.5,4.8-5.4,1.6-1.9,3.3-3.4,5.1-4.9.8-.7,1.7-1.5,2.6-2.5,2.1-2.1,4.1-3.8,6.4-5.7.4-.3.8-.7,1.2-1,1.9-1.6,3.8-3.3,5.9-4.7-1.1-3.2-3-5.9-4.9-8.7-1.6-2.4-2.8-4.9-4-7.5-1.6-3.1-3.3-3.9-6.5-5.1-1.6-.5-3.1-.8-4.7-1.3-.9-.3-2-.7-2.9-.9-1.8-.6-3.5-1.1-5.3-1.8-.8-.3-1.7-.6-2.6-.8-.8-.2-1.6-.5-2.4-.7-1.9-.7-3.6-1.4-5.5-2.2-3.3-1.3-6.5-2.4-9.9-3.5-.7-.3-1.5-.6-2.2-.8-5.6-2-12.7-4.2-17.7,0h0ZM630.2,293.2c-8.1.3-14.7,7.2-20.5,12.3-.8.7-1.7,1.4-2.5,2.1-2.1,1.8-3.8,3.7-5.5,5.8-.7.8-1.4,1.6-2.1,2.2-.7.6-1,1.3-.8,2.1-.4.2-.7.3-1.1.5-2,1.1-3,2.5-4.4,4.3-.5.7-.9,1.2-1.5,1.9-.5.6-.9,1.2-1.4,1.9-1.3,1.7-2.5,3.2-4,4.7-2.5,2.6-4.7,5.4-6.9,8.3-.6.7-1.1,1.4-1.7,2.1-5.5,7-11,14.1-16.3,21.3-.8,1-1.6,2.1-2.4,3.2-4.9,6-5.8,12.3-5.7,19.8v1.3c.2,21.1,3.1,43.1,8.4,63.4.4,1.4.7,2.8,1,4.2,4,16.2,9.8,31.7,18,46.2h.7v-1.4c.3-4.3.6-8.6.8-13,.2-2.2.3-4.4.5-6.6.8-12,1.6-24.2,2.6-36.2.7-7.7-1.5-12.1-5.2-18.5-8.2-14.2-6-33.4-2.1-48.6,2.5-8.4,6.9-16.2,12.3-23.1.3-.4.6-.7.8-1.1,2.1-2.8,4.9-5,7.6-7.3.4-.4.8-.7,1.3-1,14.3-11.7,31.3-17.4,49.8-15.7,19.6,2.3,36,11.8,48.5,27.2,3.7,5,6.6,10.4,9.1,16.2.2.6.5,1.2.7,1.8,7,17.7,5.2,38.2-2.1,55.6-4.9,10.9-12.6,20.1-22.6,26.7-.7.5-1.3.8-2,1.3-.2,1.2-.2,2.5-.2,3.9v32.3c0,27.9-1.6,55.8-4.2,83.7,0,1-.2,2-.3,3,0,1.1-.3,2.2-.4,3.4.4,2.3,1.5,3.1,3.4,4.4.5.3.8.6,1.3.8.5.3.9.7,1.3.9,1.3.9,2.6,1.8,3.9,2.6.7.4,1.2.8,1.9,1.2,15.7,10.2,32.4,18.8,49.4,26.4,2.3,1,4.7,2.1,7,3.3,9.1,4.4,18.6,7.5,28.4,9.2h1.5c7.1-.4,12.7-5.3,17.9-9.7,1.2-1,2.5-2.1,3.7-3,1.8-1.4,3.4-2.8,4.9-4.4s3-2.8,4.6-4.1c4-3.3,7.6-6.8,11-10.7,1.2-1.4,2.5-2.7,3.8-3.9,9.2-9.1,16.6-21.1,23.1-32.1.8-1.3,1.6-2.7,2.4-4,3.5-5.8,6.7-11.7,9.6-17.8.2-.5.5-.9.7-1.4.7-1.4,1.4-2.8,2.1-4.3.2-.4.4-.8.6-1.3,3.5-7.4,6.3-14.9,8.9-22.7.2-.5.4-1,.5-1.5,4-12,7.3-24.2,8.6-36.7l.7-1.3c.8-4.8.7-9.7.8-14.6v-3.7c0-.6,0-1.1,0-1.7-.3-1.8-.8-2.2-2.1-3.4-1.2-.8-2.4-1.6-3.6-2.3-.4-.2-.7-.5-1.1-.7-2.1-1.2-4-2.4-6.1-3.6-11-6.4-21.8-13.4-31.8-21.2-.5-.4-1-.7-1.5-1.2-1.4-1.1-2.9-2.2-4.3-3.4-.5-.4-1-.7-1.6-1.2-3.5-2.8-6.9-5.8-10.3-8.8-1.7-1.5-3.5-2.9-5.2-4.4-4.9-3.9-9.3-8.5-13.6-13.1-.7-.7-1.5-1.5-2.3-2.2h-1.3v-1.3c-1-1.1-2.1-2.1-3.3-3.3-.4-.4-.7-.7-1.1-1.2-.6-.6-1.3-.9-2.1-.7-.2-.4-.3-.7-.5-1.1-.9-1.7-2.1-2.7-3.6-4-2.1-1.9-4.3-3.8-6.3-5.9l-1.5-1.5-3.5-3.5c-3-3.1-6.1-6-9.2-8.8-1.5-1.3-3-2.6-4.4-3.9-7-6.4-14.6-12-22.1-17.8-.7-.5-1.2-.9-1.9-1.5-18.4-13.7-39.9-24.5-61.4-32.3-1.2-.5-2.4-.8-3.5-1.3-5-1.8-10.1-3.1-15.4-4.1-.7,0-1.3-.3-2-.4-7.4-1.5-14.5-1.7-22-1.7h.7ZM614.9,344.8c-.6.3-1.2.7-1.8.9-10.1,5.5-19,15.7-23.4,26.2-.3.6-.6,1.2-.8,1.8-4,9-5.2,18.3-4.8,28.1v1.5c.2,3.1.7,5.8,1.7,8.7h.7c0-.5,0-1,.2-1.5,1.9-16.3,5.2-28.5,17.9-39.5,9.9-7.8,21.7-11.7,34.3-10.6,9.7,1.4,17,4.9,24.6,11,.5.4.8.7,1.3,1,8.4,6.7,14.7,18,16.2,28.7.5,8.2,0,16-2.6,23.9-.4,4.3.2,8.7.6,12.9,0,.6,0,1.1.2,1.7,0,.6,0,1,.2,1.6,0,.5,0,.9.2,1.4.1.9.7,1.7,1.6,2.4,10.6-9.2,16.9-18.6,20.6-32.3,0-.5.3-.9.5-1.5,4.1-14.8.3-31.3-7-44.5-7.7-12.7-20.5-23.8-35-27.5-16-3.6-30.6-2.7-44.9,5.6h-.2ZM606.6,382.4c-1.7,2.1-3.1,4.2-4.5,6.4-.5.7-.9,1.4-1.4,2.1-4.5,8-5.3,18-3.2,26.8,3.2,10.3,8.8,19.8,18.4,25,8.5,4.1,16.8,5.6,26,3.7.5-.1,1-.2,1.6-.3,5.8-1.3,10.3-3.9,14.8-7.7.5-.4.9-.7,1.4-1.1,7-5.9,10.9-14.3,12-23.3.9-10.6-1.2-20.5-7.6-29.2-7.4-8.4-16.1-14-27.5-15-11.4-.4-22.3,3.9-30.1,12.4v.2ZM982.8,457c-5.8,2.3-11.6,4.5-17.4,6.6-1.3.5-2.6.9-3.8,1.4-1.1.4-2.3.8-3.5,1.2-3.2,1.1-6.1,2.4-9.1,3.9,0,.7.2,1.3.3,2.1,4.1,25.9,7.1,51.6,6.9,77.9v2.6c0,23.4-2.1,46.2-5.3,69.4,0,.7-.2,1.5-.3,2.2-1.1,8.2-2.2,16.5-4.1,24.7-.7,3.2-.9,6.1-.7,9.3,28.9,4.6,62.1-2.2,89.8-10.4,1.2-5.1,1.8-10.2,2.3-15.4.3-2.5.6-5.1.8-7.7,0-.6,0-1,.2-1.6.8-7.3,1.8-14.6,2.6-21.9,0-1,.3-2.1.4-3.1,0-.5,0-1,.2-1.5.4-3,.7-6.1,1-9.1.5-4.8,1.1-9.5,2.3-14.2.2-.6.3-1.2.5-1.8,4.1-16.8,10.6-32.4,21.7-45.9,1.4-1.7,2.6-3.4,3.9-5.1,8.7-11.1,24-18.1,37.8-19.9,19.9-2.1,38.7,2.1,54.8,14.3.9.7,1.8,1.5,2.7,2.2.6.5,1,.9,1.6,1.4,1.7,1.5,3.3,2.9,4.9,4.4.5.4.9.8,1.4,1.3,4.9,4.8,8.8,10.3,12,16.3.7,1.3,1.4,2.6,2.1,3.9,1.4,2.4,2.5,4.9,3.6,7.5.2.5.4.9.6,1.4,2,4.7,3.6,9.2,4.2,14.2h1.3c3.6-14.8,4.1-31.4.6-46.2-.6-2.2-.9-4.5-1.3-6.7-1.7-8.5-4.9-16.8-9-24.6-.5-1.3-.9-2.6-1.3-3.9h-1.3c0-.5,0-.8-.2-1.3-.7-2.4-1.8-4.2-3.2-6.3-.3-.4-.6-.8-.8-1.2-3.7-5.7-8-10.7-12.7-15.8-.4-.5-.9-1-1.4-1.5-6.3-6.4-13.6-11.2-21.2-16-.6-.4-1-.7-1.6-1-14.2-9.2-33.7-14.6-50.5-14.6h-10c-35.4,0-69.6,15.2-101.9,28.3v-.2ZM594.9,436.6c-2.2,24.8-3.6,49.8-4.7,74.7v2c-.9,21.3-.4,42.5,0,63.8,0,3.4.2,6.6.2,10s.2,7.9.3,12c.2,6.7.3,13.5.5,20.3.2,13,.6,26,1,38.9,0,2.1.2,4.1.2,6.2.3,8.5.9,17,1.9,25.4,3.2-.5,3.9-1.3,5.8-3.9,8.2-6.4,15.5-8.2,25.8-7.6,10,1.4,18.9,6.8,25.9,14,3.4-3.6,3.5-9.2,4.1-13.9.2-1.2.4-2.4.5-3.6,0-.6.2-1.2.3-1.9.5-3.2.9-6.3,1.4-9.4,1.9-12.6,3.6-25.2,5.1-37.8.3-2.1.6-4.2.7-6.3,5.6-44.4,8.5-89.1,8.6-133.7v-4.3c0-13.3-.5-26.4-1.5-39.7-2.3.5-3.5,1.3-5.4,2.9-2.7,2.2-5.6,4.2-8.6,6-.4.3-.7.5-1.2.7-10.4,6.2-23,6.7-34.5,3.8-6.6-1.9-12.5-4.9-17.6-9.6h-1.3c-.2-.7-.5-1.3-.7-2-1-1.1-2.1-2.1-3.3-3.3-.6-.7-1.2-1.4-1.8-2.1-.5-.6-.9-1.1-1.5-1.8h-.7l.3.3ZM888.9,461.2c0,.6-.2,1.2-.3,1.8-1.3,10.1-2.7,20.3-4.9,30.2-.2.7-.3,1.3-.5,2-.9,3.7-2.1,7.4-3.5,11-.7,1.8-1.2,3.6-1.8,5.5-5.2,17-11.8,34.6-21.4,49.6-1.4,2.1-2.6,4.4-3.9,6.6-1.8,3.2-3.7,6.3-5.9,9.2-1.4,1.9-2.7,3.8-4,5.7-4.3,6.3-8.9,12.1-14,17.7-1.2,1.3-2.3,2.6-3.5,3.9-4.3,4.9-9.1,9.6-14.1,13.9-1.4,1.2-2.7,2.4-4.1,3.6-3.5,3.1-7.1,6.1-11,8.6-.5.4-1,.7-1.6,1.1v1.3c1.5.7,3.1,1.3,4.6,2.1.4.2.8.4,1.2.6,7.8,3.5,15.8,6.4,24,9.1.5,0,.8.3,1.3.5,7.5,2.3,14.8,4.5,22.5,6,.7,0,1.3.3,2,.4,5.3,1,10.7,2,16.2,2.8.8,0,1.7.3,2.5.4,15.1,2.2,30.2,2.5,45.5,2.3h1.8c3.6,0,7.2-.3,10.7-.7,2.2-.2,4.5,0,6.7,0,.9,0,1.8-.5,2.6-1.4.2-.9.4-1.9.6-3,.1-.6.2-1.2.3-1.9,0-.7.2-1.3.3-2.1,0-.7.2-1.4.4-2.1.4-2.2.7-4.4,1-6.6.4-2.1.7-4.4,1-6.5.2-1.4.5-2.7.7-4.1.5-3,.9-5.9,1.6-8.9.7-3.2,1-6.4,1.4-9.5,0-.6.1-1.2.2-1.8.2-1.9.5-3.8.7-5.7,0-.7.2-1.3.2-2,1.2-11.5,2.1-23,2.6-34.5,0-1.4,0-2.7.2-4.1.6-12.2.6-24.4,0-36.6,0-.7,0-1.3,0-2-.5-10-1.7-19.8-3.1-29.6,0-.6-.2-1.2-.3-1.8-.7-6.4-2-12.7-3.6-19-2-1.3-2.8-1.5-5-1.9-.6,0-1.3-.2-2-.3-.7,0-1.4-.2-2.1-.3-11.2-1.7-22.3-4.1-33.2-7.1-.5,0-.9-.3-1.4-.4-2.1-.6-3.5-1.1-5.3-2.3h-2ZM1078.2,528.3c-.7.8-1.6,1.8-2.3,2.6-2.8,3.1-4.8,6.5-6.1,10.3h-1.3c-7.6,13.5-12.1,27.1-14.7,42.5-.3,1.5-.6,3-.8,4.5-2.5,13.8-4,27.8-5.7,41.8-.2,1.4-.4,2.8-.6,4.3-2.1,16.9-3.1,34-4.2,51,0,.6,0,1.1,0,1.7-.7,9.8-.7,19.6-.9,29.4v1.3c-.6,33.8.6,67.4,3.3,101.1,0,.8.1,1.6.2,2.4.7,9.2,1.6,18.4,2.7,27.5.6,4.6,1,9.1,1.3,13.6.4,4.5.8,9,1.5,13.4.4,2.8.7,5.5,1,8.3.8,7.5,1.9,14.8,3.1,22.3.7,3.9,1.3,7.9,1.9,11.9.1.6.2,1.2.3,1.9.5,3.4.9,6,1.2,7.7,1,6.6,2.1,13.3,3.3,19.9,0,.6.2,1.1.3,1.7,1,5.6,3.2,10.6,6.8,14.9,7.7,2.5,20.5-5.4,27.3-8.8,1.7-.9,3.4-1.9,5-2.8.8-.5,1.6-.8,2.4-1.3,9.4-5.1,18.8-11,26.2-19,.7-.7,1.6-1.4,2.6-2.2,12.7-10.5,14.7-27.1,18.1-42.2.7-2.7,1.2-5.4,1.9-8.2,0-.6.3-1.1.4-1.8,3.8-16.8,7.8-33.5,11.9-50.2,1.8-7.4,3.5-14.8,5.1-22.2.5-2.1.9-4.1,1.4-6.2.7-2.9,1.3-5.9,1.9-8.8.2-.9.4-1.9.5-2.7,0-.5.2-1,.3-1.5.5-2.2.8-4.6,1.3-6.8,2.7-14.4,5.4-28.8,7.8-43.2.3-1.7.6-3.5.8-5.1,1.2-6.9,2-13.8,2.6-20.8.5-4.5.9-8.9,1.5-13.3,4.3-34.2,6.5-69.1,4.4-103.5,0-.6,0-1.2,0-1.9-.6-9.4-2.5-18.2-5-27.3-.1-.6-.3-1.1-.5-1.7-1-3.5-2.2-6.7-4-10-.2-.5-.5-.9-.7-1.3-.7-1.3-1.3-2.5-2-3.7-.3-.6-.6-1.2-.9-1.8-1.5-2.8-3.3-5.4-5.2-7.9-1-1.3-2-2.6-2.9-3.9-3.6-4.9-8.2-8.5-13-12.2-.5-.4-1-.9-1.6-1.3-3.3-2.4-7-4.1-10.7-5.8-.6-.3-1.1-.5-1.7-.7-21.9-9.1-50.3-4.6-65.6,14.4l.4-.3ZM675,596.2c0,.7,0,1.5-.2,2.2-.2,2.7-.4,5.4-.6,8.2,0,1.2-.2,2.3-.3,3.5-.6,7.5-1.2,13.1-1.9,16.7-.7,3.5-.9,7.1-1.2,10.6-.8,8.2-1.7,16.4-3.4,24.5-.4,2-.3,3.9-.3,6,.6.2,1.1.5,1.7.7,2.4,1.3,4.4,2.9,6.4,4.8,2.2,1.9,4.4,3.7,6.7,5.5,2-5.2,2.8-10.5,3.5-16,0-.5,0-.9.2-1.5,1.2-9,2.2-17.9,3.2-26.9.7-6.2,1.3-12.3,2.2-18.5.6-3.4.7-6.7.6-10.1-.7-1-1.6-1.8-2.7-2.3-.6-.4-1.2-.7-1.8-1.1-.7-.4-1.3-.7-2-1.1-.7-.4-1.4-.8-2.1-1.3-2.6-1.6-5.4-2.9-8.3-3.9h0ZM1027.8,659.5c-.5,0-.9.3-1.4.4-1.2.3-2.5.7-3.7.9-.8.2-1.7.5-2.6.7-.2,2.8-.4,5.6-.6,8.4,0,.9,0,1.9-.2,2.8-.2,3.5-.4,7.1-.6,10.7v1.8c-.7,14.5-.7,28.9-.7,43.4v17.2c0,6.5,0,13.1.3,19.6v1.8c.6,19.6,2.7,39.2,4.4,58.7,0,1,.2,2.1.3,3.2.5,5.9,1.1,11.7,2,17.5.6,3.8.8,7.7,1.3,11.5.6,5.6,1.1,11.1,1.8,16.7.3,2.5.6,5,.8,7.6.9,17.5,4.5,34,10.6,49.6,2.7,1.4,5.3,1.2,8.3.9.5-.2.8-.5,1.3-.7.2-4.8-.6-9.3-1.4-14-.3-1.8-.6-3.6-.9-5.4,0-.5-.2-.9-.2-1.4-5.8-35.4-9.5-71.5-11.5-107.3,0-1.1-.2-2.3-.5-3.5-7.3-44.5-4.4-97.6.9-142.2-2.7,0-5.1.6-7.8,1.2h0ZM665.3,678.2c0,.4,0,.7-.2,1.2-1.2,7.3-2.6,14.4-4.9,21.5-.4,1.2-.7,2.5-1.1,3.7-.2.5-.3,1-.5,1.6,0,.4-.2.7-.4,1.1.5.6,1.3.8,2.4.8,5.7,0,10.5-1.5,14.7-5.5,1.8-2.1,2.6-3.6,2.9-6.3,0-.5,0-.8.2-1.3.3-3.7-.7-6-2.8-8.9-3-3.5-6-6.4-10.3-7.8v-.2ZM604.9,693.6c-3.2,3.9-4.9,8-5.4,13.1.8,6,2.9,10.6,7.6,14.6,8.1,5.5,18.4,7,28,5.2,5.3-1.3,9.2-3.5,12.2-8.1.2-.4.5-.7.7-1.1,1.6-4.1,1.4-10.2,0-14.3-.9-1.5-2-2.7-3.2-4-.5-.5-.9-.9-1.3-1.4-6.3-5.9-14-9.7-22.6-9.9-6,.2-11.7,1.4-15.8,6h-.2ZM675,714c-4.7,2.1-9.3,2.7-14.3,3.4-1.6,0-2.6.4-3.1,1-.3,3.7.2,7,.9,10.6,2.9,14.8,3.1,29.6,3.1,44.5v2.3c0,12.8-.4,25.4-1.4,38.1,0,.6,0,1.1,0,1.7-1.2,15.9-2.8,31.7-4.6,47.4-.5,4.3-.9,8.6-1.4,12.9-.6,5.8-1.2,11.5-1.9,17.2,0,.7-.2,1.3-.2,2-.4,3.3-.7,6.5-1.1,9.9-.7,6.4-1.4,13-1.8,19.4,1.5.6,3.1,1.1,4.6,1.6.4.1.9.3,1.3.5,2.6.9,4.9,1.3,7.7,1.1,2.1-6.5,2.9-13.2,3.8-20,.2-1.2.4-2.4.5-3.6.4-2.4.7-4.9,1-7.3.4-2.9.8-5.8,1.2-8.7,1.2-8.6,2.3-17.3,3.2-25.9.4-3.7.8-7.6,1.3-11.3,1.7-14.3,3.3-28.6,4.7-42.9.3-3.2.7-6.3.9-9.4,3.2-28.7,3.3-56.8.7-85.4-2.4-.8-2.9-.3-5.1.8h0ZM593,723.5c-1.9,5.9-3.2,11.7-4.1,17.7-.2,1.3-.4,2.5-.6,3.8-2.1,13.4-2.6,26.7-2.6,40.2v2.4c0,10.6.2,21,1.2,31.6.3,3.1.6,6.1.8,9.2.8,9.8,1.8,19.6,2.8,29.4,1.8,17.6,2.8,35.2,3.7,52.9v1.5c0,2.5.3,5,.4,7.7v1.5c0,1,0,2.1.2,3.1.7,12,1.3,24.1,2.3,36.1,0,.5,0,.9,0,1.5.2,3.5.7,6.9,1.4,10.4,5.2,1.3,10.5,2.3,15.8,3.2,5.9.9,11.5,2.2,17.2,3.9,1.5-2.2,1.6-3.6,2-6.4,0-.5,0-.9.2-1.4.2-1.6.4-3.2.6-4.8,0-1.1.3-2.3.4-3.5.3-2.6.7-5.2.9-7.9.6-4.5,1-9,1.6-13.4,3.7-31.2,7.1-62.4,10.4-93.6,0-.5,0-.9.2-1.4.6-5.5,1.1-11.1,1.8-16.6.2-1.4.3-2.8.5-4.2.8-8.4,1.5-16.9,1.8-25.4v-1.9c1.4-22.9.7-45.7-2.1-68.4-2.4.7-4.7,1.6-7,2.6-11.6,4.7-23.4,3.9-34.9-.7-4.2-1.9-7.9-4.7-11.4-7.8-1-1-2.2-1.4-3.5-1.3v-.2ZM1429.1,848.5c-1.2.9-2.4,1.8-3.7,2.7-1.6,1.1-3.2,2.3-4.8,3.5.8,1.7,1.5,1.7,3.3,2.4,6.3,2.7,9.8,7.6,13.5,13.2,2.3-.4,3.5-1.3,5.2-3,2.6-2.4,5.4-4.6,8.3-6.6,1.9-1.4,3.7-2.7,5.7-4.1,1.7-1.2,3.3-2.4,4.9-3.6.8-.7,1.7-1.2,2.5-1.9,2.3-1.7,4.9-3.1,7.4-4.3l1.7-.8c2.5-1.2,4.9-2.3,7.5-3.5-.6-4.7-2.8-7.4-6.2-10.6-14.2-9.2-34.6,8.8-45.5,16.7h0ZM1449.7,873.4v1.3c.5.2,1,.4,1.5.7,8.7,4,14,10.2,17.9,18.8,3.1,8.9,2.6,17.7-.7,26.5-2,4-4.3,7.6-7.1,11,.9,3,2.6,4.7,4.9,6.7.4.3.7.7,1,.9,1,.9,2.1,1.8,3.1,2.7.5.4.9.8,1.4,1.3.8.7,1.6,1.4,2.4,2.1,3.9,3.5,7.8,6.9,11.5,10.7,1.2,1.1,2.4,2.2,3.6,3.3,3.5,3,6.7,6.3,10,9.5s2.1,2.1,3.3,3.2c5,4.9,9.6,10,12.2,16.6.3.7.5,1.2.7,1.9,1.8,5.2,1.6,9.4-.6,14.6-1.7,3.5-4.3,5.5-7.1,8-3.4,3-7.2,6.7-8.2,11.3.2,1.2.9,2.2,2.1,3,4.4,2.4,10.5,1.8,15.2.6,9.8-3.5,16.5-9,22-17.7.7-1.1,1.5-2.3,2.2-3.5s.7-1.1,1.1-1.7c1.3-2,2.7-3.8,4.1-5.6,1.1-1.5,2.1-3,3-4.6.3-.6.7-1.1.9-1.6,2.6-4.6,2.1-11.3.8-16.3-.7-2.6-1.7-5.2-2.6-7.8-.3-.9-.7-1.9-.9-2.8-2.3-6.7-5-13.2-8.1-19.5-.9-2.1-1.8-4.2-2.6-6.4-.7-1.9-1.6-3.6-2.5-5.3-1.7-3.4-3.2-6.8-4.5-10.4-.2-.4-.3-.8-.5-1.2-3.4-8.7-5.4-17.6-7.4-26.6-2.7-17.6-8.7-33.2-17.9-47.1-18-5.5-41.8,12-54.4,23.9l-.2-.6ZM1407.1,863c.2.5.4.9.6,1.4.2.7.5,1.2.7,1.9s.5,1.2.7,1.9c.7,2,1.3,3.8,2,5.8,5-.3,9.9-.7,14.8-1.3-.2-2.3-.3-3.5-2-5.2-5.9-3.8-9.8-4.7-16.7-4.5h0ZM1378.2,864.3c-27.3,3.5-54.7,6.4-82.2,3.7-36.1-3.5-73.5-2.1-108.7,7.3-.7.2-1.5.4-2.2.6-4.7,1.2-9.2,2.5-13.9,3.9-.7.2-1.4.4-2.1.7-.7.2-1.4.5-2.1.7s-1.2.4-1.9.6c-2.1.8-3,1.6-4.3,3.4-.7,1.9-1.1,3.7-1.5,5.6,0,.6-.3,1.1-.4,1.7-.4,1.8-.7,3.5-1.1,5.2-.3,1.1-.6,2.3-.7,3.5-1,4.6-2.1,9.1-2.6,13.7,2.9-.4,5.3-1.6,7.9-2.9l2.8-1.4c.5-.3.9-.5,1.5-.7,9.2-4.7,18.6-8.9,28.4-12.3,2.2-.7,4.4-1.6,6.5-2.4,12.9-4.7,26-7.2,39.4-9.3.7,0,1.5-.3,2.3-.4,3.7-.6,7.5-1.1,11.2-1.6.4,0,.8,0,1.2-.2,12.4-1.5,25-1.2,37.4-1,32.8.3,64.5-.4,96.9-5.2,3.6-.6,7.3-.9,11-1.3-.7-5.6-2.5-9-6.4-12.9-5.6-.4-11,.5-16.5,1.2h0ZM1434.8,881.8c.6,3.1,1.3,5.9,2.5,8.8,5,12.5,6.1,25.7,6.5,39,5.5-.7,9.3-2.3,12.9-6.7,3.8-5.4,6.2-12.4,5.2-19.1-2.1-8.5-6.3-14.8-13.6-19.6-4.3-2.2-8.8-2.2-13.5-2.3ZM1409.3,883.9c-.7,0-1.3.2-2,.3-2.1.3-4,.6-6.1.7-1.3.2-2.6.4-3.9.5-5.6.7-11.3,1.5-16.9,2.3-7.2,1-14.4,1.9-21.6,2.5-1.1,0-2.2.2-3.4.4-3.1.3-6.2.6-9.2.8-.6,0-1.1,0-1.8.2-4.4.4-8.8.6-13.3.6h-49.8c-13.5,0-27,.4-40.3,2.9-.7,0-1.6.3-2.3.4-14.5,2.6-28.3,6.8-42.1,11.8-.7.3-1.6.6-2.3.8-4.2,1.5-8.2,3.1-12.2,4.9-.7.3-1.4.6-2.1.9-2,.9-3.9,1.9-5.9,2.8-.8.4-1.6.7-2.4,1.1-5.8,2.7-11.3,5.8-16.7,9.2,0,.4.3.7.4,1,7.1,20.4,3.3,44.1-5.7,63.2-5.2,10.6-9,16.6-11.5,17.7v1.3c24-2.1,49.1-8.8,72.2-15.7,3.2-.9,6.4-1.8,9.7-2.6,2.1-.6,4.2-1.1,6.4-1.7,2.4-.7,4.9-1.3,7.4-1.9,4.4-1,8.8-2.1,13.1-3.3,3.3-.8,6.6-1.7,9.9-2.5,3.7-.9,7.6-2,11.3-3,2.1-.6,4-1.1,6.1-1.6.7-.2,1.6-.4,2.3-.7,6.2-1.7,12.3-3.3,18.6-4.9,9.9-2.6,19.8-5.2,29.7-8,5.9-1.7,11.9-3.4,17.7-4.9,7.2-2,14.4-3.8,21.5-6.1,3.1-.9,6.2-1.8,9.3-2.5,1.3-.3,2.6-.7,3.9-.9.8-.2,1.8-.5,2.6-.7,1.9-.5,3.7-.9,5.6-1.6,3.4-1.1,6.8-2.1,10.2-2.9.7-.2,1.5-.4,2.1-.6,4-1.1,7.9-2,12-2.6,1.9-.4,3.6-.9,5.4-1.6,1.3-.3,2.6-.7,3.9-.9.7-.2,1.5-.3,2.1-.5.7-.2,1.5-.4,2.3-.6,1.6-.4,3.2-.7,4.8-1.1,1.2-.3,2.4-.6,3.6-.8,1.5-4.2,1.5-8.1,1.5-12.5v-2.2c0-6.1-.7-11.7-2.1-17.6,0-.5-.2-.9-.4-1.4-1.7-7.1-4.6-13.5-8.7-19.2-4.3-.7-9,.2-13.3.7l.3-.2ZM579.5,930c-.7.2-1.5.5-2.2.7-.7.3-1.6.5-2.3.7-1.6.5-3.2.9-4.8,1.4-.7.2-1.5.5-2.3.7-3.1.9-6.2,1.8-9.2,2.6-1.5.5-2.9.9-4.3,1.5-2.9,1.1-5.8,1.9-8.8,2.7-7.6,2.1-14.9,4.7-22.3,7.3-1.9.7-3.8,1.3-5.7,2-5.4,1.9-10.6,3.6-15.7,6.4v2c8.4,3.6,16.9,3.5,25.9,2.6.7,0,1.4,0,2.1-.2,2.3-.2,4.7-.5,7-.7.7,0,1.5-.2,2.2-.3,5.4-.6,10.4-2.1,15-4.8,9.6-7.5,20.3-11.8,31.8-15.3.6-2.4.7-4.5.4-7,0-.6-.1-1.2-.2-1.9,0-.5,0-.9-.2-1.4-2.4,0-4,.4-6.4,1h0ZM1141.5,933.5c-.7.7-1.3,1.5-1.9,2.2-14.9,17.3-37.2,29.9-58.8,36.5-1.2.4-2.3.7-3.5,1.2-.7.2-1.5.5-2.3.7,3.6,8.8,7.6,15.6,14.2,22.6.5.6,1,1.2,1.6,1.8,7.6,6.8,17,11.6,27.4,11.4,6.1-.6,10.3-4.2,14.2-8.6,13.7-16.6,18.5-39.8,16.8-60.9-.4-3.5-.7-6.5-2.4-9.5-2.6,0-3.2.8-5.1,2.6h0ZM647.9,935.4v10.4c2.2,1.4,4.5,2.1,6.9,2.3,3-2.1,4.9-4.7,6-8.1-3.1-2.7-8.7-6.6-12.9-4.5h0ZM1049.2,942.5v2.6c.5.2.8.5,1.3.7-.2-1-.5-2.1-.7-3.3h-.7ZM581.1,950.6c-.6.2-1.1.5-1.7.7s-1.1.5-1.7.7-1.1.5-1.8.7c-5.5,2.2-10.6,4.7-14.7,9.2,5,3.9,10.4,3.6,16.4,3.5h2.9c2.8.2,5.4,0,7.8-.8,0-2.2,0-4.5-.2-6.7v-5.5c0-1-.6-1.9-1.5-2.7-2.3,0-3.4.2-5.4,1h-.2ZM1488.4,970.9c-.2.7-.5,1.3-.7,2,.2.5.5.8.7,1.3.6,5.6-1.1,9.6-4.6,14.1-1.5,1.8-3.2,3.4-4.8,4.9-2.9,2.8-5.4,5.9-7.5,9.4.2,1.9.4,2.9,1.5,4.4,2.5,1.9,5.2,1.6,8.2,1.5,1.8-.4,3.5-1,5.2-1.6.5-.2.9-.4,1.4-.6,6.2-2.3,13.6-5.9,17.5-11.4.6-1.7.6-2.8.4-4.5-3.5-6.4-9.3-11.5-14.5-16.4-1-.9-2-2-3-2.9v-.3ZM603.3,983.9c2.3,6.1,6.4,10.3,11,14.8.4.4.7.7,1.1,1.2,1.9,1.8,3.9,1.7,6.4,1.7,2.7-.5,4.3-2.1,6.1-4.1,1.8-2.7,2.6-4.6,2.6-7.8-8.6-3.5-17.8-5.5-27.2-5.8h0ZM550.8,987.6c-.4,0-.9.2-1.3.3-6,.8-11.5,2.5-16.7,5-.6,5.3.7,10.4,2,15.5,0,.6.3,1.2.5,1.8.5,1.6.9,3.1,1.5,4.7.2.6.4,1.1.7,1.8.9,2,1.7,3.2,3.3,4.7,2.9,1,5.8,1.5,8.9,1.8,1.3,0,2.6.3,3.9.5,2.7.4,5.4.5,8.2.5h8.1c14.1,0,27.5-2.6,40.2-7.9.6-.5,1.2-.8,1.8-1.3,1.1-.9,1.5-2.2,1.3-3.9-.6-.7-1.4-1.3-2.2-2-4.9-4-8.4-9.1-11.9-14.3-.3-.4-.5-.7-.7-1.1-1-1.6-2-3.2-2.8-4.9-.7-1.5-1.1-2.4-2.4-3.5-3-.7-6-.7-9.1-.7-11.1,0-22.1,1.1-33.1,3.2h0ZM466.8,1015.7c-.5.2-.8.4-1.3.6-3.1,1.4-6,3.2-8.9,5,.4,1.9.6,2.5,2,3.9,15.8,10.4,40.7,2.6,57.7-.8,3.5-.7,7.2-1.6,10.7-2.4-.6-5.3-1.4-10.6-2.3-15.9-.2-.9-.3-1.8-.5-2.7-.4-2.2-.7-4.4-1.1-6.6-16.4,0-41.6,12.4-56.4,19h0Z"/>
</svg>