<?xml version="1.0" encoding="UTF-8"?>
<svg id="Layer_1" xmlns="http://www.w3.org/2000/svg" version="1.1" viewBox="0 0 1920 1080">
  <!-- Generator: Adobe Illustrator 30.0.0, SVG Export Plug-In . SVG Version: 2.1.1 Build 123)  -->
  <path d="M575.5,22.3c1.5,0,3,0,4.5,0,8.3,0,16.4.6,24.4,2.7.4.1.9.2,1.3.3,2.5.7,4.9,1.4,7.3,2.4,1.9.7,3.8,1.4,5.7,2.1,3.5,1.2,6.8,2.6,10.2,4.2,1.3.6,2.6,1,4,1.3v1.3c.3,0,.7.1,1,.2,5.6,1.6,10.9,5.5,15.7,8.8,2.2,1.5,4.4,2.9,6.6,4.3.3.3.7.5,1,.8v1.3c.3.1.7.3,1,.4,2,1.1,3.8,2.6,5.5,4q.5.4,1.1.9c.9.7,1.8,1.5,2.6,2.3v1.3c.8.4,1.7.8,2.6,1.3v1.3c.6.2,1.3.4,1.9.6q1.3,1.4,2.6,3.1c.5.6.9,1.1,1.4,1.7q1.1,1.6,1.8,3.5h1.3q.9,1.2,2,3c.4.6.8,1.3,1.2,2,.4.7.8,1.4,1.3,2.1.4.6.8,1.3,1.3,2,7.1,11,12.2,24,13.4,37.1,0,.7.1,1.4.2,2.1,1.8,21.1-1.3,42.3-11.1,61.2-.3.6-.6,1.2-.9,1.8l-4.2,8.5h-1.3c0,.5-.1.9-.2,1.4-.5,2.1-1.4,3.3-2.7,5.1-1.3,1.7-2.2,3-2.9,5h-1.3c-.2.4-.3.7-.5,1.1-2.5,4.7-6.1,9.1-9.7,13h-1.3c-.2.4-.3.7-.5,1.1-.9,1.6-1.9,2.7-3.2,4-.5.5-1,1-1.5,1.5q-.8.8-1.5,1.5c-.5.5-1.1,1-1.6,1.6-7.1,7-15,12.7-23.1,18.5.9,2.4,2,4.4,3.4,6.6.4.6.8,1.2,1.2,1.8q.6.9,1.2,1.8c.6,1,1.3,1.9,1.9,2.9.3.4.5.8.8,1.2q.5,1,.5,2.3c.5,0,1.1,0,1.6,0q20.4-.3,30.4,1.9.8.2,1.7.4c8,1.8,15.6,4.1,23.2,7.2.6.2,1.1.5,1.7.7,1.1.4,2.2.9,3.3,1.4,1.2.5,2.4,1,3.7,1.5,22.9,9.2,43.6,23.5,63.2,38.4.6.5,1.3,1,2,1.5,1.8,1.5,3.4,3,5,4.7,2,1.7,4,3.4,5.9,5.1,2.4,2.1,4.7,4.2,6.9,6.5,1.2,1.1,2.3,2.2,3.6,3.2,2.8,2.4,5.4,5,8,7.6.5.5,1,1,1.4,1.5,2,2,4,4.1,6.1,6.1,1.5,1.5,3,3,4.5,4.5.4.5.9.9,1.4,1.4,2.5,2.5,5.1,4.9,7.8,7.3,2.1,1.8,4.1,3.7,6.1,5.6.9.8,1.8,1.7,2.7,2.5,1.6,1.5,3.2,3.1,4.9,4.6,3.9,3.7,7.9,7.1,12.4,10.2.5.4.9.7,1.4,1.1v1.3c.5.1,1.1.3,1.6.4,2.9,1.1,4.8,2.8,7.1,4.8,3.4,2.9,6.9,5.5,10.7,7.8,2.5,1.5,4.8,3.3,7.1,5,2.7,1.9,5.5,3.5,8.4,5.1,1.4.8,2.7,1.5,4.1,2.3,1.5.8,3,1.7,4.5,2.5,4.4,2.4,7.3,5.4,8.8,10.3q.6,1.6,2.1,2.1c.6.1,1.1.2,1.7.4,2.6.6,5.1,1.3,7.7,2.1,6.1,1.9,12.4,3.2,18.7,4.6.6.1,1.2.3,1.8.4q14.2,3.3,28.3.9c.5-.2,1-.4,1.6-.6,1.2-.5,2.4-1,3.7-1.6,3.2-1.4,6.5-2.5,9.8-3.8,5.5-2,10.9-4.1,16.3-6.3,3.1-1.3,6.2-2.5,9.4-3.6,4.4-1.6,8.8-3.4,13.1-5.1q20.1-8.1,27.9-10.4c1.9-.6,3.8-1.2,5.7-1.8,5.7-1.8,11.5-3.3,17.4-4.6.8-.2,1.6-.4,2.5-.5,9.3-2,18.4-2.9,27.9-2.8,1.6,0,3.1,0,4.7,0,8.6,0,17.2.6,25.6,2.5.5.1.9.2,1.4.3,7.6,1.8,15.4,4.3,22.2,8.1,1.3.7,2.7,1.3,4,1.9,3.7,1.6,7.1,3.6,10.5,5.7.6.4,1.3.7,1.9,1.1q.9.5,1.8,1.1t1.7,1,1.9,2.1c1.3.7,2.5,1.3,3.8,1.9v1.3q.6.3,1.1.5c3.5,1.9,6.3,5,9.1,7.8.5.5,1,.9,1.5,1.4,1.8,1.9,3.4,3.8,5,5.9.3.4.6.8.9,1.2,2.2,2.8,4.3,5.7,6.4,8.6q.4.6.8,1.1,1.9,2.7,1.9,4.8c.6.2,1.3.4,1.9.6q.8,1.4,1.5,3.4c1.1,2.9,2.3,5.7,3.7,8.5,1.8,3.9,3.2,7.8,4.4,11.8.2.7.4,1.4.7,2.1,1.8,5.9,2.9,11.7,3.8,17.7q.1.6.2,1.3c2.8,18.3,3.1,42.1-4.6,59.4-1.8,4.2-1.3,8.3-.9,12.8.4,6,.3,12.1.3,18.1,0,.7,0,1.4,0,2.1,0,12.7-.5,25.4-1.3,38.1,0,1.2-.2,2.5-.2,3.7-.7,10.5-1.8,21-3,31.5,0,.8-.2,1.7-.3,2.5-.3,2.8-.7,5.6-1,8.4,0,.5-.1.9-.2,1.4-1.5,12.6-3.1,25.3-5.1,37.8,0,.5-.2,1.1-.2,1.6-.8,4.9-1.5,9.9-2.6,14.8-.5,2.5-.8,5-1.2,7.5-.3,1.9-.8,3.8-1.3,5.7-.7,3-1.2,6.1-1.7,9.1-1.3,7.3-2.7,14.6-4.1,21.9-.2,1.1-.4,2.2-.7,3.3-1.1,5.8-2.4,11.3-4.2,16.9-.8,2.7-1.1,5.4-1.5,8.1-.6,3.8-1.6,7.5-2.5,11.3-.2.8-.4,1.6-.6,2.5-.6,2.3-1.1,4.6-1.7,6.9-.3,1.1-.5,2.2-.8,3.2q-3.3,13.3-5,16.6c.4-.1.8-.3,1.2-.4,17-5.4,34.2-10.2,51.9-12.4.7,0,1.4-.2,2.2-.3,13.5-1.7,26.9-1.8,40.5-1.8,1.4,0,2.8,0,4.2,0,10.1,0,20.2.2,30.3,1,7.8.6,15.5.8,23.3.8.7,0,1.5,0,2.2,0,20.7,0,41.5-2,62-4.9,3.9-.5,7.8-.7,11.7-.7,7.8-.2,13.9-.5,19.6-6.2.3-.3.6-.6.8-.9,1.8-1.8,3.9-3.3,6-4.8.9-.7,1.9-1.4,2.8-2.1q9.3-6.8,13.9-9.4,1.2-.7,2.1-1.7c1.2-1.1,2.2-1.6,3.7-2.2.5-.2,1-.4,1.6-.7.5-.2,1.1-.4,1.6-.7.5-.2,1-.4,1.6-.7,7.8-3.2,15.4-5.7,23.9-3.1.9.4,1.7.8,2.6,1.2.5.2,1,.4,1.4.6,6.5,3,9.8,9.7,12.6,16,.4-.1.7-.2,1.1-.3,5.8-1.3,11.7-.4,16.7,2.7,19.9,13.9,21.6,47.3,26.3,69.3.7-.1,1.4-.2,2.1-.3,2.7-.4,5.2-.4,7.9-.4.5,0,.9,0,1.4,0,2.7,0,4.8,0,7.1,1.4q1.1,1.2,2.1,2.7.6.9,1.2,1.8c.4.6.8,1.3,1.2,1.9.4.6.8,1.3,1.3,1.9,2.2,3.4,4.4,6.8,6.5,10.2,6.7,10.6,13.6,21.2,20.6,31.7,1.9,2.9,3.7,5.8,5.5,8.6.9,1.4,1.7,2.7,2.6,4.1.6,1,1.3,2.1,1.9,3.1,2.6,4,5.1,8.1,7.7,12.1,2.6,4.1,5.2,8.1,7.7,12.2,2.4,3.9,4.8,7.7,7.3,11.5,2.8,4.3,5.5,8.5,8.2,12.8,2.9,4.6,5.9,9.2,8.8,13.8,2.8,4.4,5.6,8.8,8.4,13.3,2.3,3.7,4.7,7.3,7.1,10.9,3.1,4.6,6.2,9.3,8.9,14.1.3.5.6,1.1,1,1.7.9,2.1,1.1,3.3.7,5.5-1.5,1.9-3.3,3.5-5.7,4.2-1.4.1-2.7.1-4.1.1-.5,0-1.1,0-1.6,0-1.8,0-3.6,0-5.3,0-1.3,0-2.6,0-3.9,0-3.6,0-7.1,0-10.7,0-3.9,0-7.7,0-11.6,0-6.8,0-13.5,0-20.3,0-7.3,0-14.5,0-21.8,0-.5,0-.9,0-1.4,0-2.3,0-4.7,0-7,0-4.8,0-9.6,0-14.4,0-.5,0-1,0-1.5,0-10.5,0-21,0-31.5,0-23.8,0-47.6-.1-71.4-.2-3,0-5.9,0-8.9,0-.5,0-1,0-1.5,0h-3c-2.5,0-5,0-7.5,0-.5,0-1,0-1.5,0-3,0-6,0-9.1,0-15.2,0-30.4,0-45.5,0-1.1,0-2.2,0-3.3,0-3.8,0-7.7,0-11.5,0-60.3-.1-120.6-.2-189-.3-.7,0-1.3,0-2,0-72.3,0-144.7-.1-299.1,0q-.7,0-1.3,0c-43.3,0-86.5,0-297.1.3-8.6,0-17.2,0-25.8,0q-1.1,0-2.3,0-141.8.2-225.5.2c-6.6,0-13.2,0-19.8,0-7.2,0-14.3,0-21.5,0-3.5,0-7,0-10.6,0-3.2,0-6.3,0-9.5,0-1.1,0-2.2,0-3.4,0-1.5,0-3,0-4.5,0q-1.3,0-2.5,0-6.7-.2-8.7-1.5c-1.3-1.6-2-2.8-2.1-4.9,1.1-3,2.4-6.4,4.8-8.6,1.2-1.3,2-2.8,2.9-4.3,1.1-1.9,2.3-3.7,3.4-5.5.5-.8,1-1.6,1.5-2.4.2-.4.5-.8.8-1.2,2.3-3.6,4.6-7.2,6.8-10.8,3.2-5.2,6.4-10.4,10-15.4,1.1-1.6,2.1-3.2,3.1-4.9.7-1.1,1.4-2.1,2-3.2,1.6-2.5,3.2-5,4.7-7.6,2.7-4.4,5.5-8.8,8.3-13.2,2.5-3.9,5-7.8,7.4-11.7,4.9-7.7,9.8-15.4,14.9-22.9,1.8-2.7,3.4-5.4,5.1-8.1,1.7-2.8,3.5-5.6,5.3-8.4.4-.6.8-1.2,1.2-1.8,2.8-4.4,5.7-8.7,8.6-13.1,2.3-3.4,4.5-6.9,6.6-10.4,1.5-2.3,3.1-4.6,4.7-6.8.9-1.2,1.6-2.5,2.3-3.8.9-1.5,1.7-3,2.7-4.5q.3-.5.7-1.1c1.9-2,4.2-2.9,6.9-3.2q1.1,0,2.3,0c.4,0,.8,0,1.3,0,1.4,0,2.8,0,4.2,0,1,0,2,0,3.1,0,2.8,0,5.6,0,8.4,0,3,0,6.1,0,9.1,0,5.3,0,10.5,0,15.8,0,7.6,0,15.2,0,22.8,0,12.3,0,24.7,0,37,0,12,0,24,0,35.9,0q1.1,0,2.2,0c3.7,0,7.4,0,11.1,0,30.7,0,61.5,0,92.2,0-.3-4.9-.6-9.7-.9-14.6-.1-2.3-.3-4.5-.4-6.8-1.1-17.2-2.3-34.4-4-51.5-.3-3.2-.6-6.4-1-9.7q0-.7-.1-1.4-8.4-87.6,9.3-109.5c3-4.1,2.5-9.7,1.7-14.6-.7-3-1.8-5.9-2.9-8.8-3.6-9.8-3.7-20.2-3.9-30.6,0-1.3,0-2.5,0-3.8,0-3.4-.1-6.8-.2-10.2,0-2.1,0-4.3-.1-6.4-.5-23.7-.8-47.4-1-71.2,0-11.3-.2-22.6-.4-33.9,0-1.2,0-2.4,0-3.6,0-1.6,0-3.3,0-4.9q0-.7,0-1.5c-.1-4.5-1.7-7.4-3.9-11.2-.2-.4-.5-.8-.7-1.2-1.3-2.2-2.6-4.3-3.9-6.5-4.6-7.6-8.1-15.9-11-24.3-.6-1.7-1.2-3.4-1.8-5-5.9-16.6-9.3-33.5-11.9-50.9-.2-1.2-.4-2.4-.6-3.5-.4-2.4-.6-4.8-.8-7.2,0-.5,0-1-.1-1.5-.8-9.2-1.5-18.3-1.5-27.5,0-.7,0-1.4,0-2,0-3.8.6-6.9,1.8-10.5.8-2.6.8-4.5-.3-7-4.4-7.2-9.3-13.9-14.5-20.6q-.6-.7-1.2-1.5-2.2-2.8-4.5-5.7c-5.1-6.5-9.3-13.1-13-20.4-.4-.7-.8-1.5-1.2-2.2-3.7-7.4-6-15.4-8.4-23.3-1.2-3.9-2.5-7.8-3.9-11.6-.2-.6-.4-1.2-.7-1.8-.2-.4-.3-.9-.5-1.3-3.8-.2-7.2.2-10.9.9-5.5,1-11,1.5-16.6,1.6-.5,0-.9,0-1.4,0-13.1.4-25-1.5-35.7-9.6-7.3-7.4-9.7-14.9-9.7-25.1,0-.6,0-1.3,0-1.9q0-.9,0-1.9c0-.6,0-1.1,0-1.7q0-1.4.7-2.7c.1-1.1.3-2.2.4-3.2.5-4.4,1.2-8.7,2.4-13,1.3-5,2.2-10,3.2-15q.2-1,.4-2,.2-.9.3-1.8.3-1.4,1-2c.3-1.2.5-2.5.8-3.8,1-4.9,2.5-9.6,4-14.4,1.1-3.3,2-6.5,2.9-9.8,1.5-5.3,3.5-10.4,5.4-15.6.9-2.3,1.6-4.5,2.3-6.9.5-1.7,1-3,1.9-4.6.6-1.5,1.1-2.9,1.7-4.4,1.6-4.1,3.5-7.9,5.6-11.7,1-1.9,2-3.6,2.3-5.7h1.3c.2-1.5.4-3,.6-4.5h1.3c.2-.5.3-1.1.5-1.6,1-2.7,2.3-5,3.7-7.5.5-.9,1-1.8,1.6-2.7q.3-.6.7-1.2.7-1.2,1.2-3h1.3c0-.4.1-.7.2-1.1.6-1.8,1.5-2.9,2.7-4.4,1.4-1.7,2.2-2.7,2.9-4.8h1.3c.2-.4.3-.7.5-1.1.8-1.5,1.7-2.9,2.6-4.4.3-.5.6-1,1-1.5.9-1.2,1.7-2.3,2.9-3.3h1.3c.2-.6.4-1.3.6-1.9h1.3c.2-.4.3-.7.5-1.1,2.9-5.3,8-8.8,12.7-12.5.3-.3.7-.5,1-.8q6.3-4.8,8.8-4.8v-1.3c3.8-2.2,7.6-4.2,11.8-5.8,1.1-.4,2.3-.9,3.4-1.4,4.8-2.2,9.7-3.6,14.8-4.7.9-.2,1.8-.4,2.7-.6,4.9-1.2,9.8-1.1,14.8-1.1ZM548.4,37.2q-1.1.4-2.2.7c-7.2,2.6-15,6.5-20.9,11.4v1.3c-1.1.4-2.1.8-3.2,1.3v1.3q-.8.3-1.6.5-.8.4-1.6.8c-.2.6-.4,1.3-.6,1.9h-1.3v1.3q-.9.3-1.9.6v1.3c-.4.2-.7.3-1.1.5-1.7.9-2.8,1.9-4,3.4v1.3h-1.3q-1.3,1.4-2.6,3.1c-.5.6-.9,1.1-1.4,1.7q-1.3,1.5-1.1,3.5-.9.3-1.9.6-1.2,1.5-2.3,3.4c-.4.6-.8,1.2-1.2,1.9-.8,1.5-1.3,2.7-1.6,4.3h-1.3c-.3.5-.5.9-.8,1.4-.3.6-.7,1.2-1,1.9-.3.6-.7,1.2-1,1.9-.7,1.2-1.4,2.4-2.1,3.6q-1,1.5-.8,3.4h-1.3c-.1.3-.3.7-.4,1.1-1.4,3.2-2.9,6.2-4.7,9.2q-.8,1.5-.6,3.9h-1.3c-1.7,4.3-3.4,8.7-5.1,13-1.4,3.6-2.7,7.2-4.2,10.7-2.1,4.9-3.8,10-5.5,15.1-.5,1.3-.9,2.7-1.4,4-2.3,6.8-4.3,13.6-6.2,20.5q-.3.9-.5,1.9-2.6,9.6-4.3,19.4c-.3,2.1-.9,4.1-1.5,6.2q-4.3,16.6-1.2,32.7c4.7,6.7,11.2,10.8,19.1,12.7,1.8.2,3.6.2,5.4.1.5,0,1,0,1.6,0,1.1,0,2.2,0,3.2,0,1.6,0,3.2,0,4.9,0q11.5,0,22.8-1.6c.9-.2,1.7-.3,2.6-.5.5,0,.9-.2,1.4-.3,1.9-.4,3.7-.7,5.6-1,11.5-2.1,22.7-4.7,33.1-10.2v-1.3c1.1-.2,2.1-.4,3.2-.6v-1.3q.7-.2,1.3-.5c2.1-.9,3.9-1.9,5.8-3.1,5.7-3,9.3-3.4,15.5-1.6,4.5,1.4,8.9,3,13.3,4.6,1.9.7,3.8,1.3,5.7,2,.6.2,1.3.4,2,.7,1.2.4,2.5.9,3.7,1.3,3.4,1.2,6.8,2.4,10.1,3.8,1.9.8,3.8,1.4,5.8,2.1.7.2,1.4.4,2.1.7,3.4.7,5.5-.3,8.5-2,1.4-1,2.5-2.1,3.7-3.3,1.1-.9,2.2-1.8,3.3-2.7.6-.5,1.2-1,1.9-1.5,2.3-1.8,4.6-3.7,6.9-5.5,1.4-1.2,2.7-2.4,4-3.7v-1.3c.6-.2,1.3-.4,1.9-.6,1.6-1.5,3.1-3.1,4.5-4.8q1.3-1.6,3-3.3,1.6-1.3,1.4-2.8c.6-.2,1.3-.4,1.9-.6.2-.6.4-1.3.6-1.9.4-.3.9-.6,1.3-1,.4-.3.8-.6,1.2-1v-1.9h1.3v-1.9c.6-.2,1.3-.4,1.9-.6,2.9-3.6,4.9-7.5,7-11.5.5-.9,1-1.9,1.5-2.8,3.5-6.4,6.4-12.7,8.7-19.6q.4-1.1.7-2.1c2.3-7,3.9-14.2,3.7-21.5h1.3c0-2.7,0-5.3,0-8,0-.8,0-1.5,0-2.3,0-.7,0-1.4,0-2.2,0-.7,0-1.3,0-2q.1-1.5-.7-2.2c-.3-2.2-.5-4.5-.7-6.7-.3-2.8-.8-5.3-1.8-8-.3-1.2-.6-2.4-1-3.7-1.5-5.8-3.9-10.7-6.8-15.9q-1.2-2.2-1.8-4.1h-1.3c-.2-.5-.4-.9-.6-1.4-.6-1.5-1.3-2.9-2-4.3h-1.3c-.1-.4-.2-.8-.4-1.3-1.3-2.7-3.2-5-5.4-7h-1.3c-.2-.4-.3-.8-.5-1.1-2.3-4.2-6.8-7.4-10.4-10.4-.6-.5-1.1-.9-1.7-1.4-.6-.5-1.1-.9-1.7-1.4-.5-.4-1.1-.9-1.6-1.3q-1.4-1.1-3.3-1v-1.3c-2.2-1.7-4.7-3-7-4.5q-.7-.4-1.4-.8c-7.1-4.1-14.6-7.2-22.3-10-.6-.2-1.1-.4-1.7-.7-9.9-3.8-20.4-5.8-30.9-6.4-.6,0-1.2,0-1.8-.1-10.8-.4-22,2.2-32.1,5.9ZM564.3,234.4c-2.4,1.9-4.7,3.4-7.4,4.8-1,.5-2,1.1-2.9,1.7-9,5.4-19.6,7.9-29.9,9.3-.5,1.5-.7,2.3-.2,3.8q.3.6.7,1.3c1.2,2.4,2,4.8,2.8,7.4.9,3,1.9,5.9,3.1,8.8.7,1.8,1.3,3.6,1.9,5.4,3,8.9,6.5,18.5,12.9,25.6,2,2.2,3.6,4.7,5.3,7.1.4.4.7.9,1.1,1.3h1.3c.1.4.2.8.4,1.3,1.1,2.3,2.6,3.9,4.3,5.7,1.2,1.4,2.1,2.9,3,4.5.9,1.2,1.9,2.5,2.8,3.7,1.7,2.3,3.2,4.4,4.4,7,.3.7.7,1.4,1,2.1.6.2,1.3.4,1.9.6.2-.3.4-.6.6-.9,3.7-5.8,8.1-11.1,12.4-16.4q.5-.7,1.1-1.3c.7-.8,1.4-1.7,2.1-2.5q1.8-1.9,2.4-4.3c.6-.2,1.3-.4,1.9-.6q.9-1,1.8-2.3c.3-.5.7-.9,1-1.4.3-.5.7-1,1-1.4.6-.9,1.3-1.8,2-2.7.3-.4.6-.8.9-1.2,1.3-1.6,2.8-3,4.2-4.5,1.2-1.2,2.3-2.5,3.5-3.8.3-.3.6-.7.9-1,1.6-1.8,3.2-3.5,4.7-5.4,1.5-1.8,3.2-3.3,5.1-4.8q1.2-1,2.6-2.5c2-2,4.1-3.8,6.3-5.6q.6-.5,1.2-1c1.9-1.6,3.8-3.2,5.8-4.7-1.1-3.2-2.9-5.8-4.8-8.6-1.6-2.4-2.8-4.8-4-7.4-1.6-3.1-3.3-3.9-6.5-5.1-1.5-.4-3.1-.9-4.6-1.3-.9-.3-1.9-.6-2.8-1-1.7-.6-3.5-1.1-5.2-1.7-.9-.3-1.7-.6-2.6-.8q-1.2-.4-2.4-.8c-1.9-.7-3.6-1.4-5.5-2.2-3.2-1.3-6.5-2.4-9.8-3.6-.7-.3-1.5-.5-2.2-.8-5.6-1.9-12.6-4.2-17.6,0ZM646.7,272c-8,.3-14.5,7.1-20.2,12.2-.8.7-1.7,1.4-2.5,2-2,1.7-3.7,3.7-5.5,5.7q-1,1.2-2.1,2.2-1,.8-.8,2.2c-.4.1-.7.3-1.1.4-1.9,1.1-3,2.5-4.3,4.3-.5.6-1,1.2-1.5,1.8-.5.6-.9,1.2-1.4,1.8-1.3,1.6-2.5,3.2-4,4.6-2.5,2.6-4.7,5.4-6.9,8.2-.6.7-1.1,1.4-1.7,2.1-5.5,7-10.9,14-16.2,21.1-.8,1-1.6,2.1-2.4,3.1-4.8,5.9-5.7,12.2-5.6,19.6,0,.4,0,.8,0,1.3.2,20.9,3,42.6,8.3,62.8.4,1.4.7,2.8,1,4.2,4,16,9.7,31.3,17.8,45.7h.6c0-.4,0-.9,0-1.3.3-4.3.6-8.5.8-12.8.1-2.2.3-4.4.4-6.6.8-12,1.6-23.9,2.6-35.9.6-7.6-1.5-12-5.2-18.3-8.1-14.1-5.9-33.1-2-48.1,2.5-8.3,6.8-16,12.2-22.8.3-.4.6-.7.9-1.1,2.2-2.8,4.8-5,7.5-7.2.4-.3.8-.7,1.2-1.1,14.2-11.5,31-17.2,49.3-15.6,19.5,2.3,35.7,11.7,48,26.9,3.7,5,6.6,10.2,9,16q.4.9.7,1.7c7,17.6,5.1,37.8-2,55-4.8,10.8-12.5,19.9-22.4,26.4-.6.4-1.3.8-1.9,1.3q-.3,1.8-.2,3.9c0,.8,0,1.6,0,2.5,0,.9,0,1.8,0,2.7,0,.9,0,1.9,0,2.8,0,2,0,4.1,0,6.1,0,5.4,0,10.7,0,16.1,0,.5,0,1.1,0,1.6,0,27.7-1.5,55.3-4.1,82.9,0,1-.2,2-.3,3,0,1.1-.2,2.2-.4,3.3.4,2.3,1.5,3.1,3.4,4.4.4.3.9.6,1.3.9.4.3.9.6,1.3.9,1.3.9,2.6,1.8,3.9,2.6.6.4,1.2.8,1.8,1.2,15.5,10.1,32.1,18.6,48.9,26.2,2.3,1,4.6,2.1,6.9,3.2q13.5,6.6,28.1,9.1c.5,0,1,0,1.5,0,7-.3,12.6-5.3,17.7-9.6,1.2-1,2.5-2,3.7-3,1.7-1.4,3.3-2.8,4.9-4.3,1.4-1.4,2.9-2.7,4.5-4,4-3.3,7.5-6.7,10.9-10.6,1.2-1.4,2.5-2.7,3.8-3.9,9-8.9,16.4-20.9,22.9-31.8.8-1.3,1.6-2.7,2.4-4,3.5-5.7,6.6-11.6,9.5-17.7.2-.5.4-.9.7-1.4.7-1.4,1.3-2.8,2-4.2.2-.4.4-.8.6-1.3,3.4-7.3,6.2-14.8,8.8-22.5.2-.5.3-1,.5-1.5,3.9-11.8,7.3-23.9,8.5-36.4l.6-1.3c.8-4.7.7-9.6.8-14.4,0-.6,0-1.3,0-1.9,0-.6,0-1.2,0-1.8q0-.8,0-1.6c-.3-1.7-.8-2.2-2.1-3.3-1.2-.8-2.4-1.5-3.6-2.3-.4-.2-.7-.4-1.1-.7-2-1.2-4-2.4-6-3.6-10.9-6.3-21.6-13.2-31.5-21-.5-.4-1-.8-1.5-1.2-1.4-1.1-2.8-2.2-4.3-3.3-.5-.4-1-.8-1.5-1.2-3.5-2.8-6.8-5.7-10.1-8.7-1.7-1.5-3.4-2.9-5.2-4.3-4.9-3.9-9.2-8.4-13.5-13-.7-.8-1.5-1.5-2.3-2.2h-1.3v-1.3c-1-1.1-2.1-2.2-3.2-3.2-.4-.4-.7-.8-1.1-1.2q-.8-.9-2.1-.8c-.2-.4-.3-.7-.5-1.1-1-1.7-2.1-2.7-3.6-4-2.2-1.9-4.2-3.8-6.2-5.8l-1.5-1.5c-1.1-1.1-2.3-2.3-3.4-3.4-3-3-6-6-9.2-8.7-1.5-1.3-2.9-2.6-4.4-3.9-7-6.3-14.4-12-21.9-17.7-.6-.5-1.2-1-1.9-1.4-18.2-13.6-39.4-24.2-60.8-32-1.2-.4-2.4-.9-3.6-1.3-5-1.8-10-3-15.2-4.1-.6-.1-1.3-.3-1.9-.4-7.3-1.5-14.3-1.6-21.8-1.7ZM631.6,323.2c-.6.3-1.2.6-1.8.9-10,5.4-18.8,15.6-23.2,26-.3.6-.5,1.2-.8,1.8-4,8.9-5.2,18.1-4.7,27.8,0,.5,0,1,0,1.5.2,3,.7,5.7,1.7,8.6h.6q0-.7.2-1.5c1.9-16.2,5.2-28.2,17.7-39.1,9.8-7.7,21.4-11.6,33.9-10.6,9.6,1.4,16.8,4.8,24.3,10.9.4.3.9.7,1.3,1,8.4,6.7,14.5,17.9,16,28.4.5,8.2,0,15.9-2.6,23.7-.4,4.3.1,8.6.6,12.8,0,.5.1,1.1.2,1.6,0,.5.1,1,.2,1.6,0,.5,0,.9.1,1.4q.2,1.3,1.5,2.4c10.5-9,16.7-18.4,20.5-32,.1-.5.3-.9.4-1.4,4-14.7.3-31-7-44-7.6-12.5-20.3-23.6-34.7-27.2-15.8-3.6-30.3-2.7-44.5,5.5ZM623.3,360.3c-1.6,2.1-3.1,4.2-4.5,6.4-.5.7-.9,1.4-1.4,2.1-4.4,8-5.3,17.8-3.1,26.6,3.2,10.1,8.7,19.6,18.2,24.8,8.4,4.1,16.6,5.6,25.7,3.7q.8-.2,1.5-.3c5.7-1.3,10.1-3.9,14.6-7.6.4-.4.9-.7,1.3-1.1,6.9-5.8,10.8-14.1,11.9-23.1.9-10.5-1.2-20.3-7.5-28.9-7.3-8.3-15.9-13.9-27.2-14.9-11.3-.4-22.1,3.9-29.7,12.3ZM995.8,434.2c-5.7,2.3-11.4,4.5-17.2,6.6-1.3.5-2.5.9-3.8,1.4-1.1.4-2.3.8-3.4,1.2-3.1,1.2-6.1,2.4-9,3.9.1.7.2,1.3.3,2,4.1,25.7,7,51.1,6.9,77.1q0,1.3,0,2.5c0,23.2-2.2,45.7-5.3,68.7,0,.7-.2,1.5-.3,2.2-1.1,8.2-2.2,16.3-4,24.4-.7,3.1-.9,6-.8,9.2,28.7,4.5,61.5-2.2,88.9-10.2,1.2-5,1.7-10.1,2.3-15.3.3-2.5.5-5.1.8-7.6,0-.5.1-1.1.2-1.6.8-7.2,1.7-14.4,2.6-21.6.1-1,.3-2,.4-3,0-.5.1-1,.2-1.5.4-3,.7-6,1-9,.5-4.8,1.1-9.4,2.3-14.1.1-.6.3-1.2.4-1.8,4-16.7,10.5-32.1,21.4-45.4,1.3-1.6,2.6-3.3,3.9-5.1,8.6-11,23.8-17.9,37.5-19.7,19.7-2,38.3,2.1,54.3,14.1.9.7,1.8,1.5,2.6,2.2.5.5,1,.9,1.6,1.4,1.6,1.4,3.2,2.9,4.8,4.4.4.4.9.8,1.4,1.3,4.9,4.7,8.7,10.2,11.8,16.2.7,1.3,1.4,2.6,2.2,3.9,1.4,2.4,2.5,4.9,3.6,7.4.2.4.4.9.6,1.4,2,4.6,3.6,9,4.2,14.1h1.3c3.6-14.6,4-31.1.5-45.8-.5-2.2-.9-4.4-1.3-6.7-1.7-8.5-4.9-16.7-8.8-24.3-.5-1.3-.9-2.5-1.3-3.8h-1.3c0-.4-.1-.9-.2-1.3-.6-2.4-1.8-4.2-3.1-6.2-.3-.4-.5-.8-.8-1.2-3.7-5.6-8-10.7-12.6-15.6q-.7-.7-1.4-1.5c-6.2-6.4-13.5-11.1-21-15.8-.5-.3-1-.7-1.6-1-14.1-9-33.4-14.4-50-14.4-.5,0-1,0-1.6,0-1.1,0-2.2,0-3.3,0-1.7,0-3.3,0-5,0-35-.1-68.9,15-100.8,28ZM611.8,414c-2.2,24.6-3.6,49.3-4.6,74,0,.6,0,1.3,0,1.9-.9,21.1-.3,42.1.1,63.2,0,3.3.1,6.6.2,9.9,0,3.9.2,7.9.3,11.8.1,6.7.3,13.4.4,20.1q.4,19.3,1,38.6c0,2,.1,4.1.2,6.1.3,8.4.9,16.8,1.8,25.2,3.1-.5,3.8-1.3,5.8-3.8,8.2-6.4,15.4-8.2,25.6-7.5,9.9,1.4,18.7,6.7,25.6,13.9,3.3-3.6,3.5-9.1,4.1-13.8.2-1.2.3-2.4.5-3.6q.1-.9.3-1.9c.4-3.1.9-6.2,1.4-9.4q2.8-18.7,5.1-37.5c.2-2.1.5-4.1.8-6.2,5.6-43.9,8.5-88.2,8.5-132.4,0-1.4,0-2.8,0-4.3,0-13.1-.5-26.2-1.4-39.3-2.3.5-3.5,1.3-5.3,2.9-2.7,2.2-5.5,4.1-8.5,6-.4.2-.8.5-1.2.7-10.2,6.1-22.8,6.6-34.1,3.8-6.6-1.8-12.4-4.9-17.4-9.5h-1.3c-.2-.6-.4-1.3-.6-1.9-1.1-1.1-2.1-2.1-3.2-3.2-.6-.7-1.2-1.4-1.8-2.1-.5-.6-.9-1.1-1.4-1.7h-.6ZM902.8,438.3c0,.6-.2,1.2-.2,1.8-1.3,10-2.6,20-4.9,29.9-.1.6-.3,1.3-.5,2-.9,3.7-2.1,7.3-3.4,10.9-.7,1.8-1.2,3.6-1.8,5.5-5.1,16.9-11.7,34.2-21.2,49.1-1.4,2.2-2.6,4.4-3.9,6.6-1.8,3.2-3.7,6.2-5.8,9.1-1.3,1.9-2.6,3.8-3.9,5.7-4.2,6.2-8.8,12-13.8,17.5-1.2,1.3-2.3,2.6-3.4,3.9-4.3,4.9-9,9.5-13.9,13.7-1.4,1.2-2.7,2.4-4.1,3.6-3.5,3.1-7,6-11,8.5q-.8.5-1.6,1.1v1.3c1.5.7,3,1.3,4.5,2,.4.2.8.4,1.2.5,7.8,3.4,15.7,6.4,23.8,9,.4.1.9.3,1.3.4,7.4,2.3,14.7,4.4,22.3,5.9.6.1,1.3.3,1.9.4,5.3,1.1,10.6,2,16,2.8.8.1,1.6.3,2.5.4,15,2.3,29.9,2.5,45,2.3.6,0,1.2,0,1.8,0,3.6,0,7.1-.3,10.6-.6,2.2-.2,4.4-.1,6.6,0q1.4,0,2.6-1.4.4-1.3.6-2.9.1-.9.3-1.8c.1-.7.2-1.3.3-2,.1-.7.2-1.4.3-2.1.3-2.2.7-4.4,1-6.5.3-2.2.7-4.3,1-6.5.2-1.3.4-2.7.6-4,.5-2.9,1-5.8,1.6-8.7.6-3.1,1-6.3,1.4-9.4q0-.9.2-1.8c.2-1.9.4-3.8.6-5.7,0-.7.1-1.3.2-2,1.2-11.4,2.1-22.7,2.6-34.1,0-1.4.1-2.7.2-4.1.5-12.1.6-24.1-.1-36.3q0-1,0-2c-.5-9.9-1.7-19.6-3.1-29.3q-.1-.9-.2-1.8-1.1-9.6-3.6-18.8c-1.9-1.3-2.8-1.5-5-1.8q-.9-.1-1.9-.3c-.7,0-1.4-.2-2.1-.3-11.1-1.7-22.1-4.1-32.9-7-.5-.1-.9-.3-1.4-.4-2-.6-3.5-1.1-5.3-2.3h-1.9ZM1090.3,504.9c-.8.9-1.5,1.7-2.3,2.6q-4.1,4.5-6,10.2h-1.3c-7.5,13.4-12,26.9-14.5,42-.2,1.5-.5,3-.8,4.5-2.5,13.7-4,27.6-5.6,41.4-.2,1.4-.3,2.8-.5,4.2-2.1,16.8-3.1,33.7-4.2,50.5,0,.5,0,1.1-.1,1.6-.6,9.7-.8,19.4-.9,29.2,0,.4,0,.9,0,1.3-.5,33.5.5,66.8,3.3,100.1q0,1.2.2,2.4c.8,9.1,1.6,18.2,2.7,27.3.5,4.5,1,9,1.3,13.5.4,4.5.8,8.9,1.5,13.3.4,2.7.7,5.5,1,8.3.8,7.4,1.8,14.7,3,22.1.6,3.9,1.3,7.8,1.9,11.8q.1.9.3,1.9.8,5.1,1.2,7.6c1,6.6,2,13.1,3.2,19.6q.1.8.3,1.6c1,5.5,3.1,10.5,6.8,14.8,7.6,2.5,20.3-5.4,27-8.7,1.7-.9,3.3-1.9,5-2.8.8-.4,1.6-.9,2.4-1.3,9.4-5.1,18.6-10.9,26-18.7q1.1-1,2.6-2.2c12.6-10.4,14.6-26.8,18-41.8.6-2.7,1.2-5.4,1.9-8.1.1-.6.3-1.1.4-1.7,3.8-16.6,7.7-33.2,11.7-49.8q2.7-11,5.1-22c.4-2,.9-4.1,1.4-6.1.7-2.9,1.3-5.8,1.8-8.7.2-.9.3-1.8.5-2.7,0-.5.2-1,.3-1.5.4-2.3.8-4.5,1.3-6.8,2.7-14.2,5.4-28.5,7.7-42.8.3-1.7.6-3.4.9-5.1,1.2-6.8,1.9-13.7,2.6-20.6.4-4.4.9-8.8,1.5-13.2,4.3-33.8,6.5-68.4,4.3-102.5q0-.9,0-1.8c-.5-9.3-2.5-18-5-27q-.2-.8-.5-1.7c-1-3.5-2.3-6.6-3.9-9.9-.2-.4-.5-.9-.7-1.3-.6-1.3-1.3-2.5-2-3.7-.3-.6-.6-1.2-.9-1.8-1.5-2.8-3.2-5.3-5.1-7.9-1-1.3-1.9-2.6-2.9-3.9-3.6-4.8-8.1-8.4-12.8-12.1q-.8-.6-1.5-1.3c-3.2-2.4-7-4-10.6-5.7-.5-.3-1.1-.5-1.6-.8-21.7-9-49.8-4.5-64.9,14.2ZM691.1,572c0,.7-.1,1.4-.2,2.2-.2,2.7-.4,5.4-.6,8.1,0,1.2-.2,2.3-.3,3.5q-.8,11.2-1.9,16.6c-.6,3.5-.9,7-1.2,10.6-.8,8.1-1.6,16.2-3.3,24.2-.4,2-.3,3.9-.3,5.9q.8.4,1.7.7c2.4,1.3,4.3,2.9,6.4,4.7q3.2,2.8,6.6,5.4c2-5.1,2.7-10.4,3.5-15.8,0-.5.1-1,.2-1.5,1.2-8.9,2.2-17.8,3.1-26.7.6-6.1,1.3-12.2,2.3-18.3q.8-5,.6-10-1.1-1.5-2.7-2.3c-.6-.4-1.2-.7-1.8-1.1-.6-.4-1.3-.7-1.9-1.1-.7-.4-1.3-.8-2-1.2q-3.9-2.4-8.2-3.9ZM716.7,588c0,.7-.2,1.4-.2,2.1-.9,7.8-1.8,15.7-2.7,23.5-.2,1.8-.4,3.6-.6,5.4q-2.5,21.3-4.4,31.6c-.1.7-.2,1.3-.4,2-.7,3.7-1.6,8.1-4.4,10.8,0,2,0,4,0,6q0,3.3-.8,4.9c-1.3,2.8.3,7,.8,10.1.2,1.2.4,2.5.6,3.7.2,1.3.4,2.5.7,3.8,1.8,10.7,1.9,21.2,1.9,32.1q0,1.1,0,2.2c0,12.8-.4,25.4-2,38.2-.8,6.1-1.3,12.3-1.7,18.5-.4,5.4-.9,10.7-1.8,16-.6,4.2-1,8.4-1.4,12.7-.8,8.2-1.7,16.5-2.8,24.7-.5,3.5-.9,6.9-1,10.4-.2,1.6-.4,3-.8,4.5-1,4.8-1.4,9.6-2,14.5-.2,1.9-.4,3.8-.6,5.7,0,.5-.1.9-.2,1.4-.4,3.2-.9,6.4-1.7,9.6,0,.4,0,.8-.1,1.3,1.9,1.9,4.2,1.5,6.8,1.5.6,0,1.1,0,1.7,0,1.9,0,3.9,0,5.8,0,1.4,0,2.8,0,4.1,0,3.8,0,7.5,0,11.3,0,3.2,0,6.3,0,9.5,0,30.6.2,61.2.3,91.9.3,5.1,0,10.3,0,15.4,0,.7,0,1.5,0,2.3,0,1.5,0,3,0,4.6,0,14,0,28,0,42,0,12,0,24,0,35.9,0,14.1,0,28.1,0,42.2,0,1.5,0,3,0,4.5,0,.7,0,1.5,0,2.2,0,5.2,0,10.3,0,15.5,0,6.2,0,12.5,0,18.7,0,3.2,0,6.4,0,9.5,0,2.9,0,5.8,0,8.7,0,1.1,0,2.1,0,3.2,0,1.4,0,2.8,0,4.3,0,.8,0,1.6,0,2.4,0q1.7.1,2.4-.7c-.1-5.3-1-10.6-1.8-15.9-1.1-7.5-1.9-14.9-2.6-22.4-.4-4.6-.9-9.1-1.4-13.7-.4-3.6-.8-7.1-1.2-10.7,0-.5-.1-1.1-.2-1.6-.2-2.2-.4-4.4-.7-6.6-.2-1.6-.3-3.3-.5-4.9q0-.7-.1-1.5c-.2-1.8-.4-3.6-.7-5.4-.4-1.9-.5-3.7-.7-5.6,0-.8-.1-1.5-.2-2.3,0-.8-.1-1.7-.2-2.5,0-.9-.1-1.7-.2-2.6-.1-1.8-.3-3.7-.4-5.5-.2-2.3-.4-4.6-.5-7-.1-1.8-.3-3.6-.4-5.4,0-1.3-.2-2.5-.3-3.8-1.7-22-1.9-43.9-1.9-65.9,0-3.8,0-7.5,0-11.3,0-3,0-5.9,0-8.9,0-1.4,0-2.8,0-4.2,0-7.4,0-14.7.6-22.1.2-3.3.2-6.5.2-9.8q0-.9,0-1.8c0-1.4,0-2.8,0-4.2-5.9.5-11.8,1.4-17.7,2.3-9.7,1.4-19.4,1.7-29.2,1.7-.5,0-1,0-1.5,0-5.7,0-11.4,0-17.1-.6-.5,0-.9,0-1.4-.1-2-.2-3.4-.6-5.1-1.6-2.2-1.2-4.1-1.2-6.5-1.1-.5,0-1,0-1.4,0-3.3,0-6.6.3-9.9.5-19.3,1.2-38.6-.1-57.7-3.2-2.1-.3-4.1-.6-6.2-1-12.1-1.9-23.4-5.1-35-8.9q-.7-.2-1.5-.5c-8.5-2.8-16.9-5.8-24.6-10.5q-4-2.4-8.4-3.2-1.7.5-3.4,1.2c-1.9.8-3.5,1-5.5,1.2-.6,0-1.1,0-1.7.1-5.4,0-10.2-.7-15.3-2.5q-.8-.3-1.7-.6c-10-3.5-19.6-8-29-12.8-4.4-2.2-8.8-4.3-13.2-6.4q-5.5-2.6-8.1-4.2-1.9-1.3-4.5-1ZM1040.4,634.7c-.5.1-.9.2-1.4.4-1.2.3-2.5.6-3.7,1-.9.2-1.7.4-2.6.6-.2,2.8-.3,5.6-.5,8.3,0,.9-.1,1.9-.2,2.8-.2,3.5-.4,7.1-.6,10.6,0,.6,0,1.2,0,1.8-.7,14.3-.7,28.6-.7,43,0,.6,0,1.3,0,1.9,0,4.4,0,8.9,0,13.3,0,.6,0,1.2,0,1.8,0,6.5,0,13,.2,19.5,0,.6,0,1.2,0,1.8.5,19.4,2.7,38.9,4.4,58.2,0,1.1.2,2.1.3,3.2.5,5.8,1.1,11.6,1.9,17.3.5,3.8.9,7.6,1.3,11.3.6,5.5,1.1,11,1.8,16.5.3,2.5.6,5,.8,7.4q1.4,26,10.6,49.1c2.7,1.3,5.3,1.2,8.2.9.4-.2.8-.4,1.3-.6.2-4.8-.6-9.2-1.4-13.9-.3-1.8-.6-3.6-.9-5.4,0-.5-.2-.9-.2-1.4-5.7-35.1-9.5-70.8-11.4-106.3q-.1-1.6-.5-3.5c-7.2-44.1-4.3-96.6,1-140.8-2.7,0-5.1.6-7.7,1.2ZM681.5,653.3c0,.4-.1.8-.2,1.2-1.2,7.3-2.5,14.3-4.9,21.2-.4,1.2-.8,2.5-1.1,3.7q-.2.8-.5,1.6c-.1.4-.2.7-.3,1.1q.7.8,2.4.8c5.7-.1,10.4-1.5,14.5-5.5,1.8-2,2.5-3.6,2.9-6.2,0-.4.1-.8.2-1.3.3-3.7-.6-5.9-2.8-8.8-2.9-3.4-5.9-6.3-10.2-7.8ZM621.6,668.5c-3.1,3.9-4.8,8-5.4,13,.8,5.9,2.8,10.6,7.5,14.4,8.1,5.4,18.2,6.9,27.7,5.2,5.3-1.3,9.2-3.4,12.1-8.1q.4-.5.7-1.1c1.5-4.1,1.4-10.1-.1-14.1-.9-1.5-1.9-2.7-3.2-3.9-.4-.5-.9-.9-1.3-1.4-6.2-5.9-13.8-9.6-22.4-9.8-5.9.2-11.5,1.4-15.7,5.9ZM691.1,688.6c-4.6,2-9.2,2.6-14.2,3.3q-2.3.1-3.1,1c-.3,3.7.2,7,.9,10.6,2.9,14.6,3.1,29.3,3.1,44.1,0,.7,0,1.5,0,2.3,0,12.6-.4,25.2-1.4,37.8,0,.6,0,1.1-.1,1.7-1.2,15.7-2.7,31.3-4.5,46.9-.5,4.2-.9,8.5-1.4,12.7-.6,5.7-1.2,11.4-1.8,17.1,0,.7-.1,1.3-.2,2-.4,3.3-.7,6.5-1.1,9.8-.7,6.4-1.4,12.8-1.7,19.3,1.5.5,3,1.1,4.6,1.6q.6.2,1.3.5c2.6.9,4.8,1.3,7.6,1.1,2.1-6.4,2.9-13.1,3.8-19.8.2-1.2.3-2.4.5-3.6.3-2.4.7-4.8,1-7.2.4-2.9.8-5.7,1.2-8.6,1.2-8.5,2.3-17.1,3.2-25.6.4-3.7.8-7.5,1.3-11.2,1.7-14.1,3.2-28.3,4.6-42.4.3-3.1.6-6.2,1-9.3,3.1-28.4,3.3-56.2.7-84.6-2.4-.8-2.9-.3-5.1.8ZM609.9,698c-1.8,5.8-3.1,11.6-4,17.6-.2,1.2-.4,2.5-.6,3.7-2.1,13.3-2.6,26.4-2.6,39.8,0,.8,0,1.6,0,2.4,0,10.5.2,20.8,1.2,31.2.3,3,.6,6,.8,9,.9,9.7,1.7,19.4,2.7,29.1,1.8,17.4,2.7,34.9,3.7,52.3q0,.7,0,1.5c.1,2.5.3,5,.4,7.6q0,.8,0,1.5c0,1,.1,2,.2,3,.6,11.9,1.3,23.8,2.3,35.7,0,.5,0,1,.1,1.4q.3,5.2,1.4,10.2c5.2,1.3,10.3,2.3,15.6,3.2,5.8,1,11.4,2.2,17,3.9,1.5-2.3,1.6-3.6,1.9-6.3,0-.5.1-.9.2-1.4.2-1.6.4-3.2.5-4.7.1-1.1.3-2.3.4-3.4.3-2.6.6-5.2.9-7.8.5-4.4,1-8.9,1.6-13.3,3.7-30.8,7.1-61.7,10.3-92.6,0-.5,0-.9.1-1.4.6-5.5,1.1-11,1.7-16.5.1-1.4.3-2.8.4-4.1.9-8.4,1.4-16.7,1.8-25.1,0-.6,0-1.2,0-1.9q2-34-2.1-67.7c-2.4.7-4.7,1.6-7,2.6-11.4,4.6-23.2,3.9-34.6-.7-4.2-1.9-7.8-4.7-11.3-7.6q-1.5-1.5-3.5-1.3ZM1437.7,821.8c-1.2.9-2.4,1.8-3.7,2.7-1.6,1.1-3.2,2.3-4.7,3.4.8,1.7,1.5,1.7,3.2,2.4,6.2,2.7,9.7,7.5,13.4,13,2.3-.4,3.5-1.3,5.2-2.9,2.6-2.4,5.3-4.5,8.2-6.5,1.9-1.3,3.7-2.7,5.6-4.1,1.6-1.2,3.3-2.4,4.9-3.6.8-.6,1.7-1.2,2.5-1.9,2.3-1.7,4.8-3,7.3-4.2.6-.3,1.1-.5,1.7-.8,2.5-1.2,4.9-2.3,7.4-3.4-.6-4.6-2.7-7.3-6.1-10.5-14.1-9.2-34.3,8.7-45,16.5ZM1458.1,846.5v1.3q.7.3,1.5.6c8.6,3.9,13.9,10.1,17.7,18.6,3.1,8.8,2.6,17.5-.6,26.2-1.9,4-4.2,7.5-7,10.9.9,3,2.6,4.6,4.9,6.6.3.3.7.6,1,.9,1,.9,2,1.8,3,2.7.5.4.9.8,1.4,1.2.8.7,1.6,1.4,2.4,2.1,3.9,3.4,7.8,6.9,11.4,10.6,1.2,1.1,2.4,2.2,3.6,3.3,3.4,3,6.7,6.2,9.9,9.4,1.1,1.1,2.1,2.1,3.2,3.1,5,4.9,9.6,9.9,12.1,16.5.2.6.5,1.2.8,1.9,1.8,5.2,1.6,9.4-.6,14.4-1.7,3.4-4.2,5.5-7.1,7.9-3.3,3-7.1,6.7-8.1,11.2q.2,1.7,2,2.9c4.3,2.4,10.3,1.8,15.1.5,9.7-3.4,16.4-8.9,21.8-17.6.7-1.2,1.5-2.3,2.2-3.5.4-.6.7-1.1,1.1-1.7,1.3-1.9,2.7-3.8,4.1-5.6,1.1-1.5,2-3,3-4.6.3-.5.6-1.1,1-1.6,2.6-4.5,2.1-11.2.8-16.2-.7-2.6-1.7-5.2-2.6-7.8-.3-.9-.6-1.8-1-2.8-2.3-6.6-5-13-8-19.3-.9-2.1-1.8-4.2-2.6-6.3-.7-1.8-1.6-3.6-2.5-5.3-1.7-3.4-3.2-6.7-4.5-10.2-.2-.4-.3-.8-.5-1.2-3.3-8.6-5.4-17.4-7.3-26.4q-4-26-17.8-46.6c-17.9-5.5-41.4,11.9-53.8,23.7ZM1415.9,836.2c.2.5.3.9.5,1.4.2.6.5,1.2.7,1.9.2.6.4,1.2.7,1.8.7,1.9,1.3,3.8,2,5.8q7.4-.4,14.7-1.3c-.2-2.3-.3-3.5-2-5.1-5.8-3.8-9.7-4.6-16.6-4.4ZM1387.3,837.4c-27,3.5-54.2,6.4-81.3,3.7-35.8-3.5-72.8-2.1-107.6,7.2-.7.2-1.5.4-2.2.6-4.6,1.2-9.2,2.5-13.7,3.9-.7.2-1.4.4-2.1.6-.7.2-1.4.4-2.1.6-.6.2-1.2.4-1.9.6-2,.9-2.9,1.5-4.2,3.3-.7,1.8-1.1,3.7-1.5,5.5-.1.5-.2,1.1-.4,1.6-.4,1.7-.8,3.4-1.1,5.2-.3,1.2-.5,2.3-.8,3.5-1,4.5-2,9-2.6,13.6,2.9-.4,5.3-1.5,7.8-2.9.9-.5,1.8-.9,2.8-1.4.5-.2,1-.5,1.5-.7,9.2-4.6,18.4-8.8,28.1-12.2,2.2-.8,4.3-1.6,6.5-2.4,12.8-4.6,25.7-7.1,39.1-9.2.8-.1,1.5-.2,2.3-.4,3.7-.6,7.4-1.1,11.1-1.6.4,0,.8-.1,1.2-.2,12.3-1.5,24.8-1.2,37.1-1,32.4.3,63.9-.4,96-5.2,3.6-.5,7.2-.9,10.9-1.3-.7-5.5-2.5-8.9-6.4-12.8-5.5-.4-10.9.5-16.4,1.2ZM1443.4,854.8c.6,3.1,1.3,5.8,2.5,8.7,5,12.4,6,25.4,6.5,38.6,5.5-.6,9.2-2.3,12.7-6.6,3.8-5.3,6.1-12.3,5.2-19-2-8.4-6.2-14.7-13.5-19.4-4.2-2.2-8.7-2.2-13.4-2.3ZM1418.1,856.8c-.6,0-1.3.2-1.9.2-2,.3-4,.5-6,.8-1.3.2-2.6.3-3.9.5-5.6.7-11.2,1.5-16.7,2.3-7.1,1-14.2,1.8-21.4,2.5-1.1.1-2.2.2-3.3.3-3,.3-6.1.6-9.1.9-.6,0-1.1.1-1.7.2-4.4.4-8.7.6-13.1.5-.7,0-1.3,0-2,0-1.4,0-2.9,0-4.3,0-2.3,0-4.6,0-6.9,0-6.5,0-13,0-19.5,0-4,0-8,0-12,0-1.5,0-3,0-4.5,0-13.4,0-26.7.4-39.9,2.8-.8.1-1.5.3-2.3.4-14.3,2.6-28,6.8-41.7,11.6-.8.3-1.5.5-2.3.8-4.1,1.5-8.2,3-12.1,4.9q-1,.5-2,1c-2,.9-3.9,1.8-5.9,2.8-.8.4-1.6.8-2.4,1.1-5.8,2.7-11.2,5.7-16.6,9.2.1.3.3.7.4,1.1,7.1,20.2,3.2,43.6-5.7,62.6q-7.7,15.8-11.3,17.6v1.3c23.7-2.2,48.6-8.7,71.5-15.6,3.2-.9,6.4-1.7,9.6-2.6,2.1-.5,4.2-1.1,6.3-1.7,2.4-.7,4.9-1.3,7.3-1.8,4.3-1,8.7-2.1,13-3.3,3.3-.9,6.5-1.7,9.8-2.5,3.7-.9,7.5-1.9,11.2-2.9,2-.5,4-1.1,6-1.6.8-.2,1.5-.4,2.3-.6,6.1-1.6,12.2-3.3,18.4-4.9,9.8-2.6,19.6-5.2,29.4-8,5.9-1.7,11.7-3.3,17.6-4.9,7.1-1.9,14.2-3.8,21.3-6,3.1-.9,6.1-1.8,9.3-2.5,1.3-.3,2.6-.6,3.9-1,.9-.2,1.7-.4,2.6-.6,1.9-.5,3.7-1,5.6-1.6,3.3-1.1,6.7-2,10.1-2.9.7-.2,1.4-.4,2.2-.6,3.9-1.1,7.8-1.9,11.9-2.6,1.9-.4,3.6-.9,5.3-1.6,1.3-.3,2.6-.6,3.9-.9q1.1-.2,2.2-.5,1.1-.3,2.3-.5c1.6-.4,3.1-.7,4.7-1.1,1.2-.3,2.4-.6,3.6-.8,1.5-4.1,1.5-8,1.5-12.4,0-.7,0-1.5,0-2.2,0-6-.7-11.6-2.1-17.3-.1-.5-.2-.9-.3-1.4q-2.5-10.6-8.6-19.1c-4.3-.7-8.9.2-13.1.8ZM689.8,893.2c-.5,2.3-1,4.7-1.5,7-.1.7-.3,1.3-.4,2-.8,3.5-1.5,7.1-2.2,10.7-1.4,6.6-4.4,11.9-9.8,16-2.1,1.7-4.1,3.3-5.9,5.3-2.3,2.4-4.8,4.2-7.6,6.1q-2,1.4-3,3.6-.1.9-.3,1.7c-.1.6-.2,1.3-.3,1.9-.1.7-.2,1.4-.3,2.1-.2,1.4-.5,2.8-.7,4.2q-.2,1-.3,2.1c-1.9,11.9-4.9,19.7-14.4,27.5-1.3,1.2-2.4,2.3-3.3,3.8-4.8,8-13.1,12.2-21.8,14.7-8.6,2.1-17.1,2.8-25.9,2.8-.5,0-1,0-1.5,0-8.4,0-16.8-.5-25.2-1.4-7.9-.8-15.6-1.3-23.4.4-.6.1-1.1.2-1.7.3-1.3.2-2.6.5-3.8.8-4.2.8-8.4,1.6-12.6,2.4-.4,0-.9.2-1.3.3-6.5,1.2-13,2.3-19.6,2.9-.8,0-1.7.2-2.5.3-8.4.8-17.3.5-25-3.5-.5-.2-.9-.5-1.4-.7-4-2.2-6.3-5.3-8.4-9.3-.8-3.2-.7-5.8.9-8.6v-1.9h1.3c.3-.4.7-.7,1-1.1,2.1-2,4.4-3.2,7-4.6.5-.3,1.1-.6,1.6-.8,5.1-2.6,10.3-4.6,15.7-6.4,1.4-.5,2.9-1,4.3-1.5,5.2-1.8,10.4-3.6,15.6-5.3,1.6-.5,3.2-1.1,4.8-1.7,2.4-.9,4.8-1.6,7.2-2.3,1.7-.5,3.4-1.2,5.1-1.8,2.6-.9,5.3-1.7,8-2.6,2.2-.7,4.3-1.4,6.4-2.2,12.6-4.8,26.4-6.5,39.7-8-.2-.4-.4-.8-.6-1.3-.8-.1-1.5-.3-2.3-.4-3.5-.7-6.3-2.4-9.4-4.2-5.8-3.4-12.6-1.5-19-.8q-28.6,3.1-38.5-3.5c-2.8-2.5-4.6-5.4-5.8-9,0-3.2,1.1-5.2,3.2-7.7,8.7-5.4,20.1-8.2,29.9-11.1,5.4-1.6,10.7-3.6,15.9-5.6,4-1.5,8-2.7,12-3.8,6.1-1.7,12.2-3.7,18.3-5.8v-1.9c-4.6,0-9.2,0-13.8.2-10.4.4-20.7.5-31.1.4-1.3,0-2.5,0-3.8,0-13.1,0-26.1,0-39.2-.1-9.6,0-19.3,0-28.9,0-.5,0-.9,0-1.4,0-4.7,0-9.5,0-14.2,0-2.4,0-4.8,0-7.2,0-.5,0-.9,0-1.4,0-7.8,0-15.6,0-23.3,0-8.1,0-16.1,0-24.2,0-4.9,0-9.9,0-14.8,0-3.8,0-7.5,0-11.3,0-1.5,0-3.1,0-4.6,0q-7.4-.5-14.1,1.9c-2,2.2-3,4.7-4,7.5-.5.9-1,1.7-1.6,2.6-.2.4-.5.7-.7,1.1-.2.4-.5.7-.7,1.1-.3.4-.5.8-.8,1.3-2.7,4.3-5.5,8.6-8.2,12.9-2.5,4-5,7.9-7.5,11.9q-6.8,10.8-9.7,15.3c-2.8,4.3-5.6,8.7-8.3,13.1-3.3,5.5-6.7,11-10.2,16.4-2.7,4.2-5.4,8.5-8,12.8-2.2,3.6-4.5,7.2-6.9,10.8-2.3,3.5-4.4,7-6.5,10.7-2.5,4.3-5.3,8.5-8,12.7-1.4,2.2-2.8,4.5-4.2,6.7-2.6,4.1-5.2,8.3-7.9,12.3q-.4.6-.8,1.3c-.2.4-.5.8-.7,1.1-.7,1.2-1.3,2.4-2,3.7,64.2.5,128.3.7,192.5.7q1.2,0,2.5,0c21.3,0,42.7,0,64,0,13.5,0,26.9,0,40.4,0,1,0,1.9,0,2.9,0,3.8,0,7.7,0,11.5,0,10.7,0,21.4,0,32.1,0h1.5c15.4,0,30.7,0,46.1,0,.5,0,1,0,1.5,0,8,0,16,0,24.1,0,31.7,0,63.4,0,95.2,0,8,0,16,0,24,0,.5,0,1,0,1.5,0,15.3,0,30.7,0,46,0q.7,0,1.5,0c10.7,0,21.4,0,32.1,0,3.8,0,7.7,0,11.5,0,1,0,1.9,0,2.9,0,13.4,0,26.9,0,40.3,0,21.8,0,43.5,0,65.3,0q1.3,0,2.5,0c53.5,0,107.1-.2,160.6-.5,6.1,0,12.3,0,18.4,0q1,0,2,0c28.4-.1,56.8-.2,85.2-.3q.8,0,1.7,0c13.5,0,26.9,0,40.4,0,8.8,0,17.7,0,26.5,0q.9,0,1.8,0c3.1,0,6.2,0,9.2,0,21.3,0,42.6,0,63.9,0,20.6,0,41.2,0,61.7,0,.6,0,1.3,0,2,0,6.5,0,13,0,19.4,0,13.2,0,26.3,0,39.5,0q.9,0,1.8,0c39.7,0,79.5-.1,119.2-.2-1.1-2.8-2.5-5.3-4.1-7.8-.3-.4-.6-.9-.9-1.4-2.3-3.6-4.6-7.2-6.9-10.8-5.8-9-11.6-18.1-17.2-27.2-4-6.6-8.1-13.1-12.3-19.5-2.6-4-5.1-8-7.5-12.1-1.4-2.3-2.8-4.6-4.3-6.9-5.6-8.6-11-17.4-16.4-26.1-5.4-8.7-10.8-17.3-16.5-25.8-2.9-4.3-5.5-8.7-8.1-13.1q-.5-.8-.9-1.6-.4-.7-.8-1.4-.7-1.2-2-2.4-2.2,0-4.6.2c-.8,0-1.6.1-2.5.2-.6,0-1.3.1-1.9.2.9,2,1.8,4,2.7,6,.2.6.5,1.1.8,1.7.2.6.5,1.1.8,1.7.3.6.5,1.2.8,1.7.5,1.1,1,2.3,1.6,3.4q19.5,42.3,14.1,58c-1.9,4.9-4.9,9.9-8.8,13.5-1.4,1.5-2.2,3.3-3.2,5.1-6.4,11.5-15.2,18.5-27.9,22.3-6.9,1.7-15.2,2.6-21.7-.6-3.5-2.3-5.2-4.7-6.1-8.8-.5-3.3,0-5.6,1-8.7,0-1.1,0-2.1,0-3.2-.6.2-1.1.4-1.7.6-7,2.2-13.9,3.3-20.8,0-2.9-1.7-4.6-3.3-6.3-6.4-.9-5.9-.2-11.1,3.2-16q1.5-1.6,2.6-2.6v-1.3l1.9-.6c1.6-1.6,3-3.4,4.5-5.1.3-.3.6-.7,1-1.1,2-2.2,2.7-3.7,2.9-6.6q-.8-1.9-2.2-3.6c-.5-.7-.9-1.3-1.4-2-3.8-5.1-7.8-9.8-12.4-14.2-1.7-1.7-3.4-3.4-5.1-5.2q-5.6-6.1-12.1-10.8c-2.7.2-4.9,2-7.1,3.5-5.3,2.8-11.3,3.9-17.1,5.2-8.8,2.1-17.5,4.3-26.2,6.6-4.2,1.1-8.5,2.3-12.7,3.3-10.6,2.7-21.1,5.5-31.5,8.9-3.6,1.2-7.3,2.2-11,3.2-1,.3-2,.5-2.9.8-2.9.8-5.9,1.6-8.8,2.3-1.9.5-3.9,1-5.8,1.5-5.7,1.5-11.3,3-17,4.5-7.3,1.9-14.6,3.9-21.8,6-4.9,1.4-9.9,2.7-14.9,4.1q-7.6,2-15.1,4.1c-5,1.4-10.1,2.8-15.1,4.2-.9.3-1.8.5-2.7.8-6.4,1.8-12.9,3.4-19.4,5-1.6.4-3.2.8-4.8,1.2-17.7,4.4-35.4,8.5-53.3,11.8q-.7.1-1.3.2c-8.4,1.6-16.5,2.2-25.1,2.2-1.5,0-2.9,0-4.4,0-15.4,0-30.6-4.6-41.8-15.7-.6-.6-1.1-1.1-1.7-1.7q-.7-.7-1.5-1.5c-5.6-6-8.8-12.3-11.2-20-1.3-3.7-2.5-5.5-5.9-7.3-.4-.2-.8-.4-1.2-.6-4.2-2.7-7.5-5.4-10.5-9.3q-.5-.6-.9-1.2c-3.5-4.6-6.1-9-7.5-14.6-1.2-4-3.4-5.4-6.8-7.6-5.3-3.7-6.8-10.1-8.8-15.9-.4-1.1-.8-2.1-1.3-3.2-28.5,0-57,0-85.5,0-.4,0-.8,0-1.3,0-9.2,0-18.5,0-27.7,0-4.5,0-9.1,0-13.6,0q-.7,0-1.4,0c-14.5,0-29,0-43.5,0-15,0-29.9,0-44.9,0-8.8,0-17.6,0-26.4,0-34.4,0-68.8,0-103.2.7ZM596.5,902.5q-1.1.3-2.2.7c-.8.2-1.5.5-2.3.7-1.6.5-3.1.9-4.7,1.4-.8.2-1.5.5-2.3.7-3,.9-6.1,1.8-9.2,2.6-1.5.4-2.8.9-4.3,1.5-2.9,1.1-5.8,1.9-8.7,2.7-7.5,2.1-14.8,4.6-22.1,7.2-1.9.7-3.8,1.3-5.7,2-5.4,1.8-10.6,3.6-15.5,6.4v1.9c8.3,3.6,16.8,3.4,25.6,2.6.7,0,1.4-.1,2.1-.2,2.3-.2,4.6-.5,6.9-.7q1.1-.1,2.2-.2,8-.9,14.9-4.8c9.5-7.4,20-11.6,31.4-15.2.6-2.4.6-4.4.4-6.9q0-.9-.2-1.9c0-.5-.1-.9-.2-1.4-2.4,0-4,.3-6.3,1ZM1153,906c-.6.7-1.3,1.5-1.9,2.2-14.8,17.1-36.8,29.6-58.3,36.2-1.2.4-2.3.8-3.5,1.2q-1.1.4-2.3.8c3.6,8.7,7.5,15.4,14.1,22.4q.8.9,1.6,1.7c7.5,6.8,16.9,11.5,27.1,11.3,6-.6,10.1-4.2,14.1-8.5,13.6-16.5,18.3-39.4,16.7-60.3-.4-3.4-.8-6.5-2.4-9.5-2.6,0-3.2.8-5.1,2.6ZM664.2,907.9v10.2q3.2,2,6.8,2.3c3-2.1,4.8-4.6,6-8.1-3.1-2.7-8.6-6.6-12.8-4.5ZM1061.5,914.9v2.6c.4.2.8.4,1.3.6-.2-1.1-.4-2.1-.6-3.2h-.6ZM598.1,922.9c-.5.2-1.1.4-1.6.6-.6.2-1.1.5-1.7.7-.6.2-1.2.5-1.7.7-5.5,2.3-10.5,4.6-14.5,9.1,5,3.9,10.3,3.6,16.3,3.4,1,0,1.9,0,2.9,0q4.2.4,7.7-.9c0-2.2,0-4.5-.2-6.7,0-.6,0-1.3,0-1.9,0-.6,0-1.2,0-1.8,0-.6,0-1.1,0-1.7q0-1.5-1.5-2.6c-2.3,0-3.3.2-5.4,1ZM1496.5,943.1c-.2.6-.4,1.3-.6,1.9.2.4.4.8.6,1.3.6,5.6-1.1,9.6-4.5,13.9-1.5,1.7-3.1,3.3-4.8,4.9q-4.3,4.2-7.4,9.3c.2,1.8.4,2.9,1.5,4.3,2.5,1.8,5.2,1.6,8.1,1.4,1.8-.4,3.5-1,5.2-1.6.5-.2.9-.3,1.4-.5,6.1-2.3,13.5-5.8,17.3-11.3.5-1.6.6-2.8.4-4.5-3.5-6.3-9.2-11.3-14.3-16.3-1-1-2-1.9-2.9-2.9ZM620.1,955.9c2.3,6,6.4,10.2,10.9,14.7.4.4.7.8,1.1,1.2,1.9,1.8,3.9,1.7,6.3,1.7,2.7-.5,4.3-2,6-4.1,1.7-2.6,2.6-4.5,2.6-7.7-8.6-3.5-17.6-5.4-26.9-5.8ZM568.2,959.6q-.6.1-1.3.2-8.8,1.2-16.5,5c-.6,5.3.7,10.3,1.9,15.4.1.6.3,1.2.4,1.8.4,1.6.9,3.1,1.5,4.6.2.6.4,1.2.6,1.7.9,2,1.6,3.2,3.2,4.7,2.9,1,5.7,1.5,8.8,1.8,1.3.1,2.6.3,3.8.5,2.7.3,5.4.4,8.1.5q.8,0,1.5,0c1.6,0,3.2,0,4.9,0,.6,0,1.1,0,1.7,0q21,0,39.8-7.9c.6-.4,1.2-.8,1.8-1.3q1.6-1.3,1.3-3.8-.9-1-2.2-2c-4.8-4-8.4-8.9-11.7-14.2-.2-.4-.5-.8-.7-1.2-1-1.6-2-3.2-2.7-4.9-.7-1.5-1.1-2.4-2.4-3.4-3-.6-5.9-.7-9-.6-11,0-21.9,1.1-32.7,3.1ZM484.9,987.4c-.4.2-.9.4-1.3.6-3.1,1.4-5.9,3.1-8.7,5,.4,1.9.6,2.5,2,3.9,15.6,10.3,40.3,2.6,57.1-.8,3.6-.8,7.1-1.6,10.6-2.4-.5-5.3-1.4-10.5-2.3-15.7-.2-.9-.3-1.8-.5-2.7-.4-2.2-.7-4.4-1.1-6.5-16.3,0-41.2,12.3-55.8,18.8Z"/>
  <path d="M604.7,146.6c.6.3,1.3.5,2,.8,5.7,3.4,10,8.2,12.1,14.6.4,2.1.5,4.2.6,6.4,0,.5,0,1,.1,1.5.2,4.6-.9,8.8-2,13.2h-1.3c0,.7-.1,1.3-.2,2-.7,3.7-2.7,6.2-4.8,9.2-.4.6-.8,1.2-1.3,1.8-1.4,1.7-2.8,2.9-4.6,4.2-.4.6-.8,1.3-1.3,1.9h-1.3v1.3q-.9.8-2,1.6c-.4.3-.8.5-1.1.8-8.7,5.7-18.8,10.6-29.4,9.2-1.9-.9-2.2-1.3-3.2-3.2q0-2,.6-3.8c2.3-1.7,4.2-2.2,7.1-2.5,6.7-.9,12-2.9,17.6-6.7,1.3-.9,2.6-1.6,4.1-2.3v-1.3h1.9v-1.9q.9-1.1,1.9-1.9h1.3c.2-.5.3-.9.5-1.4q.8-1.8,2-3.1c2.1-2.9,2.9-6.2,3.9-9.6.3-.8.5-1.6.8-2.4,1.1-4.8.7-9.2-1.4-13.6q-1.3-1.5-2.6-2.6v-1.9c-.6-.2-1.1-.4-1.7-.6q-2.1-.7-3.6-1.4c-4.2-1.4-7-.6-11,1.1q-4.4,1.8-6.8,1.1t-2.4-1.5c.1-1.7.4-3.4.6-5.1.6-.2,1.3-.4,1.9-.6.3-.3.6-.6.9-.9,1.3-1.3,2.5-1.7,4.2-2.4.5-.2,1.1-.4,1.7-.6,5.7-2,10.8-1.6,16.3.7Z"/>
</svg>