<?xml version="1.0" encoding="UTF-8"?>
<svg id="Layer_1" xmlns="http://www.w3.org/2000/svg" version="1.1" viewBox="0 0 1920 1080">
  <!-- Generator: Adobe Illustrator 30.0.0, SVG Export Plug-In . SVG Version: 2.1.1 Build 123)  -->
  <path d="M349.4,39.5c.5.4,1,.7,1.5,1.1,2.8,2.2,5,4.6,7.1,7.4l1.9,1.9c7,7,13,14.5,18.5,22.8.3.5.6,1,1,1.4,15.3,23.3,25.5,52,27.2,80,.2,2.8.4,4.8,2.1,7.1,2.6,1.9,5.4,3.5,8.2,5.1.6.3,1.2.7,1.8,1,1.2.7,2.5,1.4,3.7,2,1.7.9,3.5,1.9,5.2,2.9q12.1,7.4,25.5,8.3,2.7-1.2,5.4-2.7c20.2-10.6,43.6-13.5,66-16q1.2-.1,2.4-.3c8.4-.8,16.9-.8,25.3-.8.8,0,1.6,0,2.5,0,15.5,0,30.8.9,46.2,2.8,1,.1,2.1.2,3.1.4,30.7,3.8,61.1,11.5,90.9,19.3,2.7.7,5.4,1.4,8,2.1,13.4,3.4,26.8,7.1,40.1,11.1,1,.3,2,.6,3,.9,17,5,33.7,10.5,50.3,16.7,1.6.6,3.1,1.2,4.7,1.7,2.7,1,5.5,2,8.2,3.1q1.1.4,2.3.8,12.3,4.8,14.5,9.5.7,1.7,2.3,2.3c.6.1,1.2.2,1.9.3.7.1,1.5.3,2.2.4.8.1,1.7.3,2.5.4.9.2,1.8.3,2.7.5,2.1.4,4.3.8,6.4,1.2,4.5.8,9,1.7,13.5,2.6q22.9,4.4,45.9,8c1,.1,2,.3,3,.4,9.9,1.3,19-.3,28.8-2.2,67.2-12.4,150.6-24.8,214.3,6.3,1,.5,1.9.9,2.9,1.4,19.1,9.8,35.6,24.2,48.9,41,.6.8,1.3,1.6,1.9,2.4,24.6,31.7,34.3,74.2,29.8,113.7-1.7,12.2-4.6,25.4-9.9,36.6-3.2,6.8-3.3,11.7-2.5,19.1.2,2.4.4,4.8.6,7.2,0,.7,0,1.3.1,2,1.2,17.4.6,35.1.4,52.5,0,.7,0,1.3,0,2-.7,77.7-16.8,155-38.2,254.5-.1.6-.3,1.2-.4,1.8-.8,3.8-1.7,7.7-2.5,11.5-.2,1-.4,1.9-.6,2.9q-.3,1.3-.6,2.6c-.2.8-.3,1.5-.5,2.3q-.5,1.8-1.3,3.5,1.2-.5,2.5-1c8.2-3.2,16.5-5.8,25-8,.6-.2,1.2-.3,1.9-.5,51.5-13.4,104.3-14,157-8.3,49.1,5.3,98.4,1.6,147.5-2.9,1,0,2-.2,3-.3,1.8-.2,3.7-.3,5.5-.5,5.5-.5,10.8-.6,16.3-.4q2.5,0,4.5-2c.4-.8.8-1.7,1.3-2.6.5-.9,1-1.8,1.6-2.8q.4-.7.8-1.5c1.7-2.7,3.8-5.1,5.9-7.5,2.1-2.5,4.2-4.9,6.1-7.6h1.7c.2-.5.4-1,.7-1.5,1.8-3.3,4.9-5.4,7.8-7.8.6-.5,1.3-1.1,1.9-1.7,10.4-8.7,23.2-16.6,37.2-16.2,9.3,1.5,17.4,9.9,22.9,17,1.6,2.2,3.1,4.4,4.6,6.6,1.5,2.1,3,4.2,4.7,6.2.8-.3,1.7-.6,2.5-.8,9.7-.8,15.6.9,23.3,6.7,15,12.8,24.6,31.8,32.7,49.4,3.2,6.9,6.5,13.5,10.1,20.2.4.7.8,1.5,1.2,2.2q2.1,3.8,4.6,7.4,1.1,1.6,1.1,3.3,1.1,0,2.2,0c17.5,0,34.9-.1,52.4-.2,8.5,0,16.9,0,25.4,0,7.4,0,14.7,0,22.1,0,3.9,0,7.8,0,11.7,0,3.7,0,7.3,0,11,0,1.3,0,2.7,0,4,0,1.8,0,3.7,0,5.5,0q1.5,0,3.1,0c4.5.7,6.9,3.6,9.7,6.9,2.9,3.4,6.1,6.6,9.4,9.7q1.5,1.6,1.5,3.3h1.7q1,1,2.3,2.6c3.7,4.4,7.7,8.3,11.8,12.3,2.4,2.4,4.7,4.7,6.9,7.3,2,2.4,4,4.5,6.2,6.7,1.4,1.4,2.8,2.7,4.1,4.1.7.7,1.4,1.3,2.1,2,1.8,1.8,3.4,3.7,5.1,5.6,3.3,3.8,6.8,7.3,10.4,10.8,3.5,3.4,6.9,6.8,10.1,10.6,3.5,4.1,7.3,7.8,11.1,11.5,4.4,4.3,8.6,8.6,12.7,13.3,2,2.3,4.2,4.5,6.5,6.6,2.8,2.7,5.5,5.4,8,8.4,3.3,3.9,6.9,7.4,10.5,10.9,2.6,2.5,5,5.1,7.3,7.8,3.2,3.8,6.7,7.2,10.3,10.7,4.1,4,8,8.1,11.8,12.4,2.4,2.7,5.1,5.2,7.7,7.8,1,1,2,2.1,3,3.1v1.7h1.7q1.2,1.2,2.6,2.9c2.3,2.7,4.6,5.2,7.2,7.7,2.3,2.3,4.5,4.5,6.6,7,3.2,3.8,6.8,7.2,10.4,10.7,2.6,2.5,4.9,4.9,6.4,8.2q-.5,2.7-1.7,5.1c-3,2-5.2,1.9-8.7,1.9-.6,0-1.3,0-1.9,0-2.1,0-4.3,0-6.4,0-1.6,0-3.1,0-4.7,0-4.3,0-8.6,0-12.9,0-4.7,0-9.4,0-14,0-8.3,0-16.5,0-24.8,0-12.4,0-24.7,0-37.1,0-21,0-42.1,0-63.1,0-21.3,0-42.7,0-64,0q-1,0-2,0c-6.2,0-12.3,0-18.5,0-15.5,0-30.9,0-46.4,0-.7,0-1.4,0-2.1,0-34.9,0-69.9,0-104.8,0h-2.3c-3.1,0-6.1,0-9.2,0-8.5,0-16.9,0-25.4,0-.8,0-1.5,0-2.3,0-34.6,0-69.3,0-103.9,0-4.6,0-9.3,0-13.9,0-.8,0-1.5,0-2.3,0-1.5,0-3.1,0-4.6,0-3.9,0-7.8,0-11.6,0-.8,0-1.5,0-2.3,0-3.9,0-7.8,0-11.7,0-36.3,0-72.5,0-108.8,0q-1.2,0-2.4,0c-50.4,0-100.7,0-151.1,0-2.5,0-5,0-7.4,0-18.2,0-36.5,0-54.7,0h-5c-1.7,0-3.3,0-5,0-.8,0-1.6,0-2.5,0-4.2,0-8.3,0-12.5,0-78.6,0-157.2,0-235.9,0-.8,0-1.7,0-2.5,0-25,0-50.1,0-75.1,0-27.4,0-54.7,0-82.1,0-.8,0-1.6,0-2.5,0-51.2,0-102.3,0-153.5,0h-2.4c-34.7,0-69.4,0-104.1,0-13.2,0-26.4,0-39.5,0-3.1,0-6.2,0-9.3,0-35.4,0-70.8,0-106.2,0-.8,0-1.5,0-2.3,0-12.3,0-24.6,0-36.9,0-34.9,0-69.8,0-104.7,0q-1.1,0-2.1,0c-15.4,0-30.9,0-46.3,0-6.2,0-12.3,0-18.5,0-.7,0-1.3,0-2,0-21.3,0-42.6,0-63.9,0-21,0-41.9,0-62.9,0-12.9,0-25.7,0-38.6,0-8.1,0-16.3,0-24.4,0-4.6,0-9.2,0-13.9,0-4.2,0-8.4,0-12.6,0-1.5,0-3,0-4.5,0-2,0-4.1,0-6.1,0-.6,0-1.2,0-1.8,0-2.5,0-4.2-.2-6.5-1.5q-1.4-1.4-2-4c.3-5.1,5-8.5,8.3-11.8.8-.8,1.6-1.6,2.4-2.4,1.6-1.6,3.2-3.2,4.8-4.8,2.3-2.4,4.5-4.9,6.7-7.4,2-2.3,4.2-4.4,6.4-6.5,1.6-1.6,3.1-3.3,4.6-5,4-4.7,8.5-8.9,12.9-13.3,3.6-3.5,6.9-7.1,10.2-10.9,2.2-2.5,4.6-4.8,6.9-7.1,2.9-2.9,5.8-5.7,8.4-8.8,3.5-4.1,7.4-7.8,11.2-11.6,3.2-3.1,6.2-6.3,9.1-9.7,2.5-2.8,5.2-5.4,7.9-8,2.3-2.3,4.5-4.6,6.7-7.1,4-4.6,8.4-8.9,12.8-13.1,3.5-3.5,6.9-7.1,10.1-10.8,3.2-3.6,6.6-6.8,10-10.2,3.3-3.3,6.5-6.7,9.5-10.2,2.5-2.8,5.2-5.4,7.9-8,3.8-3.7,7.4-7.5,10.8-11.5,2.7-3,5.5-5.7,8.4-8.5,4.3-4.3,8-8.7,11.3-13.8,5-6.9,10.5-12.6,19-14.4,11.7-1.8,23.8-1.3,35.6-1.1,5.5,0,10.9,0,16.4,0,9.4,0,18.9,0,28.3,0,9.9,0,19.8.1,29.7.1.6,0,1.2,0,1.9,0,3.1,0,6.3,0,9.4,0,22.1,0,44.3,0,66.4.2,21.5.1,43,.2,64.5.2.7,0,1.3,0,2,0,6.7,0,13.3,0,20,0,13.6,0,27.2,0,40.7,0,.6,0,1.2,0,1.9,0,41.6,0,83.3.3,124.9.5-.3-4.2-.7-8.4-1-12.6-.1-1.4-.2-2.8-.3-4.3-.8-9.9-1.7-19.7-2.7-29.6,0-.6-.1-1.3-.2-1.9-.5-4.9-1-9.7-1.5-14.6-2.5-23.8-4.8-47.6-4.7-71.5,0-.8,0-1.6,0-2.4,0-22.3,1-45.3,7.4-66.7.2-.6.3-1.1.5-1.7.9-2.7,1.8-4.6,3.5-6.9,2.3-4.1,2.1-7.8,2-12.4,0-.8,0-1.7,0-2.6,0-4.9-.7-8.5-2.9-12.9-3.2-7.4-4-15.8-4.8-23.8q-.2-1.6-.3-3.1c-1.5-15.7-2.4-31.5-3.4-47.3-.2-3.4-.4-6.8-.7-10.2-2.2-34.5-4-68.9-3.8-103.5,0-3.3,0-6.6,0-10,0-6.4,0-12.8,0-19.2-.5-.2-1-.5-1.6-.7-2.8-1.5-4.6-3.9-6.6-6.4q-.7-.8-1.4-1.6c-.9-1.1-1.8-2.2-2.8-3.3-1.2-1.5-2.5-3-3.8-4.4-5.6-6.6-11-13.3-16.3-20.1-.6-.8-1.3-1.6-1.9-2.4-5.5-7.2-10.5-14.7-15.6-22.2-.8-1.2-1.7-2.3-2.6-3.5q-1.2-1.6-1.9-3.7c-4.4-9.6-20.5-15-29.8-18.5-2.8-1-5.7-1.8-8.6-2.7-11.2-3.4-20.3-9.7-29.6-16.6-.1.6-.3,1.2-.4,1.8-5.1,21.5-13.2,46.4-32.3,59.4-7.9,4.6-15.9,6.4-25,4.5-10.5-3.1-18.8-10.2-27.3-16.9-1.7-1.4-3.5-2.7-5.2-4-7.4-5.7-14.5-11.5-21.5-17.6-2.6-2.3-5.2-4.4-7.9-6.6-3.6-2.9-6.9-6.1-10.2-9.5-1.6-1.6-3.3-3.1-5.1-4.6-3.4-2.9-6.3-6.1-9.3-9.4-2.6-2.9-5.3-5.7-8-8.4-3.5-3.5-6.8-7.1-10-10.8-.7-.8-1.4-1.6-2.1-2.5-12.6-14.6-23.7-30.2-33.5-46.8-.3-.5-.6-1-.9-1.5-8.3-14.1-13.9-30-16.9-46.1q-.3-1.4-.6-2.8c-5.6-31.1,2.1-64.4,19.9-90.4,1.7-2.4,3.5-4.8,5.3-7.1.4-.5.7-.9,1.1-1.4,21.5-27,51.2-48.1,85.7-54.4.6-.1,1.1-.2,1.7-.3,36.3-6.6,69.7,5,98.3,27.1ZM177.9,65.8c-14,15.7-23.1,33.4-28.9,53.5-.2.6-.3,1.1-.5,1.7-4.4,15.8-3.7,35.1.5,50.9.2.7.3,1.3.5,2,5.3,20.3,14.6,39.2,27.2,55.9,1.2,1.6,2.5,3.3,3.7,5,6.9,9.3,14,18.2,21.8,26.7,1.7,1.9,3.4,3.8,5,5.7,2.8,3.2,5.7,6.1,8.7,9.1,1.6,1.7,3.2,3.4,4.7,5.2,3.6,4.2,7.8,7.8,11.9,11.6,2,1.8,3.9,3.7,5.9,5.5,5.4,5.1,10.9,9.9,16.8,14.5.5.4.9.7,1.4,1.1,2.5,2,5,3.9,7.5,5.9,2,1.6,4.1,3.2,6.1,4.8q15.7,13.6,34.8,19.1c8.2-.9,14.8-6.6,20-12.6,18.5-23.4,28.2-65.7,28.1-95.2q0-1.5,0-3c0-6-.2-12-.9-18,0-2.8.7-4.8,1.7-7.4.3-.8.6-1.7.8-2.5h1.7v-1.7h1.7q1.1-1.1,2.3-2.6c4.7-5.5,9.9-10.5,15-15.5,1.3-1.3,2.6-2.6,3.8-3.8q1.9-1.8,3.9-3.4c2.5-2.1,4.5-4.4,6.6-6.9,2-2.2,4.1-4.1,6.4-5.9,4.6-7.7-.8-24.3-2.8-32.4-6.7-26-18-49.8-35.2-70.4-.6-.7-1.2-1.5-1.9-2.2-3.6-4.2-7.5-7.9-11.7-11.4-.4-.3-.8-.7-1.3-1-20.3-16.8-44.4-27.4-71.1-27.3q-1.4,0-2.8,0c-35.4.5-67.8,19.8-91.3,45.3ZM403,171.2c-3,3-6.1,6-9.1,9-1,1-2.1,2-3.1,3.1-1.5,1.5-3,2.9-4.4,4.4-.5.5-.9.9-1.4,1.4-1.1,1.1-2.2,2.3-3.2,3.4v1.7h-1.7v1.7c-.5.2-1,.4-1.5.6-2.2,1.2-3.6,2.6-5.4,4.3-.6.6-1.3,1.3-1.9,1.9-.7.7-1.3,1.3-2,2-.7.7-1.3,1.3-2,2q-3.3,3.2-5.9,6.9c0,1.7.2,3.5.3,5.2,0,1.1.2,2.2.2,3.3.2,2.2.4,4.5.6,6.7,1.1,13.5-1.1,26-4,39.2-.2.8-.4,1.7-.6,2.5-.2.7-.3,1.5-.5,2.2q-.5,2.2-.4,5.4,1.6,1.5,3.8,2.8c.8.5,1.6,1,2.4,1.5.8.5,1.7,1,2.6,1.6q1.2.8,2.5,1.6c7.6,4.7,15.1,8.5,23.8,10.6,11.4,3.1,21.2,8.5,30.4,15.9,2.4-2.4,2.3-4.8,2.7-8,.2-1.3.4-2.7.6-4,0-.7.2-1.4.3-2.2,4.7-33.8,10.8-67.7,18.9-100.8q.6-2.4.4-5.6c-.8-.4-1.7-.7-2.5-1.1-9.5-4.1-18.8-8.7-27.9-13.6-.9-.5-1.9-1-2.9-1.5-.8-.4-1.7-.9-2.5-1.4-2.2-1.1-4.3-2-6.6-2.9ZM465.8,185.3c-.6.2-1.3.5-1.9.7-3,1.2-5.3,2.1-7.3,4.6q-.7,1.8-1.2,3.9c-.2.8-.4,1.6-.6,2.4-.2.9-.4,1.8-.6,2.7-.2.9-.4,1.9-.7,2.9-.7,3.1-1.4,6.2-2.1,9.3-.2,1-.5,2-.7,3-4.9,21.7-8.7,43.6-12.4,65.6-.5,2.7-.9,5.5-1.4,8.2-.7,4.3-1.5,8.6-2.2,12.9-.3,1.6-.5,3.2-.8,4.8-.4,2.2-.7,4.4-1.1,6.6q-.2,1-.3,1.9c-.8,4.8-.7,8.2,2.1,12.2.4.6.8,1.1,1.2,1.7.4.6.9,1.2,1.3,1.8.4.6.9,1.3,1.4,1.9,3.9,5.4,8,10.7,12.1,15.9,2.7,3.4,5.3,6.8,7.8,10.3,3.5,5,7.5,9.5,11.5,14.1,1.2,1.4,2.3,2.8,3.5,4.2.6.7,1.3,1.5,1.9,2.2h.8c.4-4.2.7-8.4,1.1-12.6.1-1.4.2-2.9.4-4.3q2-12.5-.1-24.4c-.6-.6-1.1-1.1-1.7-1.7-14.4-16.3-18.6-38.7-17.7-59.8,1.2-15.1,7.7-28.3,16-40.7q1.3-1.9,2-4.4.7-.3,1.5-.7t3.6-3.2c10.4-13,28.3-19.7,44.2-22.5,4-.4,8-.4,12.1-.4q1.6,0,3.3,0c19,.3,36.5,7.2,50.9,19.9.3.6.6,1.1.8,1.7h1.7v1.7h1.7c.3.8.6,1.7.8,2.5h1.7c.2.6.5,1.3.7,1.9,1,2.3,2,3.7,3.7,5.5,7.2,9.1,11.1,20.4,13.5,31.6q.2,1.1.5,2.3c2.9,23.1-2,44.5-16,63.1q-4.9,6.1-7.2,8-3.2,2.7-4.9,6.5c0,2.1.2,4.2.5,6.3.1,1.8.3,3.7.4,5.5,0,1.1.1,2.1.2,3.2.4,7.6.3,15.2.3,22.7,0,1.7,0,3.5,0,5.2,0,4.4,0,8.9,0,13.3,0,4.6,0,9.2,0,13.7,0,8.9,0,17.9,0,26.8,5.4,2,10.7,3.9,16.2,5.5.6.2,1.2.4,1.8.5,6.8,1.9,13.7,3.5,20.6,5,.7.1,1.3.3,2,.4,32.9,7.2,66.8,11.2,100.5,12.2,1.7,0,3.4.1,5.1.2,6.2.2,12.4.3,18.6.4,2.1,0,4.2,0,6.2.1,2.9,0,5.9.1,8.8.1q1.3,0,2.7.1,4.7,0,8.4-2.5c1.3-2,2.4-3.9,3.5-6.1.6-.9,1.1-1.9,1.7-2.8,1.6-2.9,3.2-5.8,4.9-8.7.3-.5.6-1.1.9-1.6,5.7-10.4,10.9-20.9,15.5-31.9q.6-1.4,1.2-2.8c21.8-52.9,28.7-116.3,12.8-171.7q-.3-.9-.5-1.8c-1.2-3.9-2.3-6.9-6-9q-1.1-.4-2.2-.9c-.8-.3-1.7-.7-2.6-1.1-.9-.4-1.9-.7-2.8-1.1-1-.4-2-.8-3-1.2-35.9-14.2-73.1-25.1-110.6-34.3-3.5-.9-6.9-1.7-10.4-2.6-20.2-5.1-40.4-9.4-60.9-13.4-1.7-.3-3.4-.7-5-1-49.2-9.7-104.5-9-151.6,8.8ZM493.9,229.8c-.7.6-1.4,1.2-2.1,1.7-14.5,12.5-22.5,29.4-24.3,48.4-.9,15.7,2.4,32.1,11.9,45h.8c1.3-8.1,2.5-15.9,1.3-24.1-2.1-15.3,1-29.2,9.7-42.1q3.8-5,6-6.1v-1.7c.5-.2.9-.4,1.4-.7,2.2-1.2,4.2-2.5,6.3-3.9,4.3-2.8,8.6-4.9,13.5-6.5q.9-.3,1.7-.6c14.1-3.9,28.4-.4,40.9,6.3,4.5,2.6,8.1,5.8,11.7,9.6.5.5,1,1,1.5,1.4,10,10.5,12.7,25.3,12.3,39.2,0,2.2-.3,4.3-.7,6.5-.4,3.2-.3,6-.1,9.2,0,.6,0,1.1.1,1.7.5,6.7,1.3,13.4,2.2,20,4-3,6.5-5.9,9-10.2.3-.6.7-1.1,1-1.7,9.6-16.7,12.2-35.1,7.8-53.9-3.7-13-9.9-23.9-19.5-33.5-.6-.7-1.3-1.3-2-2-14.7-14.1-32.6-18.2-52.5-17.8-13.7.5-27.8,6.5-38.1,15.5ZM927.1,255.2c0,5.7.2,11.2.7,16.9,0,.8.1,1.6.2,2.4.2,2.5.5,4.9.7,7.4,6.2,63.6-.8,124.8-14,187.1-.5,2.2-.9,4.4-1.4,6.6-.8,3.9-1.6,7.7-2.4,11.6,26,7.7,52.4,12.1,79.3,14.3.7,0,1.4.1,2.2.2,2,.2,4.1.3,6.1.5.6,0,1.2,0,1.9.1,3.2.2,6,.2,9.1-.6,0-.5,0-.9.1-1.4q6.2-67.6,12.6-93.5c.3-1,.5-2.1.8-3.2,4.2-16,10.9-31.4,22.1-43.7.7-.8,1.4-1.6,2.1-2.4,17.7-18.8,42.8-27.7,68.2-28.5,27.4.6,50.7,12.2,69.6,31.6,17.4,18.7,26.9,46.5,30.8,71.5,1.9-1.9,2.1-2.8,2.7-5.3.2-.7.4-1.5.5-2.2,9-39.3,3.9-79-16.9-113.9-4.3-6.7-9-12.7-14.3-18.5q-1.8-1.9-3.6-4.3-.8-.9-1.6-1.9h-1.7q-.3-.8-.7-1.6-.9-2-3.6-2.6v-1.7c-1.8-1.5-3.5-3-5.4-4.4-.5-.4-1.1-.8-1.6-1.3-4.6-3.5-9.3-6.7-14.2-9.6-.9-.5-1.8-1.1-2.7-1.7-17.7-10.5-38.1-17-58.4-19.6q-1-.1-2-.3c-54-6.7-112.3,1.3-165.3,12.2ZM831.1,242.5c.1.6.3,1.3.4,1.9,3,12.9,5.5,25.6,6.4,38.9,0,.6,0,1.3.1,2,.3,4.4.6,8.9.7,13.3,0,.6,0,1.1,0,1.7,1.6,55.7-13.3,112.5-42.4,160q-2.1,3.4-2.7,7.3c22.7,6.4,45.3,11.2,68.8,13.6.7,0,1.4.2,2.1.2,7.5.8,15.1.9,22.6,1.1,1.4,0,2.8,0,4.2.1,3.4,0,6.7.2,10.1.3,3.6-13.8,6.7-27.7,9.4-41.7.2-1,.4-1.9.6-2.9,3.4-17.6,6.1-35.3,7.9-53.1,0-.7.1-1.3.2-2,3.5-33.3,3.5-66.6,0-99.9-.3-2.4-.5-4.9-.7-7.3-.6-6.4-1.3-12.7-2-19.1-.9-.1-1.8-.3-2.8-.4-3.8-.6-7.6-1.1-11.4-1.7-1.9-.3-3.9-.6-5.8-.9-19-2.8-37.8-6.3-56.5-10.3-.7-.2-1.5-.3-2.3-.5-.6-.1-1.3-.3-1.9-.4q-2-.4-5.1-.3ZM499.2,264.7c-7.4,10.4-9.9,23.1-7.9,35.6,2.8,12.1,9.5,21.7,19.6,28.6,10.3,6.2,21.6,8,33.4,5.6,7-2.1,13.6-5.8,19.2-10.5v-1.7h1.7c8.5-9.3,12.2-20.5,12.1-32.9-.8-12.2-6.3-23.5-15.5-31.6-20.4-15.3-46.2-13.1-62.6,6.9ZM489.7,324c-6.3,68.3-4.1,136.8.4,205.1.4,6,.8,12,1.1,18.1.3,5.7.7,11.4,1.1,17.1,0,1,.1,2,.2,3q.2,19,4.8,37c2.9-1,3.4-1.7,5.3-4,6.2-7.2,14.4-10.5,23.9-11.6,10.7-.4,20.2,3.1,28.7,9.7,2.9,2.8,5,5.7,6.8,9.3h1.7c7.9-46.7,12.3-93.6,15.1-140.8.2-2.5.3-4.9.5-7.4,2.7-41,2.7-82.7-.3-123.6,0-1-.1-2-.2-3.1q0-1.4-.2-2.8c0-.8-.1-1.6-.2-2.4q-.2-2.1-2-3.6c-.3.4-.7.8-1,1.2-9,10.8-20.7,17.9-34.9,19.3-16,.8-30.5-2.7-42.8-13.5-1.9-1.8-3.6-3.5-5.1-5.6-.4-.5-.8-1-1.1-1.5h-1.7ZM1053.6,365.4c-15.4,16-22.5,37.4-22.2,59.4.7,19.2,8.5,38,21.4,52.1q.6.6,1.1,1.3c6.2,6.9,12.9,12,20.9,16.6.7.4,1.4.8,2.2,1.3,19.1,10.2,41.7,11.8,62.4,5.9,21.7-6.7,39.5-21.8,50.1-41.9,10.1-20.1,11.8-42,5.2-63.5-3.2-9.7-7.9-17.5-13.7-25.8-.6-.8-1.1-1.7-1.7-2.5h-1.7c-.2-.5-.4-1-.7-1.5-6.2-11.5-23-19.8-35-23.7-32.2-9.6-64.6-1.7-88.4,22.4ZM1206.5,440.4q-.4,1.4-.7,2.7c-4.8,17-11.5,31.3-23.9,44-.6.6-1.1,1.2-1.7,1.8-6.6,6.9-14.5,11.7-22.9,16q-1,.6-2.1,1.1c-21.7,10.7-47.8,10.8-70.6,3.9-23.6-8.5-42.4-25.1-53.4-47.7-2.2-4.6-4-9.3-5.6-14.2h-.8c-8.9,66.3-10.9,132.8-7.6,199.6,0,1.3.1,2.6.2,3.8,1.1,22.6,3.4,45.1,5.8,67.5,0,.7.1,1.4.2,2.2,2.1,20.2,5.1,40.2,8.3,60.3.8,4.9,1.5,9.7,2.3,14.6,3.6,23.1,7.3,46.2,11.9,69.1.3,1.7.7,3.5,1,5.2q2.4,19.9,12.1,36.4c12.2,3.4,30.3-7.2,40.6-12.9,9.5-5.4,18.7-11,27.3-17.7.5-.4,1-.7,1.5-1.1,15.3-11.6,31.2-23.7,34.6-43.5.4-1.9.7-3.8,1.1-5.7.2-1,.3-1.9.5-2.9.8-4.3,1.7-8.6,2.6-12.9q.3-1.3.5-2.5c.5-2.6,1.1-5.3,1.6-7.9q.3-1.4.6-2.9c2.8-13.7,5.8-27.3,8.9-41,9.8-43.4,18.6-87,24.5-131q.1-.9.3-1.9c8-58.3,15.8-124.2,4-182.4h-.8ZM589,457.4c0,.9-.1,1.7-.2,2.6,0,1.2-.2,2.4-.3,3.7,0,.7,0,1.3-.2,2-.3,3.8-.6,7.5-.8,11.3-.1,1.6-.2,3.2-.4,4.8,0,.8-.1,1.6-.2,2.4-.3,4.5-.7,9-1,13.5-1.4,19.5-3.3,38.9-5.7,58.4-.2,1.3-.3,2.6-.4,3.8-.2,1.4-.3,2.8-.5,4.3,0,.8-.2,1.5-.3,2.3,0,.7-.2,1.4-.3,2.1q-.2,2.1,1.9,4.1c.9.5,1.7,1,2.6,1.6.8.5,1.7,1.1,2.6,1.6q2.3,1.3,4.9,2.1.8,1.4,1.7,3.4,1.6,2.7,3.4,5.1h1.7c1.7-8,3.1-15.9,4.1-24,0-.5.1-1.1.2-1.6,4-32.4,7.1-64.9,9.3-97.5-3-1-6.1-2-9.1-3-.9-.3-1.7-.6-2.6-.9-.8-.3-1.7-.5-2.5-.8-.8-.2-1.5-.5-2.3-.8q-2.3-.7-5.5-.5ZM620.5,465.9q0,.9-.2,1.9c-2.3,26.5-4.5,53-7.6,79.4,0,.9-.2,1.7-.3,2.6-1.1,9.4-2.3,18.8-3.8,28.1q-.2,1.2-.4,2.5c-1,6.1-2.7,11.5-6.2,16.7-1.6,3.2-1.5,6.3-1.5,9.9,0,.7,0,1.5,0,2.2.1,4.8.9,8.6,2.8,13,7.2,19.4,5.3,43.7,5.4,64.1,0,.8,0,1.6,0,2.4.1,27.6-3.2,54.8-6.6,82.2-1,8.3-2,16.5-3,24.8-.1.9-.2,1.8-.3,2.7-1.5,12.6-3,25.3-4.3,37.9,0,.7-.2,1.5-.2,2.2-.2,2-.4,4.1-.6,6.1,0,.6-.1,1.2-.2,1.8-.1,1.4-.2,2.8-.3,4.2,1.5,1.5,3.4,1,5.4,1,.7,0,1.3,0,2,0q1,0,2.1,0c2.4,0,4.7,0,7.1,0,1.7,0,3.4,0,5.1,0,4.7,0,9.4,0,14.1,0,5.1,0,10.1,0,15.2,0,8.8,0,17.5,0,26.3,0,9.2,0,18.4,0,27.6,0,.6,0,1.1,0,1.7,0,2.9,0,5.8,0,8.7,0,20.6,0,41.1,0,61.7,0,20,0,39.9,0,59.9,0q.9,0,1.9,0c6.2,0,12.4,0,18.5,0,12.6,0,25.2,0,37.8,0,.6,0,1.2,0,1.8,0,38.7,0,77.4,0,116,0-.1-1.2-.3-2.4-.4-3.7q-.1-1-.2-2.1c-.3-2.3-.7-4.5-1.2-6.8-.2-.9-.4-1.8-.6-2.8q-.3-1.5-.6-3c-13.1-63.8-20.9-129.2-25-194.1,0-.7,0-1.4-.1-2.1-1-15.2-.9-30.5-.9-45.7,0-2.2,0-4.5,0-6.7,0-20,.3-39.8,1.7-59.7.3-5,.2-9.9.2-14.9-.9-.1-1.8-.3-2.7-.4q-30.3-4.3-44.9-7.4c-.9-.2-1.9-.4-2.9-.6q-17.1-3.7-24.6-7.6c-5.6-2.7-10.9-2.5-17-2.4-2.4,0-4.8,0-7.3-.1-.6,0-1.2,0-1.9,0-27.1-.7-55.3-5.4-81.1-13.7-.7-.2-1.5-.5-2.3-.7-.7-.2-1.3-.4-2-.7-2.1-.4-3.3-.3-5.3.5-.8.6-1.7,1.1-2.5,1.7-2.8.7-5.4,1-8.3,1-.8,0-1.6,0-2.4,0q-1.3,0-2.6,0-1.3,0-2.7,0c-2.9,0-5.8,0-8.7,0q-1.5,0-3,0c-43.8,0-88.4-3.1-131.1-13.4q-2-.4-5.1-.3ZM989.1,510.9c-.3,3.7-.5,7.4-.8,11.1,0,1-.1,2-.2,3.1-.2,3.5-.5,6.9-.7,10.4q0,.9-.1,1.9c-1.1,17.1-1,34.3-1,51.5,0,.8,0,1.6,0,2.4,0,28.3.8,56.2,3.7,84.4,0,1,.2,2,.3,3,1.4,13.5,2.9,27,4.5,40.5.3,2.7.6,5.4,1,8.1,3.3,28.6,8,56.9,13,85.2.2,1,.3,1.9.5,2.9,1.9,10.8,4,21.5,6.3,32.2.2.9.4,1.9.6,2.8q2.1,9.9,7.3,18.5c3.8,2,6.9,1.6,11,.3.8-.3,1.6-.5,2.4-.8q-.1-.7-.3-1.5c-14.1-78.7-25.6-157.2-29.5-237.2,0-1.2-.1-2.5-.2-3.7-1.5-31.1-.7-62.2.9-93.3.2-4.1.4-8.3.6-12.4,0-.8,0-1.6.1-2.4,0-1.8.2-3.6.3-5.4-2.7-.6-5.3-1-8-1.1-.7,0-1.4,0-2-.1-.7,0-1.4,0-2.1-.1-.7,0-1.4,0-2.2-.1-1.7,0-3.5-.2-5.2-.3ZM578,582.3c0,.5-.2.9-.3,1.4-1.5,8.2-3,16.3-4.8,24.4-.1.6-.2,1.2-.4,1.7-.7,2.9-1.4,4.8-3.1,7.3-1.9,3-2,4.8-1.8,8.4,0,1,0,2,0,3,0,.7,0,1.5.1,2.2,7.6-.4,12.1-3.3,17.3-8.8,5.4-6.4,6.3-11.9,6.1-20.3-1-7.8-4.8-13.6-10.9-18.4q-1.2-1-2.2-.9ZM508.1,608.8c-5,6.3-6.6,13.1-5.7,21,1.6,8.8,6.1,14.8,13.2,20,6.8,4.2,13.8,4.6,21.6,3,7.8-2.7,13.1-6.7,17.2-13.8,3.2-6.6,3.6-14.6,1.7-21.7-.8-1.9-1.7-3.6-2.8-5.3-.4-.6-.7-1.2-1.1-1.8q-1.2-1.9-3.1-4.2h-1.7v-1.7c-14.2-7.6-27.6-8-39.3,4.5ZM594.1,627.3q-.5.6-1.1,1.2c-7,7.3-13.9,9.9-23.6,12.4.2.8.3,1.5.5,2.3,1.6,7.7,2.7,15.4,3.4,23.3.1,1.1.2,2.1.3,3.2,1.4,15,1.9,29.9,1.9,45,0,2.6,0,5.2,0,7.8,0,25.5-2.9,50.7-5.7,76q-2.9,26.8-5.4,53.6c0,.6-.1,1.2-.2,1.9-.5,6-1,11.9-.9,17.9,2.4.7,4.7,1.4,7.1,2.1q1,.3,2,.6l1.9.6q.9.3,1.8.5,1.8.5,4.2.4c2-12.8,3.7-25.6,5-38.5,0-.6.1-1.3.2-1.9.3-3.3.7-6.7,1-10,.7-7.2,1.4-14.3,2.2-21.5,0-.7.1-1.5.2-2.2,1.1-10.3,2.2-20.5,3.5-30.8,0-.6.2-1.2.2-1.9.8-6.4,1.6-12.8,2.4-19.2,2.8-21.8,4.2-43.4,4.1-65.3,0-1,0-1.9,0-2.9q1.9-29-5.3-54.8ZM497.3,646c-9.6,20.8-8.7,47.8-8.8,70.3,0,.7,0,1.3,0,2-.2,26.4,3.3,52.9,5.8,79.1,3.1,31.7,5.8,63.4,8.1,95.2.1,2,.3,4.1.4,6.1.2,2.4.3,4.9.5,7.3.4,6,1,11.9,1.6,17.9,0,.6.1,1.2.2,1.9q.4,3.3,1.5,6.3,2.2.5,4.8.8c1,.1,2,.3,3,.4,1.1.1,2.1.3,3.2.4,9.2,1.2,18.2,2.8,27.2,5.2,1.5-2.7,2.1-5,2.5-8.1.1-1,.3-2,.4-3,.1-1.1.3-2.2.4-3.3,0-.6.1-1.2.2-1.8,2.8-22.6,4.6-45.2,6.6-67.9.4-4.6.8-9.3,1.3-13.9,0-.9.2-1.8.3-2.8,1.1-11.7,2.2-23.4,3.5-35.1,0-.6.1-1.2.2-1.8.6-5.4,1.2-10.8,1.8-16.2,2.6-23.2,4.5-46.1,4.3-69.4,0-.9,0-1.9,0-2.9q2.2-34.1-6.2-64.3c-1.2,1.1-2.3,2.2-3.4,3.4v1.7q-.7.3-1.4.7c-2.1,1.1-4,2.3-5.9,3.5-9.3,5.5-18.8,6.6-29.5,4.6-8.7-2.5-15.9-7.7-20.9-15.2-.3-.4-.6-.8-.9-1.2h-.8ZM1566.7,765.7c-.8.7-1.5,1.4-2.3,2.2-5,4.8-9.4,9.8-13,15.7v1.7c.9.2,1.7.5,2.6.7,11.6,3.2,20.1,8,26.2,18.8,1,2,1.8,3.9,2.5,5.9,3.5-1.2,4.6-3.5,6.6-6.4,2.9-4.2,5.9-8.1,9.4-11.9q1.2-1.2,1-2.9h1.7q1.4-1.1,2.5-2.5v-1.7h1.7v-1.7c.5-.2,1-.5,1.5-.7,1.9-1,3.2-2.1,4.7-3.6,4.8-4.3,10.3-7.6,15.8-11-4.7-8.7-12.3-20.5-22.1-23.8-15-2.7-29.1,11.6-39.1,21.2ZM1622.7,783.6c-.7.5-1.4,1.1-2.2,1.6-10.5,8.1-19.2,18-26.7,28.9l2.3.6c12.1,3.5,20.9,8.8,27.4,19.8,5.1,9.5,7,20.1,4.1,30.7-3,8.6-7.4,15.5-14.7,20.9q-.7.5-1.3,1v1.7c9.1,5.3,18.3,10,27.8,14.4,1.7.8,3.4,1.6,5.1,2.4,13.9,6.6,27.9,12.6,42.3,18,23.6,8.9,44,18.5,63.2,35,6.6,5.6,12.8,8.7,21.5,8.6,4.4-.5,8.5-2.2,11.6-5.3,1.8-6.3-.7-11.4-3.7-16.8-1.5-2.7-3.1-5.3-4.8-7.9-.4-.6-.7-1.2-1.1-1.8-6.7-10.5-14.1-20.3-22.2-29.7-1.4-1.7-2.8-3.3-4.2-5.1-2.1-2.6-4.6-4.7-7.1-6.8-3.5-3.1-6.7-6.4-10-9.6-1.2-1.2-2.4-2.4-3.6-3.6-5.3-5.2-10-10.7-14.6-16.5-1.2-1.4-2.3-2.8-3.5-4.2-9.2-11.6-16.4-25.4-22-39.2-7.3-17.7-18.8-35.6-34-47.5-11.3-3.8-21.2,3.5-29.7,10.2ZM1181.1,815.8c-.5.2-1.1.3-1.7.5q-1.8.6-4.3,2-1.1,2.3-1.4,5c-.2,1-.3,2-.5,3-.1,1-.3,2.1-.4,3.1q-2.6,17.6-8.5,24.5c-1.8,2.1-2.8,3.3-3.7,6,3.8-1.2,7.2-2.6,10.7-4.4,1.1-.5,2.2-1.1,3.3-1.6.6-.3,1.1-.6,1.7-.9,50.7-25.1,107.3-35.9,163.5-36,1.9,0,3.7,0,5.6,0,17.5,0,34.8.8,52.3,2.5,37.4,3.6,75.5,3.8,112.9-.4,0-.6.2-1.1.3-1.7,1.7-9,5.1-15.6,11.6-22.1-8.1.4-16.2,1-24.4,1.6-47.1,3.7-93.1,5.7-140.2,1.3-1.7-.2-3.3-.3-5-.5-.8,0-1.7-.2-2.5-.2-13.4-1.2-26.8-2.1-40.3-2.3-.8,0-1.6,0-2.5,0-43.1-.9-86,6-126.6,20.4ZM1525.4,806.5c-2.6,3.8-3.7,7.5-4.6,11.9,6.1.1,12.1-.3,18.2-.9,1,0,2-.2,3-.3,3.1-.3,6.3-.6,9.4-.9,2.1-.2,4.3-.4,6.4-.6,5.2-.5,10.4-1,15.6-1.5-1-5.8-4.1-9.9-8.9-13.5-13.4-8.4-28.9-6.8-39.2,5.8ZM1569.4,833.4c-6.5,7.1-8.3,14.6-8.1,24,.3,7.4,3.5,12.6,8.5,17.9,5.9,5.3,12.4,8.5,20.4,8.6,8.9-.5,15.3-3.8,21.5-10.2,5.9-6.8,7.6-14,7.2-22.8-.7-7.5-4.7-14.2-10.1-19.4-12.4-9.8-28-8.9-39.4,1.9ZM1554.5,825c-52.2,5.4-103.9,8.2-156.3,3.9-18.7-1.5-37.2-2.4-56-2.4-1.7,0-3.5,0-5.2,0-51.9,0-103.8,10.8-150.9,32.7-.8.4-1.5.7-2.3,1.1-4.1,1.9-8.1,3.8-12.1,5.7,0,4,.6,4.5,3,7.5,11.3,15,15.7,32.7,13.1,51.3-1.9,12.4-7.3,23.4-15.3,32.9-.4.5-.8,1-1.2,1.5-3.4,4.3-7.7,7.3-12.1,10.5q-1,.8-2.1,1.5v.8c3.2,0,6.3,0,9.5.1q1.3,0,2.6,0c15.5,0,30.8-2.3,46.1-4.9q1.3-.2,2.6-.4c32.4-5.5,64.5-12.4,96.5-19.8,2.2-.5,4.4-1,6.6-1.5q7.6-1.7,15.1-3.5c5.6-1.3,11.2-2.6,16.8-3.8,12.3-2.7,24.6-5.7,36.8-8.8,12.4-3.1,24.8-6.1,37.3-8.9,5.7-1.3,11.3-2.6,17-3.9,36.1-8.3,72.3-16.1,108.8-22.7,3.5-.6,7-1.3,10.5-1.9,3.3-.6,6.5-1.2,9.8-1.8-1.2-2.3-3-2.9-5.2-4.2-8.3-4.9-13.2-13.2-16-22.2-2.7-11.1.2-21.4,5.1-31.3,1.7-2.7,3.6-4.7,5.9-6.9v-1.7c-3,0-5.8.3-8.8.6ZM41.2,866.9q-1,1.6-.9,3.3h-1.7q-1.3,1.3-2.7,3c-2,2.3-4,4.6-6.2,6.7-2,1.9-3.8,3.9-5.6,6-2.9,3.4-6.1,6.6-9.3,9.7q-4.6,4.5-8.9,9.3c-3.3,3.9-6.9,7.4-10.5,10.9-3,3-5.9,6.1-8.7,9.3-2.9,3.2-6,6.2-9.1,9.1-1.2,1.2-2.4,2.5-3.6,3.7v1.7h-1.7q-1.2,1.2-2.5,2.8c-3.3,3.8-6.8,7.3-10.4,10.9-1.8,1.8-3.5,3.7-5.2,5.7-4.2,4.8-8.8,9.3-13.4,13.7-3.7,3.6-7.2,7.3-10.5,11.2-2.8,3.1-5.8,6-8.8,8.9-1.2,1.2-2.4,2.5-3.6,3.7v1.7c-.5.2-1,.4-1.5.7-2,1.1-2.9,2.1-4.3,3.8-3.4,4-7.1,7.7-10.9,11.3-1.2,1.2-2.4,2.5-3.6,3.7v1.7h-1.7v1.7h-1.7q-1.2,1.2-2.5,2.8c-3.3,3.8-6.8,7.3-10.4,10.9-1.8,1.8-3.5,3.7-5.2,5.7-3.4,3.9-7.1,7.5-10.7,11.2-1.3,1.3-2.6,2.6-3.9,3.8-.6.6-1.1,1.1-1.7,1.7q-1.3,1.1-1.2,2.2H2038.1q-4-4.7-8.2-9.1c-.5-.5-1.1-1-1.6-1.6-.5-.5-1.1-1.1-1.6-1.6-3.7-3.7-7.4-7.4-10.8-11.4-2.7-3-5.7-5.9-8.6-8.7-3-3-5.9-6.1-8.7-9.4-1.8-2.1-3.7-3.9-5.7-5.9-1.5-1.5-2.8-3.1-4.2-4.7-3.6-4.1-7.5-7.9-11.4-11.8-4.4-4.3-8.6-8.6-12.6-13.3-2.2-2.5-4.5-4.8-6.9-7.1-3.4-3.4-6.7-6.8-9.7-10.4-3.1-3.4-6.4-6.6-9.6-9.8-.5-.5-1-1-1.5-1.5-.5-.4-.9-.9-1.4-1.4q-1.1-1.2-1.9-2.9h-1.7c-.2-.5-.4-.9-.6-1.4-1.4-2.5-3.1-4.2-5.1-6.1-.4-.4-.8-.8-1.2-1.2-1.3-1.3-2.5-2.5-3.8-3.8-1.7-1.6-3.3-3.3-5-4.9q-.6-.6-1.2-1.2c-2.8-2.8-5.4-5.7-8-8.7-2.2-2.5-4.5-4.8-6.9-7-2.9-2.8-5.7-5.7-8.3-8.8-3.5-4.1-7.4-7.8-11.2-11.6-4.4-4.3-8.7-8.7-12.7-13.4-1.8-2-3.6-3.9-5.6-5.7-3.1-3.1-6.1-6.3-8.9-9.6-.4-.5-.8-.9-1.3-1.4-.3-.4-.7-.9-1-1.3-2.2-1.7-3.8-1.5-6.6-1.5-1.1,0-2.1,0-3.2,0-1.2,0-2.4,0-3.6,0-1.2,0-2.5,0-3.7,0-3.4,0-6.8,0-10.2,0-3.5,0-7.1,0-10.6,0-6.7,0-13.4,0-20.1,0-7.6,0-15.3,0-22.9,0-15.7,0-31.4,0-47.1.1.8,1.1,1.6,2.2,2.4,3.3q.7.9,1.4,1.8c1.3,1.8,2.8,3.4,4.3,4.9.5.5,1,1,1.6,1.6.5.5,1.1,1.1,1.6,1.6.6.6,1.1,1.1,1.7,1.7,3.2,3.2,6.5,6.2,10,9.2,6.6,5.8,12.3,12.3,17.7,19.2.3.4.7.9,1,1.3q30.3,38.3,28.7,55.6c-1.3,4.9-4.1,8-8.3,10.8-7.9,4.4-16.7,4.7-25.3,2.7-8-2.5-14-7.5-20-13.1-5.3-4.6-11.1-8.4-16.9-12.3q-1.1-.8-2.2-1.5c-10.4-6.7-22.7-10.5-34.2-14.8-11.5-4.3-22.8-9-34.1-14-2.1-.9-4.3-1.9-6.5-2.8-8.9-3.7-17.3-8.2-25.8-12.8-.8-.4-1.5-.8-2.3-1.3-2.3-1.3-4.7-2.5-7-3.8-.7-.4-1.5-.8-2.2-1.2-.7-.4-1.4-.7-2-1.1-.6-.3-1.2-.6-1.8-1-1.6-1-2.8-2.2-4.1-3.6-1.5.5-2.9,1.1-4.4,1.6q-1.2.4-2.5.9c-1.4.5-2.8,1.1-4.2,1.7-3.5,1.3-7.1,1.8-10.8,2.5-.8.1-1.6.3-2.5.5-1.8.3-3.5.6-5.3,1-3.8.7-7.6,1.4-11.4,2.1-2.9.5-5.8,1.1-8.7,1.6-1.8.3-3.7.7-5.5,1-.8.1-1.6.3-2.4.4-26.5,4.8-52.8,10.6-79.1,16.5-1.5.4-3.1.7-4.6,1.1-16.1,3.7-32.1,7.4-48.1,11.3q-84.6,20.3-120.9,28c-2.4.5-4.9,1-7.3,1.6-26.1,5.6-52.3,10.7-78.7,14.7-1.8.3-3.6.6-5.4.8-10.4,1.6-20.7,2.2-31.2,2.3q-1.6,0-3.2,0c-7.7,0-15-.9-22.5-2.5-2.8-.3-4.9,0-7.6.5-21.7,1.4-40.5-2-57.3-16.7-8.4-7.8-14.6-17.9-18.1-28.8-1.7-4.5-4.7-5.9-8.7-8.2-13.9-8.7-22.3-25.2-25.9-40.8-.1-.6-.3-1.2-.4-1.8q-.6-3.2-3-4.8-2-1-3.8-.8v-1.7h-1.7c-.6-1.4-1.1-2.8-1.7-4.2-1.4-3.4-2.8-6.7-4.2-10.2h-417c-1.1,7-2.2,14-3.4,21.2-.6.8-1.1,1.7-1.7,2.5-.4,1.7-.7,3.4-1,5.1-1.5,6.6-3.9,12.5-9.4,16.8-2.9,1.7-5.5,2.7-8.8,3.5-4.1,1.4-6.6,4.1-8.8,7.8-1.9,6.2-2.5,12.5-3.2,18.9,0,.8-.2,1.6-.3,2.4q-.1,1.1-.3,2.2c-.6,2.3-1.6,3.5-3,5.4q-.3,2.3-.3,4.8c-.5,7.6-3.5,13.4-9.1,18.6-1.8,1.3-3.5,2.2-5.5,3.2-5.4,2.8-8.3,8.1-10.6,13.6-1.1,1.9-2.3,2.3-4.3,3.2-1,.8-2,1.6-3,2.4-20.1,15.2-49.7,10.4-73,8.3q-15.5-1.4-31-.5c-1,.1-2,.3-3,.4-3.2.5-6.4,1-9.6,1.5-1.2.2-2.3.4-3.5.6-5.2.8-10.3,1.7-15.5,2.8-18.3,3.6-38.4,5.5-55-4.4-3.9-2.6-6.9-5.6-8.1-10.3-.7-4.6-.3-7.7,2.2-11.8,8.6-10.5,28-13.9,40.2-18.1,2.2-.8,4.3-1.5,6.5-2.3q34.2-12,44.7-14.5c.9-.2,1.7-.4,2.6-.6,25.9-6.2,52.7-8.9,79.3-8.6v-4.2c-.7,0-1.5,0-2.2,0-2.8,0-5.6,0-8.4,0-1.2,0-2.4,0-3.6,0-9.6.2-19.9,0-28.2-5.3-.3-.6-.6-1.1-.8-1.7h-1.7c-.6-1.4-1.1-2.8-1.7-4.2q-1.2.1-2.4.3c-1.8.2-3.6.4-5.4.6-4,.5-8,1-12.1,1.5q-35.8,4.5-47.6-3.8c-2.4-2-4.2-4.3-5.6-7.1-.3-4.3-.1-6.8,2.5-10.2,9.7-8.6,24.9-11,37.1-14.5,4-1.2,8.1-2.4,12.1-3.7,13.1-4,26.2-7.7,39.4-11.4,3-.8,5.9-1.7,8.9-2.5.9-.3,1.8-.5,2.7-.8.8-.2,1.7-.5,2.5-.7.7-.2,1.5-.4,2.2-.6,2.2-.7,4.2-1.5,6.3-2.3v-3.4c-42.2-.1-84.3-.2-126.5-.3q-.9,0-1.9,0c-13.6,0-27.1,0-40.7,0-6.7,0-13.3,0-20,0-.7,0-1.3,0-2,0-21.5,0-42.9,0-64.4-.1-22,0-44.1-.1-66.1-.1-3.1,0-6.2,0-9.3,0-.6,0-1.2,0-1.9,0-9.9,0-19.7,0-29.6,0-9.9,0-19.8,0-29.8,0-5.4,0-10.7,0-16.1,0-4.9,0-9.8,0-14.8,0-1.8,0-3.6,0-5.3,0q-11.8-.6-20.9,6ZM1148.7,870.8c-22.2,20.9-50.7,38.9-80.6,45.3-1.1.3-2.3.6-3.4.8.9,7.4,2.7,13.7,5.9,20.4.4.8.7,1.6,1.1,2.4,6.6,13.4,18.3,22.9,32,28.2,14,4.5,28.7,4.5,42.2-1.9,14.8-7.7,25.3-19.2,30.4-35.1,4.6-15.2,2.4-30.6-4.6-44.6-3.9-7.3-9.9-14.9-17-19.4-2.8,0-4,2.1-6,4ZM482.4,877.3q-1.4.4-2.8.8c-1,.3-2,.6-3.1.9-1.1.3-2.2.6-3.3.9-12.7,3.6-25.4,7.4-38.1,11.2-2.8.8-5.5,1.7-8.3,2.5-3.4,1-6.9,2.1-10.3,3.1-1.3.4-2.6.8-3.9,1.2q-14.9,3.5-26.7,11.5c.7.7,1.4,1.3,2.2,2,.4.4.8.7,1.2,1.1,4.6,3,9.9,3.1,15.3,3.1q1.1,0,2.3,0c11.5-.2,22.9-2,34.2-3.7,1-.1,1.9-.3,2.9-.4q1.4-.2,2.7-.4c.8-.1,1.6-.2,2.4-.3,3.1-.8,4.7-2.7,6.9-4.9,9.1-7.7,23.7-11.2,35.1-13.5q1.1-.9,1-3,0-6.6-1-13.2c-3.2-.1-5.9.3-8.9,1.2ZM1033.3,879.5c1.6,11.8,6.2,21.3,13.6,30.6.8.6,1.7,1.1,2.5,1.7-.2-.5-.5-.9-.7-1.4-4.4-8.9-6.8-17.9-9-27.6q-.4-1.7-1.3-3.3h-5.1ZM561.9,882.1c-.6,5.7-.9,11.3-.8,17q4.1,1.6,8.2.8c5-4.2,6.8-7.3,8-13.6-5.2-2.6-9.5-3.9-15.3-4.2ZM481.5,904.8q-1.4.4-2.7.9c-6.9,2.3-14,4.7-18.9,10.4q.4,1.7,1.7,3.4c6.2,3.1,12.1,2.9,19,2.8,1.1,0,2.2,0,3.3,0q5.5,0,10.9-1c-.1-2.3-.2-4.6-.4-6.9,0-.6,0-1.3-.1-2-.2-3.6-.5-7.1-1.2-10.7-3.9,0-7.9,1.9-11.5,3.1ZM510.9,943.2c-2.2,4.6-2.3,8.4-.7,13.3,1.6,3,3.2,4.9,5.8,7.1q.8.7,1.6,1.5c4.5,2.6,9.3,2,14.2.9,4.7-1.6,7.3-4.5,9.7-8.7.9-3.2,1-5.7.9-9q-15.5-4.1-31.4-5.1ZM472.3,945.5q-.9,0-1.9.1c-9.7.5-19.2,1.6-28.8,3.1q-.8.1-1.7.3c-6.3,1-12.2,2.2-18.1,4.5q1.1,19.5,7.6,37.4,1.6.5,3.5.6c.7,0,1.4.1,2.2.2q1.2,0,2.4.2,1.2.1,2.5.2c1.8.2,3.5.3,5.3.4,2.6.2,5.2.4,7.9.7,8.4.7,16.7,1.2,25.1,1.2q1.1,0,2.1,0c14.2-.1,28.5-2.8,39.1-12.9q2-2.3,2.5-5.1c-.6-.2-1.2-.4-1.9-.6-8.4-2.9-13.3-5.9-17.7-13.8-2.7-5.6-2.8-10.8-2.5-17-9.2,0-18.4,0-27.6.6ZM403.2,957.8q-.9.3-1.7.6c-1.9.6-3.8,1.3-5.8,1.9-.7.2-1.3.4-2,.7-11.6,3.9-23.1,7.9-34.6,12-.8.3-1.5.5-2.3.8-2.2.8-4.4,1.6-6.6,2.4-.6.2-1.3.5-2,.7-6.8,2.4-12.9,4.8-18.3,9.7.4,3.6,2.4,5.3,5.1,7.6,6.7,5.1,15.7,5.5,23.8,5.4.9,0,1.9,0,2.8,0,7.5-.1,14.7-1,22-2.4,2.8-.5,5.5-1,8.3-1.5,8.8-1.5,17.6-3.1,26.3-4.9-.2-.8-.4-1.6-.7-2.4-2.7-10.7-4.1-21.4-5.3-32.4-3.6,0-5.8.7-9.2,1.8Z"/>
  <path d="M323.2,129.5c14.4,9.5,22.8,24.4,26.6,41,1.8,11.2.2,23.4-4.6,33.8-1.8,2.2-2.2,2.5-5.1,2.8q-2.5-.3-4.2-2c-.3-4.9.4-8.8,1.7-13.5,3.6-13.6.5-26-6-38.2-4.6-7.6-11.1-14.2-19.8-16.7-5.1-.9-9.8.5-14.1,3.3-3.6,2.8-5.5,5.5-6.7,9.9,0,2,0,3.9,0,5.9,0,3.3-1.1,5.4-3.4,7.7-2.3.3-3.7.4-5.6-.9-1.8-2.7-1.6-5.5-1.5-8.6,0-.7,0-1.3,0-2,.2-7.7,2.8-12.8,8.1-18.5,9.6-8.9,23.3-10.2,34.8-4.1Z"/>
</svg>