<?xml version="1.0" encoding="UTF-8"?>
<svg id="Layer_1" xmlns="http://www.w3.org/2000/svg" version="1.1" viewBox="0 0 1920 1080">
  <!-- Generator: Adobe Illustrator 30.0.0, SVG Export Plug-In . SVG Version: 2.1.1 Build 123)  -->
  <path d="M732.6,247.2c-.7,0-1.5.1-2.3.1-.7,0-1.5,0-2.2.1-.7,0-1.2,0-1.9.1-1.1,0-2.3.4-3.7.9-1,.1-2,.3-3,.4-21.4,2.3-41.2,7.8-61.6,14.5-.8.3-1.7.5-2.5.8-4.2,1.4-8.3,2.9-12.3,4.7-1.5.7-3.2,1.3-4.8,2-11.9,4.9-23,10.9-33.6,18.1-1,.7-2,1.3-3,2-7.2,4.8-13.9,9.9-20.5,15.5-.5.4-1,.9-1.5,1.3-5.7,4.9-11.3,10.2-16.7,15.6-.6.6-1.2,1.2-1.8,1.8-.6.6-1.3,1.3-1.9,1.9-.6.6-1.3,1.3-1.9,1.9-2.1,1.9-3.6,4.1-4.5,6.5h-1.3c-.6.6-1.3,1.4-1.9,2.3-.4.5-.9,1.1-1.2,1.7-.5.7-1,1.3-1.5,2.1-.7.8-1.2,1.6-1.9,2.5-8.5,10.4-14.3,21.7-17.5,34.1.4,2,.9,3.9,1.3,5.9.2.7.4,1.5.5,2.3,4.8,19.7,12,39.3,20.9,57.6.4.9.8,1.8,1.2,2.7,2.4,5.3,5,10.4,7.9,15.5.3.5.6,1,.9,1.6,2.1,3.6,4.5,7,7.5,9.8h1.3c.8-7,1.5-13.9,2.1-20.9,0-.7,0-1.4.1-2.1.8-5.2.3-10.1-1.3-14.8-9.5-12.9-10.6-29.9-8.7-45.3,3.2-18.2,13.6-33.7,28.6-44.3,10.3-7.1,22-10.3,34.3-11.2.6,0,1.2,0,1.8-.1,16.8-.7,33.8,7.3,46.1,18.2,4.9,4.6,8.7,9.8,12,15.6.4.7.9,1.5,1.3,2.3,8.4,15.6,9.8,34.5,4.9,51.3-2.8,8.3-6.1,15.8-11.9,22.4-1.3,1.1-1.9,2.2-1.8,3.3h-1.3c-.7.7-1.3,1.5-1.9,2.3-1.5,1.9-2.6,3-4.8,4.1-2.5,1.3-4.5,2.6-6,5-1.2,5.4-.3,11.2.1,16.5,0,1.5.2,3.1.3,4.6.2,3.7.5,7.5.9,11.2,26.3-1.5,52.3-9.4,76.1-20.4,17.6-8.1,34.6-13.2,53.8-15.3.5,0,1,0,1.5-.1,12.9-1.4,26.3.2,39.1,1.4,4.8.4,9.5-.2,13.9-1.9,2.4-3.7,3.8-7.6,5.2-11.7.2-.7.4-1.4.7-2.1,9.5-29.3,14.5-59.2,14.5-90.2v-1.7c0-28.8-4.1-58.3-13.6-85.5-.3-.8-.6-1.6-.9-2.5-1.6-3.7-3.4-5.4-7.1-6.8-1.8-.5-3.6-1-5.5-1.5-.5-.1-1.1-.3-1.7-.4-34.8-8.4-71.8-8.4-107.4-5.6h0ZM865.3,264c-.8,2.4-.5,2.9.4,5.1,1.8,4.7,2.9,9.5,4,14.4.3,1.3.7,2.6,1,3.8,1.9,7.6,2.9,15.4,4,23.1,0,.8.2,1.5.4,2.3,3.7,26,3.6,55.2-.4,81.2,0,.7-.2,1.5-.3,2.3-3,20.6-8.7,41.7-16.5,61,.4.2.7.4,1,.6,3.2,2,6.3,4,9.4,6,.4.3.9.6,1.4.9,1,.7,1.9,1.2,2.9,1.9,1.5,1,2.9,1.9,4.3,2.9,4.5,2.9,8.9,5.9,13.3,9,2.1,1.5,4.3,2.8,6.5,4.2,2,1.2,3.9,2.6,5.9,4,.7.4,1.2.9,1.9,1.3,1.2.9,2.6,1.8,3.8,2.6.6.4,1.2.8,1.8,1.2.5.4,1.1.8,1.6,1.1,1,.5,2.1.6,3.3.2,1.5-.8,2.8-1.6,4-2.7.4-.4.9-.7,1.3-1.1s.9-.7,1.4-1.2c.5-.4,1-.8,1.5-1.2,1-.8,1.9-1.6,2.9-2.4,1.7-1.4,3.4-2.7,5.1-4.1,7-5.7,13.6-11.5,20-18,2-2,4-3.9,6.1-5.7,4.8-4,8.7-8.9,12.8-13.6.8-1,1.7-1.9,2.6-2.9,4.3-4.7,8.2-9.6,12.1-14.7.4-.5.8-1,1.2-1.6,5-6.5,9.8-13,14.1-20,1-1.6,2-3.2,3-4.8,4.3-6.9,8.3-13.9,12.1-21.1.4-.7.7-1.4,1.1-2.1,3-5.1,4.7-10.4,4.9-15.9-.5-.9-1.1-1.7-1.8-2.4-.4-.4-.7-.9-1.1-1.4-.4-.4-.8-1-1.2-1.5s-.8-1-1.2-1.5c-7-8.3-14.5-16.4-22.7-23.5-1.8-1.5-3.4-3.2-5.2-4.8-9.4-8.7-20.2-16.4-31.1-23.1-1.1-.7-2.2-1.5-3.3-2.4-1.7-1.3-3.3-2.3-5.1-3.3-.7-.4-1.3-.7-2-1s-1.3-.7-2-1c-1.2-.7-2.3-1.2-3.4-1.9-.6-.4-1.2-.7-1.9-1-1.1-.6-2.2-1.2-3.2-1.8-16.9-9.4-35-16.3-53.6-21.9-.7-.2-1.5-.4-2.2-.7-4.8-1.4-9.5-2.3-14.4-3.1h-.1ZM583.5,364.2c-10.2,12-14.6,26.9-13.8,42.5.3,3.4.8,6.7,1.3,10.1l1.3-.7c.2-.8.4-1.7.6-2.7,0-.6.2-1.1.3-1.7s.2-1.2.3-1.8c2.2-11.9,7.3-22.7,17.3-30,10.6-7,22.2-10.4,34.8-8.1,8.2,1.7,15.8,5.1,21.8,11.2.6.7,1.3,1,2.2.9.1.4.4.7.5,1.1,1,1.8,2.1,3.4,3.4,5,7.1,9.8,10.1,20.8,8.9,32.9-.4,2.6-1,5.1-1.5,7.6-1,5.7-.7,11.6.2,17.2,8.8-3.7,14.7-14.7,18.4-23,2.5-6.2,4-12.8,4.5-19.5,0-.5,0-1.1,0-1.6.5-14.7-4.8-29.9-14.8-40.6-10.6-11-23.7-18.6-39.2-19.1-18.8-.4-34,6.4-46.7,20.2h.2ZM1029.5,368.4c-.3.6-.6,1.2-.9,1.8-1.2,2.4-2.4,4.8-3.6,7.2-.6,1.2-1.2,2.5-1.8,3.7-4.9,9.8-10.2,19-16.1,28.1-1,1.4-1.8,2.9-2.7,4.3-3.2,5-6.5,9.8-10.2,14.4-.9,1.1-1.8,2.3-2.6,3.4-7.8,10.1-16.2,20-25.5,28.9-.8.7-1.1,1.5-1,2.5h-1.3c-1.7,1.5-3.1,2.8-4.1,4.8-.4.8-1.1,1.4-1.8,1.8-1.8,1-2.9,2.1-4.3,3.7-2.3,2.4-4.7,4.4-7.4,6.4-1.7,1.2-3.1,2.8-4.5,4.3-3.7,3.4-7.5,6.4-11.4,9.4-.7.6-1.5,1.2-2.2,1.7-4.3,3.3-7.4,5.7-9.2,7,.4,3.4,1.5,6.1,3.3,9,.3.4.5,1,.8,1.4,2.7,4.6,5.9,8.9,9.1,13.2,1.5,2,2.9,4,4.4,6.1.5.7,1.1,1.5,1.6,2.3,1,1.5,2.1,3,3.2,4.5.5.7,1,1.4,1.5,2.1.4.6.9,1.2,1.2,1.8.3.4.7.9,1.1,1.3h1.3c.1.4.4.7.5,1.1,2.8,5.2,7.4,9.6,11.4,13.9.8,1,1.7,1.8,2.5,2.8,3.7,4.3,7.6,8.2,11.5,12.2,1.2,1.2,2.4,2.4,3.6,3.6,4.3,4.3,8.7,8.4,13.6,12,.7.6,1.5,1.2,2.3,1.8,4.8,3.8,9.9,7.3,15.3,10.3.7-.2,1.3-.4,2.1-.7,0-.4,0-.9.1-1.3,2.9-28.2,11.2-59.6,33.9-78.7,11.2-8.7,23.8-13.7,38.1-14.2.4,0,1,0,1.5,0,17.2-.5,33.8,5.6,46.4,17.1.7.6,1.3,1.2,2,1.8.6.6,1.2,1.2,1.8,1.8,14.9,14.5,22.7,33.5,27.1,53.5h1.3c4.8-13.2,7.7-26.3,8.1-40.4,0-.7,0-1.3,0-2.1.9-37.8-17.9-74.8-43.4-101.7-1.2-1.3-2.4-2.7-3.6-4.1-1.3-1.6-2.6-2.9-4.3-4.3-1.8-1.5-3.4-3-5-4.7-4.8-4.8-10.3-8.9-15.8-12.9-1.2-.9-2.3-1.8-3.5-2.8-5.3-4.3-10.9-8.1-16.7-11.8-1-.7-2-1.3-3-2-1.8-1.2-3.7-2.4-5.5-3.7-2.1-1.4-4.3-2.9-6.5-4.3-1.2-.8-2.5-1.6-3.7-2.4-.6-.4-1.2-.8-1.8-1.2-1.2-.8-2.5-1.5-3.8-2.1-2.6-1.3-5.1-2.8-7.6-4.3-3.4-2-6.7-4-10.2-5.9-.6-.3-1.1-.7-1.7-1-1-.5-2.1-.8-3.4-.7h-.2ZM591.3,392.2c-6.5,8.1-10,17.4-9.3,27.8,1,8.6,3.3,15,8.6,21.8.5.7,1,1.4,1.5,2.1,6.2,6.5,14.7,10.6,23.6,10.9,10.5,0,18.9-2.2,26.7-9.6,1.2-1.3,2.3-2.6,3.3-4,.4-.4.7-.9,1-1.3,5.6-7.6,7.7-17.5,6.7-26.8-1.8-10.9-7.1-19.7-15.7-26.6-15.3-10.4-34-7.5-46.5,5.7h0ZM515.9,388.1c-8.4,7.2-17.7,13.4-27,19.4-.4.2-.8.5-1.2.7-6.5,4.3-13.1,8.1-19.7,12,1.9,7.6,4.4,14.9,7,22.2,1.6,4.8,3.2,9.5,4.3,14.4,1,4.6,2.9,8.8,5.7,12.5,3.7,2.2,7.5,3.5,11.5,4.8,2.5.9,4.8,2.1,7,3.4.7.4,1.5.9,2.2,1.3,2.9,1.8,5.4,3.8,8,5.9,1,.8,2.1,1.6,3.2,2.4,1.8,1.5,3.6,2.9,5.2,4.6l1.8,1.8h1.3v-1.3c.4-.1.7-.3,1.1-.4,2.1-1.2,3.4-2.6,5.1-4.3,6.7-6.3,14.7-11,22.7-15.5-.4-2.5-1-4.2-2.4-6.3-8.9-14.5-15.5-30.2-21.2-46.2-.2-.6-.4-1.2-.7-1.8-1.2-3.4-2.3-6.7-3.5-10.1-.5-1.4-1-2.8-1.5-4.2-2.1-6-3.7-12-5.1-18.2-1.5,0-3,2-4,2.8h.1ZM338.1,440.4c-.5.4-1,1-1.5,1.4-15.6,14.7-23.5,35.8-24.2,57-.6,22.3,2.8,43.5,11.6,64.1.2.5.4,1,.7,1.5,4.7,11.1,11,20.2,19.5,28.8l1.5,1.5c8.3,7.8,18.9,13.2,29.5,16.9.4.1,1,.3,1.5.5,30.4,9.9,66.5-3.3,95.4-13.5.6-.2,1.3-.5,1.9-.7,27.2-9.3,52.4-22.1,75.5-38.4,2.6-6.7,1.8-14.7-.7-21.3-4-8.7-10.4-16.1-16.8-23.1-.7-.8-1.4-1.6-2.1-2.4-13.5-15.4-29.3-30.7-49.7-35.9-2.7-1.3-3.9-3.7-5-6.4-.3-.9-.6-1.8-.9-2.7-.1-.5-.3-1-.5-1.5-.5-1.6-1-3.2-1.5-4.8l-1.1-3.3c-1-3.2-2.1-6.4-3.1-9.5-.3-.8-.5-1.6-.8-2.4-.7-1.9-1.2-3.9-1.9-5.9-.2-.6-.4-1.2-.6-1.8-.9-2.6-1.7-5.4-2.4-8.1-.1-.5-.3-1-.4-1.5-.4-1.3-.7-2.6-1.1-4-1.1-2.5-1.9-2.9-4.3-4-1.4-.5-2.9-.9-4.3-1.3-.8-.2-1.7-.4-2.6-.7-.9-.2-1.8-.4-2.7-.7-.4-.1-.9-.2-1.4-.4-7.3-1.9-14.6-3.5-22.1-4.3-.7,0-1.5-.1-2.3-.3-2.2-.2-4.3-.3-6.5-.4h-1.5c-27.7-1-55.6,7.6-75.3,27.7h.4ZM580.5,445.1c-1.3,12.5-2.3,24.9-3.1,37.5,0,.7,0,1.2-.1,1.9-1.3,20.7-1.6,41.3-1.5,62.1v11.1c0,14.5,0,29,.6,43.5.1,4.8.3,9.8.4,14.6v7.2c.1,12.8.4,25.7,1,38.6,0,.6,0,1.1,0,1.7.3,5.9.7,11.9,1.3,17.8,0,.5.1,1.1.1,1.6.2,2.3.6,4.5,1.2,6.8h2.1c.7-.7,1.4-1.6,2.1-2.5,4.6-5.4,11.2-7.3,18.1-8.3,3.7-.1,7,.1,10.6,1.1.4.1,1,.2,1.4.4,7.2,2,15.3,5.6,19.7,12,.7-.2,1.3-.4,2.1-.7,4.2-21.9,6.7-43.9,9.4-65.9,0-.8.2-1.6.3-2.4,3.2-26.5,5.4-53,7.1-79.7,0-.7,0-1.5.1-2.2,2-30.4,2.9-61.7-.8-92.1-2.3,1.1-3.8,2.3-5.6,4.2-8.2,7.5-20,11.3-31.1,10.9-13.2-1.5-24.6-6.9-33.1-17.3-.5-.6-1-1.2-1.5-1.8h-.7,0ZM669.8,500.4c-.6,0-1.1.1-1.7.2-1.4.1-2.8.3-4.1.5-.9,2.6-.8,5.2-.8,7.9v5.2c-.7,46.4-5.3,92.8-11.6,138.7-.1.8-.2,1.6-.4,2.5-.2,1.5-.4,3-.7,4.5,0,.7-.2,1.3-.3,2.1,0,.6-.1,1.2-.2,1.8-.1,1.7-.3,3.3-.1,5,.9.9,1.9,1.7,3.1,2.3,2.1,1.4,4.1,2.7,5.9,4.3,1,1,2,1.5,3,1.4.2.7.4,1.3.7,2.1.7-.2,1.3-.4,2.1-.7,1.8-9.2,3-18.3,4.2-27.6,0-.8.2-1.5.3-2.3,1.9-15.3,3.4-30.4,5-45.8.1-1.8.4-3.5.5-5.3,2.1-21.8,4.1-43.6,5-65.4,0-.7,0-1.2,0-1.9,1.3-10.3,1.2-20.4-.2-30.1-3.2,0-6.4.3-9.6.7h0ZM1077.5,516c-12.5,1.1-23.3,6.1-31.8,15.3-.5.5-1.1,1.1-1.7,1.6-15.2,15.4-21.1,37-24.6,57.6-.1.8-.3,1.7-.4,2.5-.7,4.3-1.1,8.5-1.5,12.8-.6,6.2-1.3,12.4-2.1,18.6-1.5,12-2.7,24-3.8,36,0,.7-.1,1.5-.2,2.2-2.2,23.5-2.9,46.7-2.9,70.3v4.2c0,19.6.3,39,2.1,58.5.2,2.4.4,4.8.7,7.2,1,12,2.2,24.1,3.4,36.2.2,2.4.4,4.8.7,7.2,2.6,26.6,5.9,52.9,10.4,79.2.1.8.3,1.7.4,2.5.4,2.4.8,4.8,1.2,7.2.1.7.2,1.4.4,2.1,1.2,6.6,2.5,13.1,7.3,18.1,3.6,1.8,8.5-.6,12.1-1.8,20.2-7.1,46.7-22.6,57.3-42,2.2-4.8,3.6-9.8,4.9-15,.2-.8.4-1.6.6-2.5,1.8-7.1,3.2-14.3,4.7-21.5,2.1-10,4.3-20,6.6-29.9.1-.7.4-1.5.5-2.3,1.5-6.2,2.9-12.3,4.3-18.5,5.9-25.2,10.7-50.5,14.7-76.1.4-3,1-6,1.5-9,4.1-25.2,7-50.4,8.8-75.9,0-.7,0-1.5.1-2.3,3.2-42.4-3.6-82.6-20.4-120.5-11.9-13.6-26.7-21.3-44.7-22.7-2.9,0-5.6.1-8.4.4v.2ZM993.2,604.7c-7,55.9-10,113.1-6.2,169.4.1,1.7.2,3.4.3,5.1,1.1,17.5,2.6,35,4.3,52.4.2,2.1.4,4.3.7,6.5,1.8,18,3.7,35.9,6.4,53.8,0,.7.2,1.5.3,2.3,1,7.1,2.1,14.2,4,21.1,0,.5.2,1,.4,1.5,1,3.4,2.3,5.4,4.7,7.8,2.3.8,4.3.7,6.7.7l1.3-.7c-.4-4-.8-7.9-1.5-12,0-.5-.1-1-.2-1.5,0-.5-.1-1-.2-1.5-5.1-31.4-8-63.2-10.9-94.9,0-.7,0-1.4-.1-2.1-5.4-60.4-4.4-121.5,2.4-181.8,0-.6.1-1.2.2-1.8.3-2.8.7-5.6,1-8.4.1-1,.2-1.9.4-2.9,0-.8.2-1.6.3-2.5,0-1.3-.2-2.3-.9-3.2-1.9-1.4-3.9-2.6-5.9-4-.4-.3-.8-.5-1.2-.8-2.1-1.3-3.8-2.3-6.2-2.8h0ZM648.5,678.8c-1,1-1,2.1-1.2,3.4,0,.6-.2,1.2-.3,1.8,0,.7-.2,1.2-.4,1.9-1.2,6.4-2.9,12.3-4.9,18.5-.3,1-.6,1.9-.7,2.7.4.5,1.1.8,2.1.7,5.7-.4,11.2-1.3,15.1-5.8,2.6-3.2,2.7-6.5,2.3-10.4-1.3-5.1-5.4-8.4-9.4-11.4-1-.5-1.9-1-2.7-1.3h0ZM589.2,694.2c-3.7,4.6-4.3,8.4-3.7,14.2.5,2.8,1.5,5,3.1,7.4.4.6.8,1.2,1.1,1.8,5.7,5.9,12.8,8.1,20.8,8.4,6.7-.1,12.7-1.2,17.6-6,3.6-4,3.8-7.3,3.7-12.6-.4-3.4-1.5-5.2-3.6-7.8-.5-.7-1-1.4-1.5-2.1-3.9-4.5-9.7-7.3-15.4-8.7-.5-.1-1.1-.3-1.6-.4-7.8-1-14.7.3-20.5,5.9h0ZM657.1,713.7c-5.4,2.4-10.9,3.3-16.7,4.1.2,3.9.7,7.7,1.4,11.6,2.3,14.1,2.9,28.2,2.9,42.5v2.3c0,17.2-1.2,34.2-2.8,51.3-.1,1.5-.3,3-.4,4.5-2,20.8-4,41.7-6.2,62.6,0,.7-.1,1.5-.2,2.3-.4,3.4-.7,6.7-1.1,10.1-.1,1.2-.2,2.3-.4,3.4,0,.5-.1,1-.1,1.5-.3,2.6-.3,4.7.4,7.2,1.4.4,2.8.9,4.2,1.3.8.2,1.5.5,2.3.7,2.1.5,3.5.7,5.6.6,2.1-7.9,3.2-15.9,4.3-24.1,0-.7.2-1.5.3-2.2,1.8-12.8,3.4-25.5,4.8-38.3.5-4.5,1.1-9.2,1.6-13.7,1.9-15.3,3.6-30.5,4.9-45.8,0-.6,0-1.2.1-1.8,0-1.1.2-2.2.3-3.2.2-2.2.4-4.4.7-6.6.3-2.3.4-4.5.5-6.8,0-.9,0-1.8,0-2.6,0-1,0-1.9,0-2.9v-1.5c.4-15.3.4-30.4-.4-45.6,0-.5,0-1.1,0-1.6,0-1.5-.1-3-.3-4.5,0-.9,0-1.8-.1-2.6,0-1.3-.3-2.4-.9-3.4-2.1,0-3,.4-4.9,1.2h0ZM579.1,722.5c-.4,1.4-.9,2.9-1.2,4.3-.2.8-.4,1.6-.7,2.4-12.5,45.9-2.8,98.9,1,145.5,1.6,19.4,2.6,33.7,3.2,43,0,.5,0,1,0,1.5.3,5,.6,9.9.9,14.9.6,9.9,1.5,19.7,2.9,29.4,2.3.7,4.4,1,6.7,1.2,5.6.7,11.2,1.8,16.7,3.2,2.5.6,5,1.1,7.6,1.7,1-2.6,1.6-5.2,2-8,0-.7.2-1.5.3-2.3,0-.8.2-1.6.3-2.5.1-.9.2-1.8.4-2.6,1.2-9.2,2.3-18.4,3.3-27.7,0-.9.2-1.8.3-2.7,1.7-15,3.2-29.9,4.7-44.9,1.1-10.9,2.2-21.8,3.4-32.7,4.1-38.5,7.5-77.6,2.9-116.3-1.3-.6-2.5-.6-3.6,0-.7.4-1.2.7-1.9,1.1-9.9,5.2-19.7,5.1-30.1,2-5.4-1.8-10.1-4.8-14.7-8.1-1.3-1-2.6-1.7-4.1-2.3h0ZM1428,881.4c-2.7,3.6-5.5,7.3-7.4,11.4.5.2,1,.4,1.5.7,7.3,3.3,11.4,5.5,12.3,6.5.6.7,1.4,1,2.3.8,1.5-.7,2.3-1.4,3.4-2.6,6.8-7.1,15.5-12.8,25.6-13.5,12.1.4,20.5,8.8,28.4,17,1.1,1.2,2.2,2.5,3.2,3.8.5.6,1,1.2,1.5,1.8,1,1.2,2.1,2.6,3.2,3.8,2,2.4,4.1,4.8,6.2,7.2.7.9,1.5,1.8,2.3,2.6.8,1,1.6,1.8,2.4,2.8.4.5.9,1,1.4,1.5,5.4,6.2,11.1,12,17.5,17.1,1.4,1.1,2.7,2.2,4,3.4,10.5,9.2,22.9,15.2,35.7,20.5,4,1.6,7.8,3.4,11.7,5.4,1.9.7,2.6.7,4.4,0,1.1-.7,2-1.6,2.7-2.7.1-3.1-.7-5-2.6-7.3-10.7-11.3-27-18.3-41.3-23.8-11.7-4.5-21.1-11.7-30.5-19.8-3.3-2.9-6.7-5.6-10.2-8.3-1.5-1.2-2.6-2.3-3.8-3.7-1.8-2.1-3.6-4.2-5.5-6.2-2.6-2.9-5.1-5.9-7.6-8.9-4.1-5.1-8.3-10-12.6-14.8-.8-.9-1.5-1.8-2.3-2.8-4-4.8-9.8-10.6-16.2-11.6-12.8-.4-22.1,10.5-29.7,19.8h.1ZM1153.5,872.4c-.5,0-1,.1-1.5.3-8.7,1.5-17.2,3.4-25.6,5.9-.7.1-1.4.3-2.1.4-1.4.4-2.3,1.3-2.7,2.6-.1.7-.3,1.5-.4,2.3s-.3,1.6-.5,2.5c-.1.9-.3,1.8-.4,2.6-.3,1.7-.7,3.4-1,5.1-.1.8-.3,1.6-.4,2.4-.4,1.8-.7,3.5-1.2,5.3-.4,1.5-.6,3.2-.6,4.9,1-.3,1.9-.6,2.9-.8.5-.1,1.1-.3,1.6-.4,1.9-.6,3.7-1.3,5.6-2,19.5-7.1,40.6-10.5,61.2-12.2.6,0,1.2,0,1.8-.1,3.2-.2,6.5-.4,9.7-.5.8,0,1.7,0,2.5,0,30.3-.5,60.2,5.3,89.3,13.1,32.4,8.7,65.9,11.8,99.2,14.7.7,0,1.2.1,1.9.1,4.6.4,9.2.6,13.8.4-.2-5.1-.7-10-1.5-15-.1-.8-.3-1.7-.4-2.5-.8-2.4-1.2-2.9-3.4-4.1-1.2-.3-2.4-.5-3.8-.5-.8,0-1.6-.1-2.4-.2-.4,0-.9,0-1.3,0-1.4,0-2.9-.2-4.3-.4-3.4-.3-6.9-.6-10.4-.9-33.8-2.7-66.9-6.9-100-14.6-28.5-6.7-56.3-11.8-85.7-11.9h-2c-12.8,0-25.2,1.2-37.8,3.4h0ZM1445.6,906.3c-.5.5-1,1-1.6,1.5-.8.7-1.2,1.6-1.1,2.5h-1.3c-.6.6-1.1,1.4-1.7,2.2-.3.4-.7,1-1,1.4-.3.5-.7,1-1,1.5-.3.5-.7,1-1,1.5-.7,1-1.2,1.9-1.9,2.9-.6.9-1.2,1.7-1.8,2.6-.9,1.3-1.5,2.7-1.8,4.2.6.1,1.2.4,1.8.5,9.3,3,17.9,8,22.8,16.8,4.2,8.7,5.2,18.2,2.3,27.4-1.3,3.3-2.9,6.4-5.1,9.2-.7.8-1,1.7-.9,2.6,7.9,2.1,15.9,3.8,23.9,5.4.6.1,1.2.2,1.8.4,11.2,2.1,22.2,3.7,33.5,5.1,20,2.3,34.3,4.5,43.1,6.7,10.9,2.7,21.3,4.8,32.6,4.9h2.1c4.6,0,8.9-.3,12.5-3.5,1-2.3.8-3.2,0-5.5-8.3-11.8-24-18-37-23-13.1-5.1-24.4-12.5-35.2-21.3-.7-.6-1.6-.9-2.6-.8-.2-.7-.4-1.3-.7-2.1-1-.8-1.9-1.5-2.9-2.3-4-3.2-7.7-6.8-11.4-10.4-.6-.6-1.2-1.1-1.8-1.7-3.3-3.3-6.1-6.7-8.6-10.6-.3-.4-.6-.8-1-1.2h-1.3c-.1-.4-.3-.7-.4-1.1-1.2-2.3-2.9-4.1-4.6-6.1-.4-.4-.7-.8-1.1-1.2-4.3-5-8.7-9.8-13.4-14.5h-1.3v-1.3c-4.5-3.6-8.9-5.5-14.7-5.1-7.6,1.5-13,7.3-18.3,12.5h0ZM1117.7,917c.4,3.3.9,6.5,1.7,9.7,3.2,16.1.4,32.1-4.4,47.5-.1.4-.3,1-.4,1.5-2.5,7.8-6.4,14-11.1,20.6-.9,1.1-1.6,2.2-2,3.5,12.4,0,24.8-.1,37.2-.5h1.5c45.3-1.3,90.6-3.2,135.9-5.9.9,0,1.7,0,2.6-.1,16.8-1,33.6-2,50.4-3.4,10.9-.9,21.8-1.5,32.7-2.1,2.6-.1,5.2-.3,7.8-.4s5.2-.3,7.8-.4c.5,0,1,0,1.5,0,5.8-.3,11.7-.5,17.5-.7h1.7c2.6,0,5.3,0,7.9-.1h5.3c1.3,0,2.4-.5,3.2-1.2.9-1.3,1.2-2.3,1.5-3.9.1-.5.2-1.1.4-1.6,0-.6.2-1.1.3-1.7.1-.6.2-1.1.4-1.7,2.8-13.9,3.4-31.2-1.8-44.7-1.7-1.7-2.5-1.6-4.8-1.8-.7,0-1.5-.1-2.2-.2-.8,0-1.6-.1-2.4-.2-.8,0-1.7-.1-2.5-.2-1.8-.1-3.6-.4-5.4-.5-4.3-.4-8.5-.8-12.8-1.2-1,0-1.9-.1-2.9-.3-12.6-1.2-25.2-2.6-37.7-4.3-.5,0-1-.1-1.6-.2-3.7-.4-7.3-1-10.9-1.5-.9-.1-1.8-.2-2.6-.4-14.3-2.1-28.3-5.4-42.3-8.7-25.4-6.2-50.2-11.5-76.5-12.1-.5,0-1.1,0-1.6,0-31.1-.8-62.6,5.8-91.3,17.5h0ZM1414.6,901.6c-1.2,3.6-.2,7.1.4,10.8,0,.7.2,1.5.3,2.2.3,2.5,1.2,4.9,2.5,7,1.6,1,3.1,1.6,4.9,1.6,1.2-2.2,2.6-4.4,3.8-6.5.4-.6.7-1.2,1.1-1.9.4-.6.7-1.2,1-1.8.3-.5.6-1.1,1-1.7.4-1,.4-2,0-3-2.4-3.4-7.7-5.6-11.7-6.6-1.2,0-2.3,0-3.4,0h0ZM567.1,922.1c-.7.2-1.3.4-2.1.7-.7.2-1.5.4-2.2.7-1.5.5-3.1,1-4.6,1.5-.8.2-1.5.5-2.4.8-3.5,1.2-7,2.3-10.6,3.4-.7.2-1.4.4-2.1.7-4.5,1.5-9.2,2.9-13.7,4.3-7.3,2.3-14.6,4.5-21.9,7-.7.2-1.4.4-2.1.7-4.4,1.5-8.4,3.3-12.5,5.5v2.1c1.5.4,3,.9,4.5,1.3.8.2,1.7.5,2.6.7,7,1.6,14.7.4,21.7-.1,1.6-.1,3.2-.2,4.8-.4,6.7-.5,11.7-1.3,16.9-5.9,8.7-7,19.1-10.8,29.6-14.7-.2-3.1-.4-6.2-.7-9.4-2.1,0-3.4.4-5.3,1h0ZM1107.6,923.1c-1.4,1.4-2.7,2.9-4,4.3-3.7,4.2-7.6,7.8-12.2,11.2-.4.4-.9.7-1.4,1-6.3,4.7-12.7,9.2-19.5,13.1-.4.3-.9.5-1.3.8-8.8,5.1-17.9,8.4-27.6,11.3,1,8.9,6.9,17,13.5,22.9,1,.6,1.9,1,2.7,1.3v1.3c7.4,5.3,15.6,9.8,24.9,8.7.5,0,1,0,1.5-.1,5.6-.9,8.9-4.5,12.3-8.9,11.6-17.4,18.3-39.2,14.5-60.1-.5-2.3-1.1-4.6-2-6.9h-1.5ZM633,926.5c-1.7,3.2-2.3,6.7-1.3,10.1,1.8,1.8,3.8,2.9,6.1,4,2.5-2.6,4.5-5.5,6.1-8.7-2.4-3.1-5.8-4.2-9.4-5.4h-1.5ZM1016.7,935.2l.7,1.3-.7-1.3ZM1425.3,935.2c0,.5.1,1,.3,1.6,2,12.4,2.3,24.4.7,36.8-.2,2.3-.4,4.4-.3,6.7,3.6,1.8,8.9,1.2,12.7.1,5.4-2.4,8.7-6.7,11.2-12,2.1-5.8,2-12.5-.7-18.1-4.7-7.7-11.8-12.8-20.5-15-1.2,0-2.3,0-3.4,0h0ZM565,943.3c-.5.2-1,.4-1.5.7-3.5,1.5-6.8,3.2-10,5.3-.4.2-.8.5-1.2.7-.8.5-1.8,1.2-2.8,2.1v2.1c4.3,2.5,8.5,2.3,13.4,2.2h4.1c2.6.2,5.1,0,7.4-.8,0-1.8,0-3.4,0-5.2v-1.5c0-2.6-.1-5-.7-7.5-3.2-.3-5.8.7-8.7,2h.1ZM589.9,974.2c1,3.4,2.4,5.9,4.5,8.8.3.4.6.8.8,1.2,2.6,3.5,5.4,6.4,9.8,7.3,3.7-.7,5.8-2.8,8-5.7,1-1.6,1.8-2.9,1.7-4.9-.3-.9-.8-1.5-1.6-1.9-.4-.1-1-.3-1.4-.4-.5-.1-1-.4-1.5-.5-.5-.1-1.1-.3-1.7-.5-.6-.1-1.1-.4-1.7-.5-5.5-1.6-11.1-2.3-16.8-2.8h0ZM522.6,983.1c-1.2,2.8-.4,5.6.1,8.4,0,.4.2,1,.3,1.4,1.1,6.5,3.4,12.4,7,17.8,2.2.9,4.4,1.1,6.8,1.3.7,0,1.4.1,2.1.2,6.5.6,13,.7,19.4.7h1.5c12.2,0,28.4-.4,37.6-9.5.4-.4.8-1,1.2-1.5-1-2.6-2.6-3.8-4.7-5.6-3.8-3.4-6.5-7-9.2-11.3-.2-.4-.5-.8-.8-1.2-.5-.9-1.1-2-1.6-3.2-1-2-1.8-3.4-3.2-4.9-3-.9-5.8-.7-8.9-.5-.9,0-1.8,0-2.6,0-15.6.2-30.7,2.9-45,7.8h.1ZM505.7,988c-1,.4-2,.7-3,1.1-.5.2-1,.4-1.6.6-8.5,3.2-17.1,6.2-25.7,8.9-5.6,1.8-11.3,3.8-16.8,6.1-.5.2-1,.4-1.5.7-2.7,1.2-4.9,2.5-7.2,4.5,0,1.1.2,2.2.7,3.4,6.5,5.2,16.2,5.1,24.2,4.7h2.1c7.5-.3,14.7-2,21.9-3.5,2.2-.4,4.4-1,6.5-1.4,1.3-.3,2.7-.6,4-.9.6-.1,1.3-.3,1.9-.4.6-.1,1.2-.2,1.8-.4.5,0,1-.2,1.5-.4.4-.1.8-.3,1.2-.5.7-2.3.6-3.1,0-5.4-.1-.7-.3-1.3-.4-2-.1-.7-.3-1.4-.5-2.1-1.2-4.9-2.1-9.7-2.4-14.7-2.5,0-4.5.8-6.8,1.7h.1Z"/>
  <path d="M464,468.7c3.4,3,6.5,5.8,7,10.6-.1,1.5-.7,2.7-1.5,3.6-3.8,0-5.5-1-8.1-3.7-8.2-7.8-17.6-11.4-29-11.3-7.6.3-12.8,3.1-18.6,7.8-3,3.7-4.7,7.6-4.5,12.5.7,3.5,3,6.6,5.7,8.9,1.5.7,3.1,1.3,4.7,2,.9.5,1.8,1.4,2.7,2.7,0,1.4-.3,2.7-.7,4-2.3,1.5-3.3,1.5-5.9,1-4.3-1-7.3-3.2-10.2-6.5l-1.8-1.8c-3.3-4-4-9.8-3.8-14.8.9-7.1,4.7-14,10.3-18.4,16.9-11.5,38-8.9,53.8,3.4h0Z"/>
</svg>