<?xml version="1.0" encoding="UTF-8"?>
<svg id="Layer_1" xmlns="http://www.w3.org/2000/svg" version="1.1" viewBox="0 0 1920 1080">
  <!-- Generator: Adobe Illustrator 30.0.0, SVG Export Plug-In . SVG Version: 2.1.1 Build 123)  -->
  <path d="M838.3,23.6c.9.1,1.9.3,2.8.4,2.9.4,5.8.8,8.7,1.3q1.3.2,2.6.4c8.4,1.3,16.7,3,24.5,6.5q.8.3,1.6.7c3.2,1.4,5.3,2.9,7.6,5.5,3.2,3.4,6,3.7,10.5,4.1,9.9,1.1,18.9,4,28.4,7.1,1.6.5,3.2,1,4.7,1.5,14.9,4.9,29.5,10,43.7,16.8q.8.4,1.6.8c15,7.2,30,15.4,43.5,25,1.9,1.4,3.9,2.7,5.8,4.1,6.2,4.3,12.2,8.6,18,13.5,2,1.7,4,3.2,6,4.8,4.9,3.9,9.4,8.3,14,12.6,2.1,2,4.3,4,6.5,5.9,7.1,6.1,13.1,12.9,18.9,20.2.6.7,1.2,1.5,1.8,2.2q4.8,5.9,6.5,9.4c1.8,2.7,2.3,3.1,5.2,4.2,3.7,1.6,7.3,3.4,10.8,5.4.6.4,1.3.7,1.9,1.1,30.2,17,61.6,35.1,87.2,58.7,1.7,1.5,3.4,2.8,5.3,4.1.8.6,1.6,1.1,2.4,1.7v1.7q.7.3,1.4.6c2.4,1.3,4,2.9,5.9,4.8.7.7,1.5,1.5,2.2,2.2.8.8,1.5,1.5,2.3,2.3.8.8,1.6,1.5,2.4,2.3.7.7,1.5,1.5,2.2,2.2.7.7,1.4,1.4,2.1,2.1q1.5,1.7,1.5,3.4h1.7c1.5,1.7,2.8,3.4,4.2,5.2.4.5.8,1.1,1.2,1.6.8,1.1,1.7,2.2,2.5,3.3,1.1,1.4,2.2,2.8,3.4,4.3,29.3,36.8,45.4,85.4,40.8,132.4-1.6,14.4-5.1,27.9-10.4,41.3q-.5,1.3-1.1,2.7-2.8,6.9-5.5,9.8c-3.1,4.1-2.1,9.5-2,14.4.6,15.8-.3,31.5-1.3,47.2q0,.9-.1,1.7c-1.5,23.4-3.5,46.7-6,70,0,.7-.2,1.5-.2,2.2-2.8,26.1-7.1,52-11.4,77.9-.1.9-.3,1.7-.4,2.6-3.7,21.7-8.1,43.1-13.1,64.5-1.5,6.2-2.8,12.5-4.1,18.7-3,13.8-6.3,27.4-9.8,41.1.5-.1,1-.3,1.5-.4,13.9-3.7,27.8-6.6,41.9-8.8q1.4-.2,2.8-.4c50.7-7.3,101.2,1.6,150.4,13.7,34.8,8.4,69.9,13,105.6,16,.9,0,1.8.2,2.8.2,2.8.2,5.5.5,8.3.7.9,0,1.8.2,2.7.2,4.3.4,8.6.7,12.8,1.1,7.3.6,14.6,1.2,21.8,2.8,1.4.3,2.8.6,4.2.8q.7-1.2,1.4-2.5c10.7-17.9,26-38.7,47-44.8,8.2-1.7,16.3.9,23.2,5.5,1.2.8,2.3,1.7,3.5,2.6.5.4,1.1.7,1.6,1.1,3.1,2.1,5.3,4.2,7.5,7.2,1.4,1.4,2.8,2.8,4.2,4.2,5.3,5.5,10.2,11.2,14.9,17.3,2.7,3.5,5.5,7,8.4,10.4.4.4.7.9,1.1,1.3,1.6,1.9,3.2,3.7,5,5.4q1.4,1.5,1.4,3.1c.5.2.9.4,1.4.6q1.9,1,3.7,2.8c3,2,5.3,2.1,8.8,2,.6,0,1.3,0,1.9,0,2.1,0,4.3,0,6.4,0,1.5,0,3.1,0,4.6,0,3.3,0,6.6,0,9.9,0,5.2,0,10.4,0,15.6,0,14.8,0,29.6,0,44.4-.1,8.2,0,16.4,0,24.5,0,5.2,0,10.3,0,15.5,0,3.2,0,6.4,0,9.7,0,1.5,0,3,0,4.5,0q11.3-.2,14.9,2.3c1.5,1.7,2.6,3.3,3.7,5.2.5.7,1.1,1.5,1.6,2.2.4.6.8,1.3,1.3,1.9.5.7,1,1.5,1.5,2.2q.7,1.2,1.5,2.4c.5.8,1.1,1.7,1.6,2.5,5,7.7,9.9,15.5,14.7,23.4,2.4,3.9,4.9,7.8,7.4,11.7,1.4,2.2,2.8,4.4,4.2,6.7,4.4,7.1,9,14.1,13.6,21.1q9.5,14.4,9.5,16.9h1.7c.3.6.7,1.3,1,1.9,3.9,7.1,8.3,13.8,12.8,20.6,3.6,5.3,7,10.8,10.3,16.3,2.5,4.2,5.2,8.4,7.9,12.5,6.7,10.2,13.2,20.5,19.5,31,3.7,6.1,7.7,11.9,11.8,17.7q4.6,6.7,4.8,10.6c-.6,3.3-1.3,4.4-3.9,6.3-2.4,1.2-4.6.9-7.3.9-.6,0-1.2,0-1.8,0-2,0-4,0-6,0-1.4,0-2.9,0-4.3,0-4,0-8,0-12,0-4.4,0-8.7,0-13.1,0-7.7,0-15.3,0-23,0-11.5,0-23,0-34.5,0-19.6,0-39.1,0-58.7,0-19.8,0-39.7,0-59.5,0-1.3,0-2.5,0-3.8,0-5.1,0-10.2,0-15.3,0-61.8,0-123.6,0-185.5,0-19.3,0-38.7,0-58,0-6.4,0-12.9,0-19.3,0q-1.1,0-2.1,0c-72.6,0-145.2,0-293.2,0-8.5,0-16.9,0-25.4,0-.8,0-1.5,0-2.3,0-15.4,0-30.9,0-46.3,0-3.9,0-7.7,0-11.6,0-73.1,0-146.2,0-219.3,0q-1.2,0-2.3,0c-25.6,0-51.2,0-76.8,0-23.1,0-46.3,0-69.4,0-.8,0-1.5,0-2.3,0-47.6,0-95.1,0-142.7,0-.7,0-1.5,0-2.2,0-32.3,0-64.5,0-96.8,0-13,0-25.9,0-38.9,0-2.2,0-4.3,0-6.5,0-32.9,0-65.8,0-98.8,0-.7,0-1.4,0-2.2,0-11.4,0-22.9,0-34.3,0-32.4,0-64.9,0-97.3,0-.7,0-1.3,0-2,0-14.3,0-28.7,0-43,0-5.7,0-11.4,0-17.2,0q-.9,0-1.9,0c-19.8,0-39.6,0-59.5,0-20,0-40.1,0-60.1,0-11.4,0-22.8,0-34.2,0-7.6,0-15.1,0-22.7,0-4.3,0-8.6,0-12.9,0-3.9,0-7.8,0-11.7,0-1.4,0-2.8,0-4.2,0-1.9,0-3.8,0-5.7,0-1.1,0-2.1,0-3.2,0q-2.6-.5-4.6-2.5t-2.2-4.7c1.9-6.8,5.9-12.3,9.8-18.1,4.2-6.2,8.1-12.5,12-18.8,3.2-5.3,6.5-10.5,9.9-15.7,1-1.5,1.9-3,2.9-4.5,6-9.5,12.1-19,18.2-28.5,2.9-4.6,5.9-9.1,8.7-13.8,3.5-5.7,7.1-11.4,10.8-17.1,3.3-5.2,6.6-10.4,9.9-15.6,6.8-10.7,13.6-21.4,20.5-32.1,4.7-7.3,9.4-14.5,13.9-21.9q12.3-20.1,17-22.6c2.6-.4,5.2-.3,7.8-.3.8,0,1.6,0,2.4,0,2.7,0,5.4,0,8.1,0,1.9,0,3.9,0,5.8,0,4.8,0,9.6,0,14.4,0,5.7,0,11.5,0,17.2,0,10.6,0,21.2,0,31.8,0,10.5,0,21,0,31.5,0,.7,0,1.3,0,2,0,3.3,0,6.6,0,9.9,0,23.5,0,47,0,70.4,0,22.8,0,45.6,0,68.4,0,.7,0,1.4,0,2.1,0,7.1,0,14.1,0,21.2,0,14.4,0,28.8,0,43.1,0,.7,0,1.3,0,2,0,44.2,0,88.3,0,132.5.1-.2-3.6-.4-7.2-.7-10.8,0-1.2-.1-2.4-.2-3.6-.7-11-1.5-21.9-2.5-32.9-.5-5.3-.9-10.6-1.4-15.8,0-1.1-.2-2.1-.3-3.2-.9-10.2-1.7-20.3-2.5-30.5-.1-1.8-.3-3.6-.4-5.4-1.4-17.4-2.3-34.7-2.2-52.1q0-1.1,0-2.2c0-11.6.4-23.1,1.8-34.7,0-.8.2-1.5.3-2.3,2-16.7,5.6-31.1,13.1-46.1.6-6.2.7-11.7-1.9-17.5-2.2-5.1-3.3-10.2-4.2-15.7-.1-.8-.3-1.6-.4-2.4-2.4-15-2.1-30.3-2.5-45.5,0-1.8,0-3.7-.1-5.5-.1-6.5-.3-13-.4-19.5-.1-5.3-.2-10.5-.3-15.8-.6-28-1.1-55.9-1.2-83.9,0-1.8,0-3.6,0-5.4,0-19,.7-38,2.1-56.9q.5-6.9-1.7-13.3c-2-1.9-3.4-3.1-6-4-9.2.9-18.9,9.5-25.9,15-.9.7-1.7,1.3-2.6,2q-4.9,3.8-8.2,8.8c.3.3.6.7,1,1,6.1,6.4,12.1,12.8,17.4,19.9.3.4.7.9,1,1.3,10.4,13.7,17.2,27.6,15.5,45.3-1.3,9.1-5.1,14.7-12.3,20.2-3.2,2.2-6.6,4.2-10,6.2-.9.6-1.9,1.1-2.8,1.7-2.7,1.6-5.4,3.1-8.1,4.7q-1,.6-2,1.1c-15.4,8.7-32,15.7-48.5,22-2.3.9-4.5,1.8-6.7,2.8-44.3,20-102.2,37.3-149.6,19.8-13.9-5.5-25.4-13.8-36.2-24-.7-.6-1.4-1.3-2.1-1.9-20.1-19.1-30.5-47.2-36.5-73.7q-.3-1.3-.6-2.7c-2.7-12.3-3.7-24.5-3.6-37.1q0-.9,0-1.9c.1-34,11.1-64.3,35.6-88.5,26.3-25.4,61.6-36.6,97.6-37.3,18.9.4,37.6,4,55.6,9.6,5.1,1.5,9.3,2.3,14.4-.1,1.7-1,3.4-2.1,5-3.3,1.3-.8,2.5-1.7,3.8-2.5.6-.4,1.3-.9,1.9-1.3,2.4-1.6,4.7-3.1,7.1-4.7q16.5-10.4,31.5-22.7c2-1.9,4.3-3.3,6.6-4.8,5.9-4.1,8.2-7.6,10-14.5,4.5-15.6,15.8-30.2,26.3-42.4q1.3-1.5,2.1-3.2h1.7c.2-.4.4-.9.5-1.3,1.6-2.8,3.8-5,6-7.3,2.5-2.7,5-5.3,7.4-8.2,1.7-2,3.3-3.6,5.3-5.3,1.8-1.6,3.6-3.1,5.3-4.9,6.2-6.2,12.9-11.8,19.7-17.2.8-.7,1.7-1.3,2.6-2,6.2-4.9,12.7-9.4,19.3-13.7,1.4-.9,2.8-1.9,4.2-2.8,8.3-5.6,17.1-10.1,26-14.6,1.7-.9,3.5-1.8,5.2-2.7,4.9-2.5,9.9-4.6,15-6.5,2.1-.8,4.1-1.7,6.1-2.6,34.3-15.4,73.1-22,110.1-26,.9-.1,1.8-.2,2.7-.3,34.9-3.7,71.1-2.2,105.8,2.8ZM730.7,32.8c-1,0-1.9.1-2.9.2q-1.3.1-2.7.2c-.8,0-1.6.1-2.4.2q-2.1.2-4.5,1.1c-1.2.2-2.5.3-3.7.5-26.5,2.9-51.1,9.7-76.4,17.9-1,.3-2,.7-3.1,1-5.2,1.7-10.3,3.6-15.3,5.8-2,.8-3.9,1.6-5.9,2.4-14.7,6.1-28.5,13.5-41.7,22.5-1.2.8-2.5,1.7-3.7,2.5-8.9,6-17.3,12.3-25.5,19.2-.6.5-1.3,1.1-1.9,1.6-7.1,6.1-14,12.6-20.6,19.3-.8.7-1.5,1.5-2.3,2.3q-1.2,1.1-2.3,2.3-1.2,1.1-2.4,2.3-3.9,3.5-5.5,8.1h-1.7q-1.2,1.2-2.4,2.9-.8,1-1.6,2.1c-.6.8-1.2,1.7-1.9,2.5-.8,1-1.6,2-2.3,3.1q-15.7,19.3-21.7,42.3c.5,2.4,1.1,4.8,1.6,7.2q.3,1.4.7,2.8c6,24.5,15,48.7,25.9,71.4.5,1.1,1,2.2,1.5,3.4,3,6.6,6.2,13,9.8,19.2.4.6.7,1.3,1.1,2,2.6,4.5,5.5,8.6,9.3,12.2h1.7c1-8.6,1.9-17.3,2.6-25.9q.1-1.3.2-2.6,1.4-9.7-1.7-18.3c-11.7-16-13.1-37.1-10.8-56.2,4-22.6,16.9-41.7,35.5-54.9,12.8-8.8,27.3-12.7,42.6-14,.7,0,1.5-.1,2.2-.2,20.8-.8,42,9,57.2,22.6,6.1,5.7,10.7,12.1,14.8,19.4q.8,1.4,1.6,2.8c10.4,19.3,12.2,42.7,6.1,63.7-3.4,10.2-7.5,19.7-14.7,27.9q-2.3,2.1-2.1,4.1h-1.7c-.8.9-1.6,1.9-2.4,2.9-1.9,2.3-3.3,3.7-6,5.1-3.1,1.6-5.7,3.2-7.5,6.2-1.5,6.7-.4,13.8.2,20.5.1,1.9.3,3.8.4,5.7.3,4.6.7,9.3,1.1,13.9,32.6-1.8,64.9-11.7,94.4-25.3,21.8-10,42.9-16.4,66.7-18.9q.9-.1,1.9-.2c16-1.7,32.6.3,48.5,1.7q9,.8,17.2-2.3c3-4.6,4.7-9.3,6.4-14.5.3-.9.6-1.7.9-2.6,11.7-36.4,17.9-73.4,18-111.7,0-.7,0-1.4,0-2.1,0-35.7-5.1-72.3-16.9-106.1-.4-1-.7-2-1.1-3.1-2-4.6-4.1-6.6-8.8-8.5-2.3-.7-4.5-1.2-6.8-1.8q-1-.3-2.1-.5c-43.2-10.5-89-10.5-133.1-7ZM895.1,53.7c-1,3-.6,3.5.6,6.4,2.2,5.8,3.5,11.8,4.9,17.8.4,1.6.8,3.2,1.2,4.8,2.4,9.4,3.6,19.1,5,28.7q.2,1.4.4,2.9c4.7,32.2,4.5,68.5-.4,100.6-.1.9-.3,1.9-.4,2.8-3.8,25.6-10.7,51.7-20.5,75.6.4.3.8.5,1.2.8,3.9,2.4,7.8,4.9,11.6,7.4.6.4,1.1.7,1.7,1.1,1.2.8,2.4,1.6,3.5,2.3,1.8,1.2,3.6,2.3,5.4,3.5,5.6,3.6,11.1,7.3,16.5,11.2,2.6,1.8,5.3,3.5,8,5.2,2.5,1.6,4.8,3.2,7.2,4.9.8.5,1.6,1.1,2.4,1.6,1.6,1.1,3.1,2.2,4.7,3.3.7.5,1.5,1,2.2,1.5q1,.7,2,1.4,1.9,1,4.1.2c1.9-1,3.4-2,5-3.4.5-.4,1.1-.9,1.6-1.3.6-.5,1.1-.9,1.7-1.4.6-.5,1.2-1,1.8-1.5,1.2-1,2.4-2,3.6-3,2.1-1.7,4.2-3.4,6.3-5.1,8.6-7.1,16.9-14.3,24.7-22.3,2.4-2.5,4.9-4.9,7.5-7.1,5.9-5,10.8-11.1,15.8-17,1-1.2,2.1-2.4,3.2-3.5,5.3-5.8,10.2-11.9,15-18.2.5-.6,1-1.3,1.5-2,6.2-8,12.2-16.1,17.5-24.7,1.2-2,2.5-4,3.7-5.9,5.3-8.5,10.3-17.2,15-26.1.4-.9.9-1.7,1.3-2.6q5.6-9.4,6.1-19.7-.9-1.6-2.2-3c-.5-.6-.9-1.1-1.4-1.7-.5-.6-1-1.2-1.5-1.8-.5-.6-1-1.2-1.6-1.9-8.7-10.3-17.9-20.4-28.2-29.2-2.2-1.9-4.3-3.9-6.4-5.9-11.6-10.8-25-20.4-38.5-28.6q-2-1.3-4.1-3c-2.1-1.6-4.1-2.8-6.4-4.1-.8-.4-1.6-.9-2.5-1.3-.8-.4-1.6-.9-2.5-1.3-1.4-.8-2.9-1.6-4.3-2.3-.8-.4-1.5-.8-2.3-1.3-1.3-.7-2.7-1.5-4-2.2-21-11.7-43.4-20.2-66.4-27.1-.9-.3-1.8-.6-2.8-.8-5.9-1.7-11.8-2.9-17.8-3.8ZM545.7,177.8c-12.7,14.9-18.1,33.4-17.1,52.8.4,4.2,1,8.4,1.7,12.5l1.7-.8q.5-1.5.7-3.4c.1-.7.2-1.4.4-2.1.1-.7.3-1.5.4-2.3,2.8-14.7,9.1-28.1,21.5-37.2,13.2-8.7,27.5-12.9,43.2-10,10.2,2.1,19.7,6.3,27,13.9q1,1.2,2.8,1c.2.5.4.9.6,1.4,1.2,2.3,2.7,4.2,4.2,6.2,8.9,12.2,12.5,25.8,11,40.8-.6,3.2-1.2,6.3-1.9,9.5-1.3,7.1-.9,14.3.3,21.4,10.9-4.6,18.2-18.2,22.9-28.4,3.1-7.7,5-15.8,5.5-24.2q0-1,.1-2c.6-18.2-6-37-18.3-50.4-13.1-13.7-29.3-23-48.6-23.7-23.3-.4-42.2,7.9-58,25ZM1098.8,183c-.4.7-.7,1.4-1.1,2.2-1.5,3-3,6-4.5,8.9-.8,1.5-1.5,3.1-2.3,4.6-6.1,12.1-12.6,23.6-20.1,34.9-1.2,1.8-2.3,3.5-3.4,5.3-3.9,6.2-8.1,12.1-12.7,17.8-1.1,1.4-2.2,2.8-3.3,4.2-9.7,12.6-20.1,24.8-31.5,35.8q-1.5,1.3-1.3,3.1h-1.7c-2.1,1.9-3.8,3.5-5.1,6q-.8,1.5-2.3,2.2c-2.3,1.2-3.6,2.7-5.4,4.5-2.9,3-5.8,5.5-9.2,7.9-2.1,1.6-3.8,3.4-5.6,5.3-4.5,4.2-9.3,8-14.2,11.7-.9.7-1.8,1.4-2.8,2.1q-8,6.1-11.4,8.7c.4,4.3,1.9,7.5,4.1,11.2.3.6.7,1.2,1,1.8,3.4,5.8,7.3,11.1,11.3,16.4,1.9,2.5,3.7,5,5.5,7.6.7,1,1.4,1.9,2,2.9,1.3,1.8,2.6,3.7,3.9,5.5.6.8,1.2,1.7,1.8,2.5.5.7,1.1,1.5,1.6,2.3q.7.8,1.3,1.6h1.7c.2.5.4.9.6,1.4,3.5,6.4,9.2,11.9,14.1,17.3,1,1.2,2.1,2.3,3.1,3.5,4.5,5.3,9.4,10.2,14.3,15.1,1.5,1.5,3,3,4.5,4.5,5.3,5.4,10.8,10.4,16.8,14.9.9.7,1.9,1.5,2.8,2.2q9,7.1,18.9,12.8c.8-.3,1.7-.6,2.5-.8,0-.5.1-1.1.2-1.6,3.6-34.9,13.9-73.9,42-97.6,13.9-10.8,29.5-17,47.2-17.6.6,0,1.2,0,1.8-.1,21.3-.7,41.9,7,57.6,21.2.8.7,1.6,1.5,2.4,2.3.8.7,1.5,1.4,2.3,2.1,18.5,17.9,28.2,41.5,33.6,66.3h1.7c6-16.4,9.6-32.6,10-50.1,0-.8,0-1.7.1-2.5,1.1-46.8-22.2-92.7-53.8-126.1-1.6-1.6-3-3.3-4.5-5.1-1.7-2-3.3-3.6-5.2-5.2-2.2-1.9-4.2-3.7-6.2-5.8-5.9-6-12.8-11-19.6-16-1.5-1.1-2.9-2.2-4.4-3.4-6.5-5.4-13.6-10-20.7-14.7-1.2-.8-2.5-1.7-3.7-2.5-2.3-1.5-4.6-3-6.9-4.5-2.7-1.8-5.3-3.5-8-5.3-1.5-1-3.1-2-4.6-3-.7-.5-1.5-1-2.3-1.5q-2.3-1.4-4.7-2.6c-3.3-1.6-6.4-3.5-9.5-5.3-4.2-2.5-8.4-5-12.7-7.4-.7-.4-1.4-.8-2.1-1.2q-1.8-1-4.3-.8ZM555.5,212.5c-8,10-12.5,21.6-11.6,34.5,1.2,10.7,4.1,18.5,10.6,27,.6.9,1.3,1.8,1.9,2.7,7.6,8,18.3,13.2,29.3,13.4,13,.1,23.4-2.8,33.1-11.9,1.5-1.6,2.8-3.3,4.1-5,.4-.5.9-1.1,1.3-1.6,7-9.4,9.6-21.6,8.4-33.2-2.2-13.6-8.8-24.5-19.5-32.9-19-12.9-42.1-9.3-57.7,7.1ZM461.9,207.4c-10.5,8.9-21.9,16.6-33.4,24q-.7.5-1.4,1c-8,5.2-16.2,10.1-24.4,14.9,2.4,9.3,5.5,18.4,8.6,27.5,2,5.9,4,11.7,5.4,17.8q1.9,8.6,7.1,15.4c4.5,2.7,9.3,4.4,14.3,6,3.1,1.1,5.9,2.6,8.7,4.3.9.5,1.8,1.1,2.7,1.6,3.5,2.3,6.7,4.8,9.9,7.4,1.3,1,2.6,2,3.9,3,2.3,1.8,4.4,3.6,6.5,5.7l2.1,2.1h1.7v-1.7c.5-.2.9-.4,1.4-.6,2.5-1.4,4.3-3.3,6.4-5.3,8.3-7.9,18.2-13.6,28.1-19.2-.5-3.1-1.3-5.2-3-7.8-11.1-18-19.2-37.5-26.2-57.3-.3-.8-.5-1.5-.8-2.3-1.5-4.2-2.9-8.4-4.4-12.5-.6-1.7-1.2-3.5-1.8-5.2-2.6-7.4-4.5-14.9-6.3-22.5-1.8,0-3.7,2.4-5,3.5ZM241.5,272.3c-.6.6-1.3,1.2-1.9,1.8-19.4,18.3-29.2,44.3-30,70.7-.7,27.6,3.5,54,14.4,79.5.3.6.5,1.3.8,1.9,5.9,13.7,13.7,25.1,24.2,35.6l1.9,1.9c10.2,9.6,23.4,16.4,36.6,20.9.6.2,1.2.4,1.8.6,37.7,12.2,82.5-4.1,118.3-16.7q1.2-.4,2.4-.8,50.7-17.3,93.6-47.6c3.2-8.3,2.3-18.3-.9-26.5-4.9-10.7-12.9-20-20.8-28.6-.9-1-1.7-2-2.6-3-16.7-19.1-36.3-38.1-61.7-44.6-3.4-1.6-4.8-4.6-6.2-7.9-.4-1.1-.7-2.3-1.1-3.4-.2-.6-.4-1.2-.6-1.9-.7-2-1.3-4-1.9-5.9-.4-1.4-.9-2.7-1.3-4.1-1.3-3.9-2.6-7.9-3.8-11.8-.3-1-.6-2-1-3-.8-2.4-1.6-4.8-2.3-7.2-.2-.7-.5-1.4-.7-2.2-1-3.3-2.1-6.6-3-10q-.3-.9-.5-1.9c-.5-1.6-.9-3.3-1.4-5-1.4-3.1-2.3-3.5-5.3-5-1.8-.6-3.5-1.1-5.3-1.6-1-.3-2.1-.6-3.1-.9-1.1-.3-2.2-.6-3.3-.9-.6-.1-1.1-.3-1.7-.4-9.1-2.4-18.1-4.3-27.4-5.4-.9-.1-1.8-.2-2.8-.3-2.7-.3-5.4-.4-8.1-.5-.6,0-1.2,0-1.8,0-34.3-1.1-69,9.4-93.4,34.3ZM542,278.2c-1.6,15.5-2.9,31-3.9,46.5,0,.8-.1,1.6-.2,2.4-1.7,25.7-2,51.2-1.9,76.9,0,4.6,0,9.1,0,13.7,0,18,0,36,.7,54,.2,6,.3,12.1.4,18.1,0,1,0,2,0,3,0,2,0,4,0,5.9.2,15.9.5,31.9,1.3,47.8,0,.7,0,1.4,0,2.1.3,7.4.9,14.7,1.6,22,0,.7.1,1.3.2,2,.3,2.9.7,5.7,1.5,8.5h2.5q1.3-1.3,2.6-3.1c5.7-6.8,13.9-9,22.5-10.3,4.6-.2,8.7.2,13.1,1.4.6.1,1.2.3,1.7.4,9,2.4,19,6.9,24.3,14.9.8-.3,1.7-.6,2.5-.8,5.2-27.1,8.4-54.4,11.7-81.8.1-1,.2-2,.4-3,4-32.9,6.7-65.8,8.8-98.8,0-.9.1-1.8.2-2.7,2.4-37.8,3.5-76.5-1-114.1-2.9,1.4-4.7,2.9-7,5.2-10.2,9.3-24.8,14.1-38.6,13.5-16.3-1.8-30.4-8.6-41-21.4-.6-.7-1.2-1.5-1.9-2.2h-.8ZM751,317.7c-.9.4-1.9.8-2.9,1.2-4.1,1.8-8.3,3.5-12.4,5.3-19,8.4-39.2,14.1-59.3,19.1,0,1,0,1.9,0,2.9-.9,50.4-4.8,100.5-9.8,150.7-.2,2.1-.4,4.2-.6,6.3-1.4,14.8-3.1,29.5-5.1,44.1,0,.6-.2,1.2-.3,1.9q-2.7,19.9-6.1,28.4c-1.4,3.6-1.8,6.4-1.6,10.2,0,2-.4,3.8-.8,5.8-.3,5.4.7,10.5,1.7,15.9,5.4,32.5,3.6,67.3.3,100-.3,2.5-.5,5-.7,7.5-3.4,34.1-7.4,68.2-11.9,102.2,0,.7-.2,1.3-.3,2-.4,3.1-.8,6.3-1.2,9.4-.1,1.1-.3,2.2-.4,3.3-.1.9-.3,1.9-.4,2.9-.5,4.1-.8,8.2-1.2,12.3,23.8.2,47.6.3,71.4.5.9,0,1.8,0,2.8,0,72.4.4,144.9.3,227.6,0,2.1,0,4.1,0,6.2,0,35.1-.1,70.2-.3,105.3-.5-.1-.9-.2-1.8-.3-2.8-.2-1.2-.3-2.4-.5-3.7,0-.6-.2-1.2-.2-1.8-9.2-73.8-17-148.1-10.4-338,0-.7.1-1.3.2-2,.7-7.7,1.4-15.4,2.4-23,.5-4,.7-7.8.5-11.8-1.6-1.8-2.7-2.9-4.6-4.3-1-.8-2-1.6-3-2.4-.5-.4-1.1-.8-1.6-1.2-2.7-2.2-5.2-4.5-7.7-6.9q-.8-.7-1.6-1.5c-4-3.8-8-7.7-12-11.6-.5-.5-1.1-1.1-1.6-1.6-3.2-3.2-6.2-6.5-9.2-9.9-1.5-1.8-3.1-3.5-4.7-5.2-4.9-5.4-9.2-11.3-13.6-17.1-1.5-2-3.1-4-4.7-6-3.8-4.8-7.3-9.8-10.8-14.8-2.1-3-4.2-6-6.3-9-1.5-2.2-2.6-4.6-3.8-6.9-.8-1.4-1.6-2.8-2.5-4.2-2.3-3.9-4.4-7.5-5.4-12.1-.9-3.4-2.1-4.7-5.1-6.6-.8-.5-1.5-1-2.3-1.5-.8-.5-1.6-1-2.4-1.5-.7-.5-1.4-.9-2.2-1.4-2.2-1.5-4.5-2.9-6.7-4.4-1.7-1.1-3.4-2.2-5.1-3.3q-1.3-.8-2.6-1.7c-4.1-2.6-8.1-5.3-12.2-7.9-1.6-1-3.2-2.1-4.7-3.1-.8-.5-1.6-1-2.4-1.6-2.6-1.7-5.2-3.4-7.9-5.1-.9-.6-1.8-1.1-2.7-1.7-1.7-1.1-3.4-2.2-5.1-3.3-.8-.5-1.5-1-2.3-1.5-.7-.4-1.3-.9-2-1.3-1.4-.9-2.8-1.9-4.2-2.8q-1.8,0-3.8.3c-1.5.2-3,.4-4.5.6-.6,0-1.2.2-1.8.3-5.7.7-11.1.3-16.8-.2-36.3-2.9-68.5,0-102.1,14.4ZM652.8,346.6c-.7,0-1.4.2-2.1.2-1.7.2-3.4.4-5.1.6-1,3.2-1,6.5-1,9.9,0,1.4,0,2.8,0,4.2,0,.7,0,1.5,0,2.3-.8,57.5-6.6,115.1-14.4,172-.1,1-.3,2-.4,3.1-.3,1.9-.5,3.8-.8,5.6-.1.8-.2,1.7-.3,2.5-.1.7-.2,1.4-.3,2.2-.2,2.1-.4,4.1-.2,6.2q1.6,1.6,3.9,2.9c2.6,1.7,5.1,3.3,7.4,5.4q1.9,1.9,3.8,1.7c.3.8.6,1.7.8,2.5.8-.3,1.7-.6,2.5-.8,2.1-11.3,3.7-22.7,5.2-34.2.1-1,.2-1.9.4-2.9,2.4-18.9,4.3-37.8,6.1-56.7.2-2.2.4-4.3.6-6.5,2.6-27,5.1-54,6.2-81.2,0-.8,0-1.6,0-2.4q2.3-19.2-.3-37.3c-4-.1-8,.4-11.9.8ZM1158.3,366c-15.5,1.3-28.8,7.5-39.5,19-.7.7-1.4,1.3-2.1,2-18.8,19.1-26.1,45.8-30.5,71.4-.2,1-.4,2.1-.6,3.1-.9,5.3-1.4,10.5-1.9,15.8-.7,7.7-1.6,15.4-2.6,23.1-1.9,14.9-3.4,29.8-4.7,44.7,0,.9-.2,1.8-.3,2.8-2.7,29.1-3.7,57.9-3.6,87.1,0,1.7,0,3.5,0,5.2,0,24.3.3,48.4,2.5,72.6.3,3,.5,6,.8,8.9,1.3,15,2.7,29.9,4.2,44.8.3,3,.6,6,.9,9,3.2,32.9,7.3,65.6,12.9,98.2.2,1,.4,2.1.5,3.1.5,3,1,5.9,1.6,8.9.1.9.3,1.7.5,2.6,1.5,8.2,3.1,16.3,9,22.4,4.5,2.2,10.6-.8,15-2.3,25.1-8.8,57.9-28,71-52,2.7-6,4.5-12.2,6.1-18.6.2-1,.5-2,.8-3.1,2.1-8.8,4-17.7,5.9-26.7,2.6-12.4,5.3-24.7,8.2-37,.2-.9.4-1.9.7-2.8,1.8-7.7,3.6-15.3,5.3-23,7.3-31.3,13.3-62.7,18.3-94.4.6-3.7,1.2-7.4,1.8-11.1,5.1-31.2,8.6-62.5,10.9-94,0-.9.1-1.9.2-2.8q5.9-78.9-25.3-149.3c-14.7-16.8-33.1-26.4-55.4-28.2-3.5,0-7,.2-10.5.4ZM1053.7,476c-8.7,69.3-12.5,140.3-7.6,210,.1,2.1.3,4.2.4,6.2,1.4,21.7,3.2,43.3,5.3,65,.3,2.7.5,5.4.8,8,2.2,22.3,4.6,44.5,7.9,66.7.1.9.3,1.9.4,2.8,1.3,8.8,2.6,17.5,4.9,26.2q.2.9.5,1.8c1.2,4.2,2.9,6.7,5.9,9.7,2.9,1,5.3.9,8.3.8.6-.3,1.1-.6,1.7-.8-.4-5-1-9.9-1.8-14.8,0-.6-.2-1.2-.3-1.8-.1-.6-.2-1.2-.3-1.9-6.3-39-9.9-78.3-13.4-117.6q-.1-1.3-.2-2.5c-6.7-74.9-5.4-150.6,3-225.3,0-.8.2-1.5.3-2.3.4-3.5.8-6.9,1.2-10.4.1-1.2.3-2.4.4-3.6.1-1,.3-2,.4-3.1q.2-2.4-1.1-3.9c-2.4-1.7-4.8-3.3-7.2-4.9-.5-.3-1-.7-1.6-1-2.5-1.6-4.7-2.8-7.7-3.5ZM626.3,567.8c-1.3,1.3-1.2,2.5-1.5,4.3-.1.7-.3,1.4-.4,2.2-.1.8-.3,1.6-.4,2.4-1.4,7.9-3.5,15.3-6.1,22.9q-.6,1.9-.8,3.3.8,1,2.6.9c7.1-.5,13.8-1.6,18.7-7.2,3.1-4,3.4-8,2.9-12.9-1.7-6.3-6.7-10.3-11.7-14.2q-1.8-1-3.3-1.7ZM552.9,587c-4.5,5.7-5.4,10.4-4.6,17.6.6,3.5,1.9,6.2,3.8,9.2q.7,1.1,1.4,2.2c7.1,7.3,15.9,10,25.9,10.5,8.4-.2,15.7-1.4,21.8-7.5,4.4-5,4.7-9,4.6-15.6-.4-4.2-1.8-6.5-4.5-9.6q-.9-1.3-1.8-2.6c-4.9-5.6-12-9-19.1-10.8-.7-.2-1.3-.4-2-.6-9.7-1.2-18.3.3-25.5,7.3ZM637,611.1c-6.7,3-13.4,4.1-20.7,5.1.3,4.8.9,9.6,1.7,14.3,2.9,17.4,3.7,35,3.6,52.6,0,1,0,1.9,0,2.9,0,21.3-1.5,42.4-3.5,63.5-.2,1.9-.4,3.8-.5,5.6-2.4,25.9-4.9,51.7-7.7,77.5-.1.9-.2,1.9-.3,2.9-.5,4.2-.9,8.4-1.4,12.6-.2,1.4-.3,2.8-.5,4.3,0,.6-.1,1.2-.2,1.9-.3,3.2-.4,5.8.5,8.9,1.7.6,3.4,1.1,5.2,1.7,1,.3,1.9.6,2.9.9,2.5.7,4.4.8,7,.7,2.6-9.8,3.9-19.8,5.3-29.8.1-.9.3-1.8.4-2.7,2.2-15.8,4.2-31.6,6-47.5.7-5.7,1.3-11.3,2-17,2.3-18.9,4.5-37.8,6.1-56.8,0-.7.1-1.5.2-2.2.1-1.3.2-2.7.3-4,.2-2.8.5-5.5.9-8.2.4-2.8.6-5.6.7-8.5,0-1.1,0-2.2.1-3.3,0-1.2,0-2.3,0-3.5,0-.6,0-1.2,0-1.8.5-18.9.6-37.7-.5-56.5,0-.7,0-1.3-.1-2-.1-1.9-.2-3.8-.3-5.6,0-1.1-.1-2.2-.2-3.3q0-2.5-1.1-4.2c-2.6,0-3.7.4-6.1,1.6ZM540.3,622.1c-.5,1.8-1,3.5-1.6,5.3-.3,1-.6,2-.9,3-15.5,56.9-3.4,122.6,1.2,180.4q2.9,36.1,4,53.3c0,.6,0,1.2.1,1.9.4,6.2.7,12.3,1.1,18.5.7,12.3,1.9,24.3,3.6,36.5,2.8.9,5.4,1.2,8.4,1.5,7,.8,13.8,2.3,20.7,3.9,3.1.7,6.2,1.4,9.3,2.1,1.2-3.3,2-6.4,2.5-9.9.1-1,.3-1.9.4-2.9.1-1,.3-2,.4-3.1.1-1.1.3-2.1.4-3.2,1.5-11.4,2.8-22.9,4.1-34.3.1-1.1.2-2.2.4-3.3,2.1-18.5,4-37.1,5.8-55.7,1.3-13.5,2.7-27,4.2-40.6,5.1-47.8,9.3-96.2,3.5-144.1q-2.5-1.1-4.5,0c-.8.5-1.6.9-2.4,1.4-12.3,6.4-24.5,6.3-37.4,2.4-6.7-2.2-12.5-5.9-18.2-10.1-1.7-1.2-3.3-2.1-5.1-2.9ZM1592.9,819.1c-3.4,4.5-6.8,9.1-9.2,14.2q.9.4,1.8.8,13.6,6.1,15.3,8.1,1.2,1.3,2.9,1c1.9-.8,2.8-1.7,4.2-3.2,8.5-8.8,19.2-15.9,31.7-16.7,15,.5,25.5,10.9,35.2,21.1,1.4,1.6,2.7,3.1,4,4.8q.9,1.1,1.8,2.2c1.3,1.6,2.6,3.2,3.9,4.7,2.5,3,5.1,6,7.7,8.9.9,1.1,1.9,2.2,2.8,3.2,1,1.1,2,2.3,3,3.4.6.6,1.1,1.3,1.7,2,6.8,7.6,13.8,14.8,21.8,21.2,1.7,1.4,3.3,2.7,4.9,4.2,13,11.5,28.4,18.9,44.3,25.4,4.9,2,9.7,4.2,14.5,6.6,2.3.9,3.2.9,5.5,0q2-1.3,3.3-3.3c.2-3.9-.8-6.2-3.2-9.1-13.3-14-33.5-22.7-51.2-29.5-14.5-5.6-26.2-14.5-37.8-24.6-4.1-3.5-8.4-7-12.7-10.3-1.8-1.5-3.2-2.9-4.7-4.7-2.2-2.6-4.5-5.1-6.8-7.7-3.2-3.6-6.3-7.3-9.4-11.1-5.1-6.2-10.3-12.4-15.6-18.4-1-1.1-2-2.3-2.9-3.4-5-5.9-12.1-13.2-20.1-14.4-15.9-.5-27.4,13-36.9,24.5ZM1252.5,808c-.6.1-1.2.2-1.8.3-10.7,1.9-21.3,4.2-31.7,7.4-.9.2-1.7.4-2.6.6q-2.6.9-3.4,3.3c-.2.9-.3,1.9-.5,2.8-.2,1-.4,2-.6,3.1-.2,1.1-.4,2.1-.6,3.2-.4,2.1-.8,4.2-1.2,6.3-.2,1-.4,2-.6,3-.4,2.2-.9,4.4-1.5,6.6q-.8,2.9-.7,6.1c1.2-.3,2.4-.7,3.6-1q1-.3,2-.6c2.4-.8,4.7-1.6,7-2.5,24.2-8.8,50.3-13,75.9-15.1.7,0,1.4-.1,2.2-.2,4-.3,8-.5,12-.7,1,0,2,0,3.1-.1,37.5-.6,74.6,6.5,110.7,16.2,40.1,10.7,81.7,14.6,123,18.3.8,0,1.6.1,2.3.2,5.7.5,11.4.7,17.1.5-.3-6.2-.8-12.4-1.9-18.5q-.3-1.5-.6-3.1c-1-3-1.6-3.5-4.2-5.1q-2.2-.5-4.7-.6-1.5-.1-3-.3-.8,0-1.6-.1c-1.8-.1-3.5-.3-5.3-.4-4.3-.4-8.6-.7-12.9-1.1-41.9-3.4-83-8.5-124-18.1-35.4-8.2-69.7-14.6-106.2-14.7q-1.2,0-2.4,0c-15.8,0-31.3,1.4-46.9,4.2ZM1614.6,850c-.7.6-1.3,1.2-2,1.9q-1.5,1.3-1.4,3.1h-1.7q-1,1.2-2.1,2.7c-.4.6-.8,1.2-1.2,1.8-.4.6-.8,1.2-1.2,1.9q-.6.9-1.2,1.8c-.8,1.2-1.6,2.3-2.4,3.5-.7,1.1-1.4,2.1-2.1,3.2q-1.8,2.4-2.3,5.2c.7.2,1.4.4,2.2.6,11.5,3.7,22.2,9.9,28.3,20.8,5.2,10.7,6.5,22.6,2.9,34.1-1.6,4.1-3.7,7.9-6.4,11.4q-1.3,1.5-1.1,3.2c9.8,2.6,19.7,4.7,29.7,6.7.7.1,1.5.3,2.3.4,13.8,2.7,27.6,4.7,41.5,6.2q37.2,4.2,53.4,8.3c13.6,3.3,26.4,5.9,40.4,6.1.9,0,1.7,0,2.6,0,5.7,0,11-.4,15.5-4.3,1.2-2.8,1-3.9,0-6.8-10.3-14.7-29.7-22.4-45.8-28.5-16.2-6.2-30.2-15.4-43.7-26.3q-1.4-1.2-3.2-1c-.3-.8-.6-1.7-.8-2.5-1.2-1-2.4-2-3.6-2.9-5-4-9.6-8.4-14.1-12.9-.7-.7-1.4-1.4-2.2-2.1-4.1-4.1-7.5-8.2-10.7-13.1q-.6-.8-1.2-1.5h-1.7c-.2-.4-.4-.9-.5-1.3-1.6-2.8-3.7-5.1-5.8-7.5-.4-.5-.9-1-1.4-1.6q-8-9.3-16.5-17.9h-1.7v-1.7c-5.6-4.5-11-6.8-18.2-6.3-9.5,1.8-16.1,9-22.7,15.5ZM1208.1,863.3c.4,4.1,1.1,8,2.1,12,3.9,20,.6,39.8-5.4,58.9-.2.6-.4,1.2-.6,1.8-3.1,9.7-7.9,17.4-13.7,25.6q-1.7,2-2.4,4.3c15.4.1,30.7-.2,46.1-.6.6,0,1.3,0,1.9,0,56.2-1.6,112.3-4,168.4-7.3,1.1,0,2.1-.1,3.2-.2,20.8-1.2,41.7-2.5,62.5-4.2,13.5-1.1,27-1.9,40.6-2.6,3.2-.2,6.4-.3,9.7-.5,3.2-.2,6.4-.3,9.7-.5.6,0,1.3,0,1.9-.1,7.2-.4,14.4-.7,21.7-.8.7,0,1.4,0,2.1,0,3.3,0,6.5-.1,9.8-.2,1.2,0,2.3,0,3.5,0,1,0,2,0,3.1,0q2.5-.1,4-1.5c1.1-1.6,1.5-2.9,1.9-4.8.1-.7.3-1.3.4-2,.1-.7.3-1.4.4-2.1.1-.7.3-1.4.4-2.1,3.5-17.2,4.3-38.8-2.2-55.4-2.1-2.1-3.1-2-6-2.3-.9,0-1.8-.2-2.7-.3-1,0-2-.2-3-.3-1,0-2.1-.2-3.1-.3-2.2-.2-4.5-.4-6.7-.6-5.3-.5-10.5-1-15.8-1.5-1.2-.1-2.4-.2-3.5-.3-15.6-1.5-31.2-3.3-46.8-5.3-.7,0-1.3-.2-2-.3-4.5-.6-9-1.2-13.5-1.8-1.1-.1-2.2-.3-3.3-.4-17.7-2.5-35.1-6.6-52.5-10.8-31.5-7.6-62.3-14.2-94.8-15q-1,0-2,0c-38.6-1-77.6,7.2-113.2,21.8ZM1576.2,844.1c-1.4,4.5-.3,8.8.4,13.4.1.9.2,1.8.3,2.8q.6,4.7,3.1,8.6c2,1.2,3.8,2,6.1,2,1.6-2.7,3.1-5.4,4.7-8.1.5-.8.9-1.5,1.4-2.3.4-.7.8-1.5,1.3-2.2q.6-1,1.2-2.1.9-1.9,0-3.7c-3-4.2-9.5-7-14.4-8.2q-2.3-.1-4.2,0ZM636.3,858.3c-1.4,6.9-2.8,13.8-4.2,20.9q-2.8,11.3-5.7,15c-.5.7-1.1,1.4-1.7,2.2-1.9,2.2-3.9,4.2-6,6.2-.7.7-1.4,1.5-2.1,2.2-4.5,4.7-8.5,8.2-14.4,11.1-2.9,2.6-3,5.5-3.5,9.2-.1.8-.3,1.6-.4,2.4-.6,3.5-1.1,7.1-1.6,10.7-1.6,10.3-3.6,18.3-11.7,25.4-.7.5-1.4,1-2.1,1.6-3.8,3-6.8,5.9-9.5,10-7.3,11-20,13.6-32.1,16.3-4.8.9-9.5,1.3-14.5,1.4q-1,0-1.9,0c-2.1,0-4.1,0-6.2,0-.7,0-1.4,0-2.1,0-9.5,0-18.9-.3-28.3-1.8-13.5-2.1-25.9-.7-39.1,2.2-4.1.9-8.2,1.8-12.3,2.6-.8.2-1.6.3-2.4.5-6.3,1.3-12.6,2.3-19,3.1-.8,0-1.6.2-2.4.3-13.5,1.4-28.5,1-39.6-7.8-3.9-3.9-5.6-6.5-6.1-12,.3-4.9,2.1-7.7,5.6-11,7.8-6.4,17.6-9.5,27-12.8,3.1-1.1,6.2-2.3,9.3-3.4,25.8-9.5,51.5-18.7,78.5-24.3q1.1-.2,2.2-.5c6.5-1.3,12.9-2.4,19.5-2.9v-1.7q-1-.3-1.9-.6c-4.3-1.3-8.2-2.7-11.9-5.1-5.4-3.2-11.4-2-17.4-1.3-8,1-16,1.3-24.1,1.4-1,0-2.1,0-3.1,0-9.2,0-19-1.3-26.2-7.5-2.8-2.9-3.9-5.1-4.2-9.1.2-3.7,1.1-5.8,3.7-8.4,5.6-4.3,12.6-6.4,19.2-8.7q.9-.3,1.9-.7c6.6-2.3,13.2-4.5,19.9-6.7.6-.2,1.3-.4,1.9-.6,9.9-3.3,19.8-6.5,29.7-9.7.6-.2,1.2-.4,1.8-.6,1.7-.6,3.4-1.1,5.1-1.7,1-.3,1.9-.6,2.9-.9,2.9-.9,5.7-1.7,8.6-2.5v-.8c-42.9-.2-85.9-.4-128.8-.6-.6,0-1.3,0-1.9,0-13.8,0-27.6,0-41.4-.1-6.8,0-13.5,0-20.3,0-.7,0-1.3,0-2,0-21.8,0-43.7-.2-65.5-.3-22.4-.1-44.9-.2-67.3-.2-3.2,0-6.3,0-9.5,0-.6,0-1.2,0-1.9,0-10,0-20.1,0-30.1-.2-10.1,0-20.2-.1-30.3,0-5.5,0-10.9,0-16.4,0-5,0-10,0-15,0-1.8,0-3.6,0-5.4,0q-9-.5-17,3c-2.7,3.2-4.4,6.6-6.1,10.4-1.1,2.4-2.5,4.6-3.9,6.9-.5.9-1.1,1.7-1.6,2.6-2.8,4.5-5.7,8.9-8.6,13.4-3.2,5-6.4,9.9-9.5,15-2.9,4.6-5.8,9.2-8.7,13.7-4.2,6.6-8.4,13.2-12.6,19.8-2.7,4.4-5.5,8.7-8.2,13.1-4.1,6.4-8.1,12.9-12.1,19.4-3,4.9-6,9.8-9.1,14.6-2,3.2-4,6.4-5.9,9.6-.5.8-1,1.5-1.4,2.3-.9,1.5-1.9,3-2.8,4.5-2.5,4.1-5.1,8.1-7.8,12.1-1.2,1.9-2.3,3.8-3.4,5.7-4.4,7.7-9.3,15.2-14.3,22.6.3.6.6,1.1.8,1.7,40.8,0,81.6,0,122.3,0q1.2,0,2.4,0c86.1,0,172.2,0,258.3,0h5.8c40.5,0,81,0,121.5,0,20.4,0,40.7,0,61.1,0,3.1,0,6.1,0,9.2,0,46.9,0,93.8,0,140.8,0,1,0,2,0,3,0,16.1,0,32.2,0,48.2,0,46.7,0,93.4,0,140.1,0,1,0,1.9,0,2.9,0,21.4,0,42.9,0,64.3,0,8.6,0,17.3,0,25.9,0q1.4,0,2.9,0c28,0,55.9,0,83.9,0,43.2,0,86.3,0,129.5,0,.8,0,1.7,0,2.6,0,80.6,0,161.3,0,336.3-.6,3.3,0,6.6,0,9.9,0,.6,0,1.3,0,2,0,5.8,0,11.6,0,17.4,0,2.5,0,5.1,0,7.6,0,37.7-.1,75.3-.2,113-.2,1.1,0,2.2,0,3.3,0,38.7,0,77.3,0,116,0,.6,0,1.3,0,1.9,0,2.4,0,4.7,0,7.1,0,12.9,0,25.9,0,38.8,0,1,0,2.1,0,3.1,0,5.2,0,10.3,0,15.5,0,41.1,0,82.2,0,123.3,0-.6-3.4-1.4-5.2-3.5-7.9-3.4-4.5-6.2-9.2-9-14-4.4-7.6-9.1-14.9-13.9-22.2-3.3-4.9-6.4-9.9-9.4-15-2.3-4-4.8-7.8-7.3-11.7-3.2-5-6.3-10.1-9.4-15.1-5.3-8.7-10.7-17.3-16.1-26-1.8-2.8-3.5-5.6-5.3-8.5-4-6.4-8-12.7-12.2-19-3.7-5.6-7.3-11.3-10.8-17-1-1.6-1.9-3.2-2.9-4.7-2.5-4.1-4.8-8-6.7-12.5-2.6-5.5-5.3-10.4-10.3-14.1-9-3.2-19.1-2.3-28.6-1.9-3.8.1-7.5.1-11.3.2-7.1,0-14.2.2-21.3.4-8.1.2-16.2.3-24.3.4-16.6.2-33.2.5-49.8,1l.8,1.7h1.7v1.7c2.7,2.1,5.6,3.9,8.5,5.7,1.4.9,2.8,1.8,4.1,2.7,7.5,4.9,15.5,8.1,23.9,11.4,16.7,6.6,41.9,17.2,50.3,34.4,1.4,4.7,1.9,10.6.1,15.2-.8,1.4-1.7,2.7-2.6,4q-.5,1.8-.8,3.3c.6.4,1.2.9,1.9,1.3q8.2,5.9,11.5,9.5c.6.7,1.2,1.3,1.8,2,3.8,5.4,4.8,9.9,4.1,16.4-.9,4.7-2.9,7.7-6.7,10.6-14.2,9.1-36.3,4.8-51.6,1.4-4.8-1.1-9.6-2.4-14.4-3.8-5.4-1.6-10.8-2.7-16.4-3.6-1-.2-2.1-.3-3.2-.5-9.6-1.5-19.2-2.6-28.9-3.7-15.7-1.7-31.2-3.9-46.7-6.7-.9-.2-1.7-.3-2.6-.5-9.8-1.8-19.4-3.9-28.9-6.7-7.7-2.2-15-3-23-3.1-1,0-2,0-3,0q-4.8-.1-8.8,1.9c-.3.4-.6.9-1,1.4q-1.9,2.5-5.2,3.1c-4.6.4-9.3.5-13.9.6-2,0-3.9.1-5.9.2-1,0-2.1,0-3.1,0-20.4.6-40.8,1.5-61.2,2.7-.6,0-1.2,0-1.9.1-15,.9-30,1.9-45,3-23.9,1.8-47.9,3.1-71.9,4.4-.6,0-1.3,0-1.9.1q-124.3,6.9-185.2,6.9c-.9,0-1.8,0-2.8,0-8.5,0-16.9-.2-25.4-1-.7,0-1.3-.1-2-.2-13.4-1.4-24.8-7.1-35-15.5q-1.4-1.3-3.2-1.1c-.2-.5-.4-1-.6-1.5-1.1-2.1-2.5-3.5-4.1-5.2-7.1-7.8-11.3-17.2-14.3-27.3-1.4-2.6-2.9-3.3-5.5-4.5-2.9-1.4-4.9-2.6-7.1-4.9h-1.7c-.2-.5-.4-1-.7-1.5-1-1.9-2.1-3.1-3.6-4.6-5.5-6.1-8.9-13.9-12-21.5-1.7-3.9-3.7-5.6-7.2-7.9-5.5-4.1-7.6-11.8-9.9-17.9-.6-1.4-1.1-2.8-1.7-4.2h-416.5ZM525.4,869.6c-.8.3-1.7.5-2.5.8-.9.3-1.8.6-2.7.9-1.9.6-3.8,1.2-5.7,1.9-1,.3-2,.6-3,1-4.4,1.4-8.7,2.8-13.1,4.2-.9.3-1.7.5-2.6.8-5.7,1.8-11.4,3.6-17,5.3-9.1,2.8-18.1,5.6-27.1,8.7-.9.3-1.7.6-2.6.9-5.4,1.9-10.5,4.1-15.6,6.8v2.5c1.9.6,3.8,1.1,5.6,1.7,1,.3,2.1.6,3.2.9,8.7,2,18.2.5,27-.2,2-.2,4-.3,6-.4,8.3-.6,14.4-1.6,20.9-7.2,10.9-8.7,23.8-13.4,36.6-18.2-.3-3.9-.6-7.7-.8-11.7-2.6,0-4.2.4-6.6,1.2ZM1195.6,870.8c-1.7,1.8-3.3,3.5-5,5.4-4.7,5.1-9.5,9.7-15.1,13.8-.6.4-1.1.8-1.7,1.3-7.8,5.8-15.7,11.4-24.2,16.3-.6.3-1.1.6-1.7,1-10.9,6.3-22.2,10.4-34.2,14,1.3,11.1,8.6,21.1,16.7,28.4q1.8,1.1,3.3,1.7v1.7c9.2,6.5,19.3,12.1,30.9,10.9.6,0,1.3-.1,2-.2,7-1.1,11.1-5.6,15.2-11.1,14.4-21.6,22.7-48.6,17.9-74.5q-.9-4.4-2.5-8.5h-1.7ZM607.1,875c-2.1,3.9-2.8,8.3-1.7,12.5,2.2,2.2,4.7,3.6,7.5,5q4.7-4.8,7.5-10.9c-3-3.8-7.2-5.2-11.7-6.7h-1.7ZM1082.9,885.9l.8,1.7-.8-1.7ZM1589.6,885.9c.1.7.2,1.3.3,2,2.5,15.3,2.8,30.3.9,45.6-.3,2.8-.4,5.5-.4,8.3,4.4,2.2,11.1,1.5,15.8.2,6.8-3,10.7-8.3,13.8-14.9,2.6-7.2,2.4-15.5-.8-22.5-5.8-9.6-14.6-15.9-25.4-18.7q-2.3-.1-4.2,0ZM522.9,895.8c-.6.3-1.2.5-1.9.8-4.3,1.9-8.4,4-12.4,6.6-.5.3-1,.6-1.5,1q-1.5,1-3.4,2.6v2.5c5.3,3.1,10.5,2.8,16.6,2.7,1.7,0,3.4,0,5.1,0q4.9.4,9.2-1c0-2.2.1-4.3.1-6.5,0-.6,0-1.2,0-1.8,0-3.2-.2-6.1-.9-9.2-4-.4-7.2.9-10.8,2.5ZM553.7,934.3c1.2,4.3,3,7.4,5.6,10.9.3.5.7,1,1,1.5,3.1,4.4,6.7,7.9,12.2,9,4.6-.9,7.1-3.4,9.9-7.1,1.3-2,2.3-3.6,2.1-6.1q-.5-1.7-2-2.4c-.6-.2-1.1-.4-1.7-.6-.6-.2-1.3-.4-1.9-.6q-1-.3-2.1-.6c-.7-.2-1.4-.4-2.1-.7-6.9-2-13.7-2.9-20.8-3.4ZM470.2,945.1c-1.5,3.4-.6,6.9.2,10.4.1.6.2,1.2.4,1.8q2.1,12.1,8.7,22c2.8,1.1,5.5,1.4,8.5,1.6.9,0,1.7.2,2.6.3,8,.7,16.1.8,24.1.9.6,0,1.2,0,1.9,0,15.1,0,35.2-.5,46.7-11.9.5-.6,1-1.2,1.5-1.8-1.3-3.2-3.2-4.8-5.8-6.9-4.7-4.2-8-8.7-11.4-14q-.5-.8-1-1.5-1-1.7-2-4c-1.1-2.4-2.2-4.2-4-6.1-3.7-1.1-7.2-.9-11.1-.7q-1.6,0-3.2.1-29.1.4-55.8,9.8ZM449.3,951.4c-1.2.5-2.5.9-3.7,1.4-.6.2-1.3.5-2,.7-10.6,3.9-21.2,7.6-31.9,11.1-7,2.3-14,4.7-20.9,7.6-.6.3-1.3.5-1.9.8-3.4,1.5-6.1,3.1-8.9,5.6q0,2,.8,4.2c8.1,6.5,20.1,6.3,30,5.8.9,0,1.7,0,2.6,0,9.2-.4,18.2-2.4,27.2-4.4,2.7-.6,5.4-1.1,8.1-1.7,1.7-.4,3.4-.7,5-1.1q1.2-.2,2.4-.5c.7-.2,1.4-.3,2.2-.5.6-.1,1.3-.3,1.9-.4.5-.2,1-.4,1.4-.6.9-2.8.7-3.8,0-6.7-.2-.8-.4-1.6-.6-2.5-.2-.9-.4-1.7-.6-2.6-1.4-6.1-2.6-12-3-18.3-3.1,0-5.6,1-8.4,2.1Z"/>
  <path d="M397.6,307.4c4.3,3.7,8.1,7.2,8.6,13.1q-.3,2.8-1.9,4.4c-4.7-.1-6.8-1.3-10.1-4.6-10.2-9.8-21.9-14.2-36.1-14-9.5.3-15.8,3.8-23,9.7-3.7,4.5-5.8,9.5-5.5,15.4.9,4.3,3.7,8.2,7.1,11,1.9.9,3.8,1.7,5.8,2.5q1.7.9,3.4,3.4-.2,2.6-.8,5c-2.8,1.9-4.1,1.8-7.4,1.3-5.3-1.3-9.1-3.9-12.7-8q-1.1-1.1-2.2-2.2c-4.1-5-5-12.1-4.7-18.3,1-8.8,5.8-17.4,12.8-22.9,20.9-14.2,47.1-11,66.8,4.2Z"/>
</svg>